<svg version="1.1" viewBox="0.0 0.0 480 320" fill="none" stroke="none" stroke-linecap="square" stroke-miterlimit="10" xmlns:xlink="http://www.w3.org/1999/xlink" xmlns="http://www.w3.org/2000/svg"><clipPath id="p.0"><path d="m0 0l800.0 0l0 600.0l-800.0 0l0 -600.0z" clip-rule="nonzero"/></clipPath><g clip-path="url(#p.0)"><path fill="#000000" fill-opacity="0.0" d="m2.0734909 116.301834l68.031494 0" fill-rule="evenodd"/><path stroke="#000000" stroke-width="1.0" stroke-linejoin="round" stroke-linecap="butt" d="m2.0734909 116.301834l68.031494 0" fill-rule="evenodd"/><path fill="#000000" fill-opacity="0.0" d="m2.0734909 84.031494l68.031494 0l0 42.015747l-68.031494 0z" fill-rule="evenodd"/><path fill="#ff0000" d="m37.726734 107.11412l-3.28125 0l0 5.453125l-2.812498 0l0 -13.015625l2.812498 0l0 5.265625l3.28125 0l0 -5.265625l2.828125 0l0 13.015625l-2.828125 0l0 -5.453125z" fill-rule="nonzero"/><path fill="#000000" fill-opacity="0.0" d="m0.08136483 42.015747l31.968504 0l0 42.015747l-31.968504 0z" fill-rule="evenodd"/><path fill="#000000" d="m16.12824 68.935745l0 -2.5625l-6.406251 0l0 -1.375l5.625 -9.078125l2.281251 0l0 9.171875l1.9375 0l0 1.28125l-1.9375 0l0 2.5625l-1.5 0zm-5.015626 -3.84375l5.015626 0l0 -7.96875l-0.0625 0l-4.953126 7.96875z" fill-rule="nonzero"/><path fill="#000000" fill-opacity="0.0" d="m0.08136483 84.031494l31.968504 0l0 42.015747l-31.968504 0z" fill-rule="evenodd"/><path fill="#000000" d="m18.425116 99.29524l-5.812501 0l-0.375 4.984375l0.125 0q0.484375 -0.65625 1.078125 -1.03125q0.609375 -0.390625 1.640625 -0.390625q0.859375 0 1.578126 0.265625q0.71875 0.265625 1.234375 0.796875q0.53125 0.515625 0.828125 1.265625q0.296875 0.734375 0.296875 1.6875q0 0.9375 -0.296875 1.734375q-0.296875 0.796875 -0.875 1.375q-0.578125 0.5625 -1.40625 0.875q-0.81250095 0.3125 -1.859376 0.3125q-0.8125 0 -1.46875 -0.1875q-0.640625 -0.1875 -1.140625 -0.5q-0.484375 -0.3125 -0.859375 -0.703125q-0.375 -0.390625 -0.671875 -0.828125l1.171875 -0.890625q0.265625 0.390625 0.53125 0.71875q0.28125 0.3125 0.625 0.546875q0.359375 0.21875 0.796875 0.359375q0.453125 0.125 1.0625 0.125q1.34375 0 2.062501 -0.71875q0.71875 -0.734375 0.71875 -2.015625l0 -0.15625q0 -1.28125 -0.734375 -2.0q-0.73437595 -0.734375 -2.093751 -0.734375q-0.921875 0 -1.4375 0.3125q-0.515625 0.3125 -0.953125 0.78125l-1.3125 -0.1875l0.453125 -7.15625l7.093751 0l0 1.359375z" fill-rule="nonzero"/><path fill="#000000" fill-opacity="0.0" d="m70.10499 95.29396l68.0315 0" fill-rule="evenodd"/><path stroke="#000000" stroke-width="1.0" stroke-linejoin="round" stroke-linecap="butt" d="m70.10499 95.29396l68.0315 0" fill-rule="evenodd"/><path fill="#000000" fill-opacity="0.0" d="m70.10499 74.28609l0 42.23622" fill-rule="evenodd"/><path stroke="#000000" stroke-width="1.0" stroke-linejoin="round" stroke-linecap="butt" d="m70.10499 74.28609l0 42.23622" fill-rule="evenodd"/><path fill="#000000" fill-opacity="0.0" d="m2.0734909 74.28609l68.031494 0" fill-rule="evenodd"/><path stroke="#000000" stroke-width="1.0" stroke-linejoin="round" stroke-linecap="butt" d="m2.0734909 74.28609l68.031494 0" fill-rule="evenodd"/><path fill="#000000" fill-opacity="0.0" d="m2.0734909 42.015747l68.031494 0l0 42.015747l-68.031494 0z" fill-rule="evenodd"/><path fill="#ff0000" d="m31.898611 70.5515l0 -2.078125l2.796873 0l0 -8.875004l-2.796873 0l0 -2.0625l8.390623 0l0 2.0625l-2.796875 0l0 8.875004l2.796875 0l0 2.078125l-8.390623 0z" fill-rule="nonzero"/><path fill="#000000" fill-opacity="0.0" d="m69.108925 0.22047244l31.968506 0l0 42.015747l-31.968506 0z" fill-rule="evenodd"/><path fill="#000000" d="m79.68705 27.14047l0 -1.359375l3.734375 0l0 -10.5l-0.125 0l-3.28125 3.046875l-0.921875 -0.984375l3.453125 -3.21875l2.453125 0l0 11.65625l3.421875 0l0 1.359375l-8.734375 0z" fill-rule="nonzero"/><path fill="#000000" fill-opacity="0.0" d="m70.10499 32.27034l68.0315 0" fill-rule="evenodd"/><path stroke="#000000" stroke-width="1.0" stroke-linejoin="round" stroke-linecap="butt" d="m70.10499 32.27034l68.0315 0" fill-rule="evenodd"/><path fill="#000000" fill-opacity="0.0" d="m70.10499 0l68.0315 0l0 42.015747l-68.0315 0z" fill-rule="evenodd"/><path fill="#ff0000" d="m100.24261 28.535748l0 -13.015625l2.8125 0l0 10.71875l5.59375 0l0 2.296875l-8.40625 0z" fill-rule="nonzero"/><path fill="#000000" fill-opacity="0.0" d="m70.69029 62.989502l67.43306 0l0 42.015747l-67.43306 0z" fill-rule="evenodd"/><path fill="#ff0000" d="m100.216194 91.525246l0 -2.078125l2.7968826 0l0 -8.875l-2.7968826 0l0 -2.0625l8.390633 0l0 2.0625l-2.796875 0l0 8.875l2.796875 0l0 2.078125l-8.390633 0z" fill-rule="nonzero"/><path fill="#000000" fill-opacity="0.0" d="m138.30183 32.280838l0 63.02362" fill-rule="evenodd"/><path stroke="#000000" stroke-width="1.0" stroke-linejoin="round" stroke-linecap="butt" d="m138.30183 32.280838l0 63.02362" fill-rule="evenodd"/><path fill="#000000" fill-opacity="0.0" d="m1.9908136 232.60367l68.031494 0" fill-rule="evenodd"/><path stroke="#000000" stroke-width="1.0" stroke-linejoin="round" stroke-linecap="butt" d="m1.9908136 232.60367l68.031494 0" fill-rule="evenodd"/><path fill="#000000" fill-opacity="0.0" d="m1.9908136 200.33333l68.031494 0l0 42.015747l-68.031494 0z" fill-rule="evenodd"/><path fill="#ff0000" d="m38.45656 223.0722l0.140625 -3.640625l-0.171875 0l-2.421875 6.6875l-2.421875 -6.6875l-0.171875 0l0.15625 3.640625l0 5.796875l-2.421873 0l0 -13.015625l3.296873 0l1.609375 4.375l0.140625 0l1.609375 -4.375l3.078125 0l0 13.015625l-2.421875 0l0 -5.796875z" fill-rule="nonzero"/><path fill="#000000" fill-opacity="0.0" d="m-0.001312336 158.31758l31.968504 0l0 42.015747l-31.968504 0z" fill-rule="evenodd"/><path fill="#000000" d="m14.029938 177.73758q1.375 0 2.046875 -0.609375q0.6875 -0.609375 0.6875 -1.546875l0 -0.140625q0 -1.046875 -0.671875 -1.5625q-0.65625 -0.53125 -1.71875 -0.53125q-1.046875 0 -1.6875 0.46875q-0.640625 0.453125 -1.0625 1.203125l-1.171875 -0.90625q0.25 -0.390625 0.59375 -0.765625q0.359375 -0.390625 0.828125 -0.6875q0.484375 -0.296875 1.109375 -0.484375q0.625 -0.1875 1.421875 -0.1875q0.84375 0 1.5625 0.21875q0.734375 0.21875 1.265625 0.640625q0.546875 0.40625 0.859375 1.03125q0.3125 0.609375 0.3125 1.390625q0 0.640625 -0.203125 1.140625q-0.1875 0.5 -0.53125 0.875q-0.34375 0.375 -0.8125 0.640625q-0.46875 0.265625 -1.0 0.390625l0 0.078125q0.546875 0.109375 1.046875 0.359375q0.5 0.25 0.890625 0.65625q0.40625 0.40625 0.625 0.96875q0.234375 0.5625 0.234375 1.296875q0 0.84375 -0.328125 1.546875q-0.3125 0.6875 -0.90625 1.1875q-0.59375 0.5 -1.421875 0.78125q-0.828125 0.265625 -1.828125 0.265625q-0.859375 0 -1.53125 -0.1875q-0.65625 -0.1875 -1.171875 -0.5q-0.515625 -0.3125 -0.90625 -0.703125q-0.375 -0.390625 -0.671875 -0.828125l1.1875 -0.890625q0.25 0.390625 0.53125 0.71875q0.28125 0.3125 0.640625 0.546875q0.375 0.21875 0.828125 0.359375q0.46875 0.125 1.09375 0.125q1.375 0 2.109375 -0.625q0.734375 -0.640625 0.734375 -1.8125l0 -0.15625q0 -1.15625 -0.71875 -1.78125q-0.71875 -0.640625 -2.140625 -0.640625l-1.5625 0l0 -1.34375l1.4375 0z" fill-rule="nonzero"/><path fill="#000000" fill-opacity="0.0" d="m-0.001312336 200.33333l31.968504 0l0 42.015747l-31.968504 0z" fill-rule="evenodd"/><path fill="#000000" d="m14.608063 227.47208q-1.015625 0 -1.84375 -0.34375q-0.8125 -0.34375 -1.390625 -0.984375q-0.5625 -0.640625 -0.875 -1.578125q-0.3125 -0.9375 -0.3125 -2.09375q0 -1.453125 0.4375 -2.71875q0.453125 -1.28125 1.125 -2.328125q0.6875 -1.0625 1.515625 -1.875q0.84375 -0.8125 1.640625 -1.3125l2.015625 0q-1.0625 0.765625 -1.890625 1.5q-0.828125 0.71875 -1.46875 1.515625q-0.625 0.78125 -1.0625 1.6875q-0.421875 0.90625 -0.703125 2.046875l0.09375 0.03125q0.46875 -0.796875 1.234375 -1.328125q0.765625 -0.53125 1.96875 -0.53125q0.859375 0 1.5625 0.28125q0.71875 0.28125 1.234375 0.796875q0.53125 0.515625 0.8125 1.265625q0.296875 0.75 0.296875 1.671875q0 0.9375 -0.328125 1.734375q-0.3125 0.796875 -0.875 1.375q-0.5625 0.5625 -1.375 0.875q-0.8125 0.3125 -1.8125 0.3125zm-0.015625 -1.3125q1.34375 0 2.078125 -0.734375q0.734375 -0.734375 0.734375 -2.046875l0 -0.15625q0 -1.328125 -0.734375 -2.046875q-0.734375 -0.734375 -2.078125 -0.734375q-1.34375 0 -2.078125 0.734375q-0.734375 0.71875 -0.734375 2.046875l0 0.15625q0 1.3125 0.734375 2.046875q0.734375 0.734375 2.078125 0.734375z" fill-rule="nonzero"/><path fill="#000000" fill-opacity="0.0" d="m70.02231 211.5958l68.031494 0" fill-rule="evenodd"/><path stroke="#000000" stroke-width="1.0" stroke-linejoin="round" stroke-linecap="butt" d="m70.02231 211.5958l68.031494 0" fill-rule="evenodd"/><path fill="#000000" fill-opacity="0.0" d="m70.02231 190.58792l0 42.23622" fill-rule="evenodd"/><path stroke="#000000" stroke-width="1.0" stroke-linejoin="round" stroke-linecap="butt" d="m70.02231 190.58792l0 42.23622" fill-rule="evenodd"/><path fill="#000000" fill-opacity="0.0" d="m1.9908136 190.58792l68.031494 0" fill-rule="evenodd"/><path stroke="#000000" stroke-width="1.0" stroke-linejoin="round" stroke-linecap="butt" d="m1.9908136 190.58792l68.031494 0" fill-rule="evenodd"/><path fill="#000000" fill-opacity="0.0" d="m1.9908136 158.31758l68.031494 0l0 42.015747l-68.031494 0z" fill-rule="evenodd"/><path fill="#ff0000" d="m38.51906 186.85333l-0.8125 -3.140625l-3.5625 0l-0.8125 3.140625l-2.828123 0l3.531248 -13.015625l3.953125 0l3.515625 13.015625l-2.984375 0zm-2.515625 -10.3125l-0.140625 0l-1.28125 4.921875l2.6875 0l-1.265625 -4.921875z" fill-rule="nonzero"/><path fill="#000000" fill-opacity="0.0" d="m38.053806 116.301834l31.968502 0l0 42.015747l-31.968502 0z" fill-rule="evenodd"/><path fill="#000000" d="m57.06943 143.22183l-8.6875 0l0 -1.609375l4.34375 -3.90625q0.953125 -0.859375 1.5625 -1.765625q0.625 -0.90625 0.625 -1.921875l0 -0.21875q0 -1.171875 -0.625 -1.8125q-0.609375 -0.65625 -1.828125 -0.65625q-1.1875 0 -1.84375 0.609375q-0.640625 0.609375 -0.953125 1.625l-1.390625 -0.53125q0.1875 -0.578125 0.5 -1.125q0.328125 -0.546875 0.828125 -0.96875q0.515625 -0.4375 1.234375 -0.703125q0.71875 -0.265625 1.671875 -0.265625q0.96875 0 1.71875 0.28125q0.75 0.28125 1.265625 0.796875q0.515625 0.5 0.78125 1.1875q0.28125 0.6875 0.28125 1.5q0 0.75 -0.21875 1.40625q-0.21875 0.65625 -0.609375 1.25q-0.375 0.59375 -0.90625 1.171875q-0.53125 0.5625 -1.1875 1.125l-3.625 3.171875l7.0625 0l0 1.359375z" fill-rule="nonzero"/><path fill="#000000" fill-opacity="0.0" d="m70.02231 148.57217l68.031494 0" fill-rule="evenodd"/><path stroke="#000000" stroke-width="1.0" stroke-linejoin="round" stroke-linecap="butt" d="m70.02231 148.57217l68.031494 0" fill-rule="evenodd"/><path fill="#000000" fill-opacity="0.0" d="m70.02231 116.301834l68.031494 0l0 42.015747l-68.031494 0z" fill-rule="evenodd"/><path fill="#ff0000" d="m106.11305 142.99384l-0.171875 0q-0.171875 0.40625 -0.421875 0.78125q-0.234375 0.375 -0.59375 0.671875q-0.34375 0.28125 -0.828125 0.4375q-0.46875 0.171875 -1.0625 0.171875q-0.953125 0 -1.6875 -0.4375q-0.734375 -0.453125 -1.25 -1.3125q-0.5 -0.859375 -0.75 -2.078125q-0.25 -1.234375 -0.25 -2.796875q0 -3.3125 1.203125 -5.078125q1.21875 -1.765625 3.75 -1.765625q1.015625 0 1.78125 0.28125q0.765625 0.265625 1.3125 0.765625q0.546875 0.484375 0.90625 1.1875q0.359375 0.6875 0.5625 1.515625l-2.609375 0.640625q-0.125 -0.40625 -0.265625 -0.78125q-0.140625 -0.390625 -0.359375 -0.6875q-0.21875 -0.3125 -0.5625 -0.484375q-0.328125 -0.171875 -0.8125 -0.171875q-1.0625 0 -1.5 0.875q-0.4375 0.875 -0.4375 2.453125l0 2.140625q0 1.578125 0.46875 2.53125q0.484375 0.953125 1.6875 0.953125q0.953125 0 1.421875 -0.5625q0.46875 -0.5625 0.46875 -1.4375l0 -0.953125l-2.21875 0l0 -1.96875l4.71875 0l0 6.953125l-2.5 0l0 -1.84375z" fill-rule="nonzero"/><path fill="#000000" fill-opacity="0.0" d="m70.60761 179.29134l67.43307 0l0 42.015747l-67.43307 0z" fill-rule="evenodd"/><path fill="#ff0000" d="m106.83665 207.82709l-0.8125 -3.140625l-3.5625 0l-0.8125 3.140625l-2.828125 0l3.53125 -13.015625l3.953125 0l3.515625 13.015625l-2.984375 0zm-2.515625 -10.3125l-0.140625 0l-1.28125 4.921875l2.6875 0l-1.265625 -4.921875z" fill-rule="nonzero"/><path fill="#000000" fill-opacity="0.0" d="m138.21916 148.58267l0 63.02362" fill-rule="evenodd"/><path stroke="#000000" stroke-width="1.0" stroke-linejoin="round" stroke-linecap="butt" d="m138.21916 148.58267l0 63.02362" fill-rule="evenodd"/><path fill="#000000" fill-opacity="0.0" d="m138.13518 64.55118l68.031494 0" fill-rule="evenodd"/><path stroke="#000000" stroke-width="1.0" stroke-linejoin="round" stroke-linecap="butt" d="m138.13518 64.55118l68.031494 0" fill-rule="evenodd"/><path fill="#000000" fill-opacity="0.0" d="m138.13518 32.280838l68.031494 0l0 42.015747l-68.031494 0z" fill-rule="evenodd"/><path fill="#ff0000" d="m168.2728 60.816586l0 -13.015625l2.8125 0l0 10.71875l5.59375 0l0 2.296875l-8.40625 0z" fill-rule="nonzero"/><path fill="#000000" fill-opacity="0.0" d="m138.0538 180.84251l68.031494 0" fill-rule="evenodd"/><path stroke="#000000" stroke-width="1.0" stroke-linejoin="round" stroke-linecap="butt" d="m138.0538 180.84251l68.031494 0" fill-rule="evenodd"/><path fill="#000000" fill-opacity="0.0" d="m138.0538 148.57217l68.031494 0l0 42.015747l-68.031494 0z" fill-rule="evenodd"/><path fill="#ff0000" d="m174.14455 175.26418l-0.171875 0q-0.171875 0.40625 -0.421875 0.78125q-0.234375 0.375 -0.59375 0.671875q-0.34375 0.28125 -0.828125 0.4375q-0.46875 0.171875 -1.0625 0.171875q-0.953125 0 -1.6875 -0.4375q-0.734375 -0.453125 -1.25 -1.3125q-0.5 -0.859375 -0.75 -2.078125q-0.25 -1.234375 -0.25 -2.796875q0 -3.3125 1.203125 -5.078125q1.21875 -1.765625 3.75 -1.765625q1.015625 0 1.78125 0.28125q0.765625 0.265625 1.3125 0.765625q0.546875 0.484375 0.90625 1.1875q0.359375 0.6875 0.5625 1.515625l-2.609375 0.640625q-0.125 -0.40625 -0.265625 -0.78125q-0.140625 -0.390625 -0.359375 -0.6875q-0.21875 -0.3125 -0.5625 -0.484375q-0.328125 -0.171875 -0.8125 -0.171875q-1.0625 0 -1.5 0.875q-0.4375 0.875 -0.4375 2.453125l0 2.140625q0 1.578125 0.46875 2.53125q0.484375 0.953125 1.6875 0.953125q0.953125 0 1.421875 -0.5625q0.46875 -0.5625 0.46875 -1.4375l0 -0.953125l-2.21875 0l0 -1.96875l4.71875 0l0 6.953125l-2.5 0l0 -1.84375z" fill-rule="nonzero"/><path fill="#000000" fill-opacity="0.0" d="m206.08661 64.55118l0 116.53543" fill-rule="evenodd"/><path stroke="#000000" stroke-width="1.0" stroke-linejoin="round" stroke-linecap="butt" d="m206.08661 64.55118l0 116.53543" fill-rule="evenodd"/><path fill="#000000" fill-opacity="0.0" d="m176.76303 101.68898l29.32283 0l0 42.015747l-29.32283 0z" fill-rule="evenodd"/><path fill="#ff0000" d="m187.54633 130.22473l0 -13.015633l2.8125 0l0 10.71875l5.59375 0l0 2.2968826l-8.40625 0z" fill-rule="nonzero"/><path fill="#000000" fill-opacity="0.0" d="m206.0853 122.73097l68.031494 0" fill-rule="evenodd"/><path stroke="#000000" stroke-width="1.0" stroke-linejoin="round" stroke-linecap="butt" d="m206.0853 122.73097l68.031494 0" fill-rule="evenodd"/><path fill="#000000" fill-opacity="0.0" d="m206.67061 90.426506l67.43306 0l0 42.015755l-67.43306 0z" fill-rule="evenodd"/><path fill="#ff0000" d="m236.21214 118.96226l0 -13.015625l5.03125 0q0.953125 0 1.703125 0.296875q0.75 0.28125 1.25 0.828125q0.515625 0.53125 0.78125 1.296875q0.265625 0.765625 0.265625 1.71875q0 0.953125 -0.265625 1.71875q-0.265625 0.75 -0.78125 1.296875q-0.5 0.546875 -1.25 0.84375q-0.75 0.28125 -1.703125 0.28125l-2.21875 0l0 4.734375l-2.8125 0zm2.8125 -7.0l1.515625 0q0.984375 0 1.359375 -0.375q0.390625 -0.375 0.390625 -1.21875l0 -0.5625q0 -0.859375 -0.390625 -1.234375q-0.375 -0.375 -1.359375 -0.375l-1.515625 0l0 3.765625z" fill-rule="nonzero"/><path fill="#000000" fill-opacity="0.0" d="m274.1181 64.43044l0 116.53544" fill-rule="evenodd"/><path stroke="#000000" stroke-width="1.0" stroke-linejoin="round" stroke-linecap="butt" d="m274.1181 64.43044l0 116.53544" fill-rule="evenodd"/><path fill="#000000" fill-opacity="0.0" d="m274.27954 64.55118l68.031494 0" fill-rule="evenodd"/><path stroke="#000000" stroke-width="1.0" stroke-linejoin="round" stroke-linecap="butt" d="m274.27954 64.55118l68.031494 0" fill-rule="evenodd"/><path fill="#000000" fill-opacity="0.0" d="m274.27954 32.280838l68.031494 0l0 42.015747l-68.031494 0z" fill-rule="evenodd"/><path fill="#ff0000" d="m304.12027 60.816586l0 -13.015625l5.03125 0q0.953125 0 1.703125 0.296875q0.75 0.28125 1.25 0.828125q0.515625 0.53125 0.78125 1.296875q0.265625 0.765625 0.265625 1.71875q0 0.953125 -0.265625 1.71875q-0.265625 0.75 -0.78125 1.296875q-0.5 0.546875 -1.25 0.84375q-0.75 0.28125 -1.703125 0.28125l-2.21875 0l0 4.734375l-2.8125 0zm2.8125 -7.0l1.515625 0q0.984375 0 1.359375 -0.375q0.390625 -0.375 0.390625 -1.21875l0 -0.5625q0 -0.859375 -0.390625 -1.234375q-0.375 -0.375 -1.359375 -0.375l-1.515625 0l0 3.765625z" fill-rule="nonzero"/><path fill="#000000" fill-opacity="0.0" d="m274.19815 180.84251l68.031494 0" fill-rule="evenodd"/><path stroke="#000000" stroke-width="1.0" stroke-linejoin="round" stroke-linecap="butt" d="m274.19815 180.84251l68.031494 0" fill-rule="evenodd"/><path fill="#000000" fill-opacity="0.0" d="m274.19815 148.57217l68.031494 0l0 42.015747l-68.031494 0z" fill-rule="evenodd"/><path fill="#ff0000" d="m306.44516 164.0923l0 8.234375q0 0.625 0.046875 1.140625q0.046875 0.5 0.21875 0.859375q0.171875 0.359375 0.53125 0.5625q0.359375 0.1875 0.96875 0.1875q0.625 0 0.96875 -0.1875q0.359375 -0.203125 0.53125 -0.5625q0.1875 -0.359375 0.234375 -0.859375q0.046875 -0.515625 0.046875 -1.140625l0 -8.234375l2.796875 0l0 7.859375q0 1.34375 -0.1875 2.359375q-0.171875 1.0 -0.671875 1.671875q-0.5 0.671875 -1.40625 1.015625q-0.890625 0.328125 -2.3125 0.328125q-1.421875 0 -2.3125 -0.328125q-0.890625 -0.34375 -1.40625 -1.015625q-0.5 -0.671875 -0.671875 -1.671875q-0.171875 -1.015625 -0.171875 -2.359375l0 -7.859375l2.796875 0z" fill-rule="nonzero"/><path fill="#000000" fill-opacity="0.0" d="m274.68954 101.68767l29.322845 0l0 42.015747l-29.322845 0z" fill-rule="evenodd"/><path fill="#ff0000" d="m285.17596 130.22342l0 -13.015633l5.03125 0q0.953125 0 1.703125 0.296875q0.75 0.28125 1.25 0.828125q0.515625 0.53125 0.78125 1.296875q0.265625 0.765625 0.265625 1.71875q0 0.953125 -0.265625 1.71875q-0.265625 0.75 -0.78125 1.296875q-0.5 0.546875 -1.25 0.84375q-0.75 0.28125 -1.703125 0.28125l-2.21875 0l0 4.7343826l-2.8125 0zm2.8125 -7.0000076l1.515625 0q0.984375 0 1.359375 -0.375q0.390625 -0.375 0.390625 -1.21875l0 -0.5625q0 -0.859375 -0.390625 -1.234375q-0.375 -0.375 -1.359375 -0.375l-1.515625 0l0 3.765625z" fill-rule="nonzero"/><path fill="#000000" fill-opacity="0.0" d="m342.81497 147.81364l0 63.02362" fill-rule="evenodd"/><path stroke="#000000" stroke-width="1.0" stroke-linejoin="round" stroke-linecap="butt" d="m342.81497 147.81364l0 63.02362" fill-rule="evenodd"/><path fill="#000000" fill-opacity="0.0" d="m342.81628 33.03937l0 63.023624" fill-rule="evenodd"/><path stroke="#000000" stroke-width="1.0" stroke-linejoin="round" stroke-linecap="butt" d="m342.81628 33.03937l0 63.023624" fill-rule="evenodd"/><path fill="#000000" fill-opacity="0.0" d="m342.1483 210.41208l68.031494 0" fill-rule="evenodd"/><path stroke="#000000" stroke-width="1.0" stroke-linejoin="round" stroke-linecap="butt" d="m342.1483 210.41208l68.031494 0" fill-rule="evenodd"/><path fill="#000000" fill-opacity="0.0" d="m342.73358 178.1076l67.433075 0l0 42.015747l-67.433075 0z" fill-rule="evenodd"/><path fill="#ff0000" d="m375.05637 206.64336l0 -4.609375l-4.125 -8.40625l3.109375 0l1.390625 3.015625l1.0 2.5625l0.15625 0l1.0 -2.5625l1.375 -3.015625l3.015625 0l-4.125 8.40625l0 4.609375l-2.796875 0z" fill-rule="nonzero"/><path fill="#000000" fill-opacity="0.0" d="m342.1483 148.3819l68.031494 0" fill-rule="evenodd"/><path stroke="#000000" stroke-width="1.0" stroke-linejoin="round" stroke-linecap="butt" d="m342.1483 148.3819l68.031494 0" fill-rule="evenodd"/><path fill="#000000" fill-opacity="0.0" d="m342.73358 116.07743l67.433075 0l0 42.01574l-67.433075 0z" fill-rule="evenodd"/><path fill="#ff0000" d="m374.68137 131.59755l0 8.234375q0 0.625 0.046875 1.140625q0.046875 0.5 0.21875 0.859375q0.171875 0.359375 0.53125 0.5625q0.359375 0.1875 0.96875 0.1875q0.625 0 0.96875 -0.1875q0.359375 -0.203125 0.53125 -0.5625q0.1875 -0.359375 0.234375 -0.859375q0.046875 -0.515625 0.046875 -1.140625l0 -8.234375l2.796875 0l0 7.859375q0 1.34375 -0.1875 2.359375q-0.171875 1.0 -0.671875 1.671875q-0.5 0.671875 -1.40625 1.015625q-0.890625 0.328125 -2.3125 0.328125q-1.421875 0 -2.3125 -0.328125q-0.890625 -0.34375 -1.40625 -1.015625q-0.5 -0.671875 -0.671875 -1.671875q-0.171875 -1.015625 -0.171875 -2.359375l0 -7.859375l2.796875 0z" fill-rule="nonzero"/><path fill="#000000" fill-opacity="0.0" d="m411.51312 116.301834l31.968506 0l0 42.015747l-31.968506 0z" fill-rule="evenodd"/><path fill="#000000" d="m430.52875 143.22183l-8.6875 0l0 -1.609375l4.34375 -3.90625q0.953125 -0.859375 1.5625 -1.765625q0.625 -0.90625 0.625 -1.921875l0 -0.21875q0 -1.171875 -0.625 -1.8125q-0.609375 -0.65625 -1.828125 -0.65625q-1.1875 0 -1.84375 0.609375q-0.640625 0.609375 -0.953125 1.625l-1.390625 -0.53125q0.1875 -0.578125 0.5 -1.125q0.328125 -0.546875 0.828125 -0.96875q0.515625 -0.4375 1.234375 -0.703125q0.71875 -0.265625 1.671875 -0.265625q0.96875 0 1.71875 0.28125q0.75 0.28125 1.265625 0.796875q0.515625 0.5 0.78125 1.1875q0.28125 0.6875 0.28125 1.5q0 0.75 -0.21875 1.40625q-0.21875 0.65625 -0.609375 1.25q-0.375 0.59375 -0.90625 1.171875q-0.53125 0.5625 -1.1875 1.125l-3.625 3.171875l7.0625 0l0 1.359375z" fill-rule="nonzero"/><path fill="#000000" fill-opacity="0.0" d="m342.47375 95.59974l68.031494 0" fill-rule="evenodd"/><path stroke="#000000" stroke-width="1.0" stroke-linejoin="round" stroke-linecap="butt" d="m342.47375 95.59974l68.031494 0" fill-rule="evenodd"/><path fill="#000000" fill-opacity="0.0" d="m343.05905 63.295277l67.433075 0l0 42.015743l-67.433075 0z" fill-rule="evenodd"/><path fill="#ff0000" d="m372.6006 91.831024l0 -13.015625l5.03125 0q0.953125 0 1.703125 0.296875q0.75 0.28125 1.25 0.828125q0.515625 0.53125 0.78125 1.296875q0.265625 0.765625 0.265625 1.71875q0 0.953125 -0.265625 1.71875q-0.265625 0.75 -0.78125 1.296875q-0.5 0.546875 -1.25 0.84375q-0.75 0.28125 -1.703125 0.28125l-2.21875 0l0 4.734375l-2.8125 0zm2.8125 -7.0l1.515625 0q0.984375 0 1.359375 -0.375q0.390625 -0.375 0.390625 -1.21875l0 -0.5625q0 -0.859375 -0.390625 -1.234375q-0.375 -0.375 -1.359375 -0.375l-1.515625 0l0 3.765625z" fill-rule="nonzero"/><path fill="#000000" fill-opacity="0.0" d="m342.47375 33.569553l68.031494 0" fill-rule="evenodd"/><path stroke="#000000" stroke-width="1.0" stroke-linejoin="round" stroke-linecap="butt" d="m342.47375 33.569553l68.031494 0" fill-rule="evenodd"/><path fill="#000000" fill-opacity="0.0" d="m343.05905 1.2650919l67.433075 0l0 42.015747l-67.433075 0z" fill-rule="evenodd"/><path fill="#ff0000" d="m376.77246 30.019588q-2.609375 0 -3.859375 -1.765625q-1.234375 -1.78125 -1.234375 -4.96875q0 -3.1875 1.234375 -4.953125q1.25 -1.78125 3.859375 -1.78125q2.609375 0 3.84375 1.78125q1.25 1.765625 1.25 4.953125q0 3.1875 -1.25 4.96875q-1.234375 1.765625 -3.84375 1.765625zm0 -2.25q1.203125 0 1.65625 -0.890625q0.453125 -0.890625 0.453125 -2.46875l0 -2.265625q0 -1.5625 -0.453125 -2.4375q-0.453125 -0.890625 -1.65625 -0.890625q-1.1875 0 -1.65625 0.890625q-0.453125 0.875 -0.453125 2.4375l0 2.28125q0 1.5625 0.453125 2.453125q0.46875 0.890625 1.65625 0.890625z" fill-rule="nonzero"/><path fill="#000000" fill-opacity="0.0" d="m380.3622 0.8031496l31.968506 0l0 42.015747l-31.968506 0z" fill-rule="evenodd"/><path fill="#000000" d="m390.94034 27.723148l0 -1.359375l3.734375 0l0 -10.500001l-0.125 0l-3.28125 3.046876l-0.921875 -0.984375l3.453125 -3.218751l2.453125 0l0 11.656251l3.421875 0l0 1.359375l-8.734375 0z" fill-rule="nonzero"/><path fill="#000000" fill-opacity="0.0" d="m410.73752 116.57481l68.031525 0" fill-rule="evenodd"/><path stroke="#000000" stroke-width="1.0" stroke-linejoin="round" stroke-linecap="butt" d="m410.73752 116.57481l68.031525 0" fill-rule="evenodd"/><path fill="#000000" fill-opacity="0.0" d="m410.73752 84.30446l68.031525 0l0 42.015755l-68.031525 0z" fill-rule="evenodd"/><path fill="#ff0000" d="m442.89078 104.18396l-0.203125 0l0 8.65625l-2.390625 0l0 -13.015625l3.359375 0l2.96875 8.65625l0.203125 0l0 -8.65625l2.390625 0l0 13.015625l-3.359375 0l-2.96875 -8.65625z" fill-rule="nonzero"/><path fill="#000000" fill-opacity="0.0" d="m410.73752 74.55905l68.031525 0" fill-rule="evenodd"/><path stroke="#000000" stroke-width="1.0" stroke-linejoin="round" stroke-linecap="butt" d="m410.73752 74.55905l68.031525 0" fill-rule="evenodd"/><path fill="#000000" fill-opacity="0.0" d="m410.73752 42.288715l68.031525 0l0 42.015743l-68.031525 0z" fill-rule="evenodd"/><path fill="#ff0000" d="m440.57828 70.82446l0 -13.015625l5.03125 0q0.953125 0 1.703125 0.296875q0.75 0.28125 1.25 0.828125q0.515625 0.53125 0.78125 1.296875q0.265625 0.765625 0.265625 1.71875q0 0.953125 -0.265625 1.71875q-0.265625 0.75 -0.78125 1.296875q-0.5 0.546875 -1.25 0.84375q-0.75 0.28125 -1.703125 0.28125l-2.21875 0l0 4.734375l-2.8125 0zm2.8125 -7.0l1.515625 0q0.984375 0 1.359375 -0.375q0.390625 -0.375 0.390625 -1.21875l0 -0.5625q0 -0.859375 -0.390625 -1.234375q-0.375 -0.375 -1.359375 -0.375l-1.515625 0l0 3.765625z" fill-rule="nonzero"/><path fill="#000000" fill-opacity="0.0" d="m410.6824 74.17585l0 42.23622" fill-rule="evenodd"/><path stroke="#000000" stroke-width="1.0" stroke-linejoin="round" stroke-linecap="butt" d="m410.6824 74.17585l0 42.23622" fill-rule="evenodd"/><path fill="#000000" fill-opacity="0.0" d="m449.87796 43.280838l31.968506 0l0 42.015747l-31.968506 0z" fill-rule="evenodd"/><path fill="#000000" d="m465.92484 70.200836l0 -2.5625l-6.40625 0l0 -1.375l5.625 -9.078125l2.28125 0l0 9.171875l1.9375 0l0 1.28125l-1.9375 0l0 2.5625l-1.5 0zm-5.015625 -3.84375l5.015625 0l0 -7.96875l-0.0625 0l-4.953125 7.96875z" fill-rule="nonzero"/><path fill="#000000" fill-opacity="0.0" d="m450.66797 83.76903l31.968506 0l0 42.015747l-31.968506 0z" fill-rule="evenodd"/><path fill="#000000" d="m469.01172 99.032776l-5.8125 0l-0.375 4.984375l0.125 0q0.484375 -0.65625 1.078125 -1.03125q0.609375 -0.390625 1.640625 -0.390625q0.859375 0 1.578125 0.265625q0.71875 0.265625 1.234375 0.796875q0.53125 0.515625 0.828125 1.265625q0.296875 0.734375 0.296875 1.6875q0 0.9375 -0.296875 1.734375q-0.296875 0.796875 -0.875 1.375q-0.578125 0.5625 -1.40625 0.875q-0.8125 0.3125 -1.859375 0.3125q-0.8125 0 -1.46875 -0.1875q-0.640625 -0.1875 -1.140625 -0.5q-0.484375 -0.3125 -0.859375 -0.703125q-0.375 -0.390625 -0.671875 -0.828125l1.171875 -0.890625q0.265625 0.390625 0.53125 0.71875q0.28125 0.3125 0.625 0.546875q0.359375 0.21875 0.796875 0.359375q0.453125 0.125 1.0625 0.125q1.34375 0 2.0625 -0.71875q0.71875 -0.734375 0.71875 -2.015625l0 -0.15625q0 -1.28125 -0.734375 -2.0q-0.734375 -0.734375 -2.09375 -0.734375q-0.921875 0 -1.4375 0.3125q-0.515625 0.3125 -0.953125 0.78125l-1.3125 -0.1875l0.453125 -7.15625l7.09375 0l0 1.359375z" fill-rule="nonzero"/><path fill="#000000" fill-opacity="0.0" d="m410.39896 231.91864l68.031494 0" fill-rule="evenodd"/><path stroke="#000000" stroke-width="1.0" stroke-linejoin="round" stroke-linecap="butt" d="m410.39896 231.91864l68.031494 0" fill-rule="evenodd"/><path fill="#000000" fill-opacity="0.0" d="m410.39896 199.6483l68.031494 0l0 42.015747l-68.031494 0z" fill-rule="evenodd"/><path fill="#ff0000" d="m444.20844 228.40279q-1.640625 0 -2.859375 -0.53125q-1.203125 -0.546875 -1.953125 -1.484375l1.625 -1.78125q0.703125 0.78125 1.546875 1.15625q0.859375 0.375 1.734375 0.375q1.015625 0 1.53125 -0.453125q0.515625 -0.453125 0.515625 -1.28125q0 -0.703125 -0.40625 -1.046875q-0.390625 -0.359375 -1.34375 -0.5l-1.359375 -0.234375q-1.75 -0.296875 -2.546875 -1.296875q-0.78125 -1.0 -0.78125 -2.4375q0 -1.875 1.234375 -2.90625q1.234375 -1.046875 3.453125 -1.046875q1.515625 0 2.625 0.46875q1.125 0.46875 1.8125 1.265625l-1.578125 1.78125q-0.53125 -0.578125 -1.234375 -0.90625q-0.703125 -0.328125 -1.609375 -0.328125q-1.875 0 -1.875 1.546875q0 0.671875 0.40625 1.015625q0.421875 0.328125 1.375 0.5l1.375 0.234375q1.578125 0.28125 2.4375 1.203125q0.859375 0.90625 0.859375 2.453125q0 0.921875 -0.328125 1.703125q-0.3125 0.765625 -0.953125 1.34375q-0.625 0.5625 -1.546875 0.875q-0.921875 0.3125 -2.15625 0.3125z" fill-rule="nonzero"/><path fill="#000000" fill-opacity="0.0" d="m410.39896 189.9029l68.031494 0" fill-rule="evenodd"/><path stroke="#000000" stroke-width="1.0" stroke-linejoin="round" stroke-linecap="butt" d="m410.39896 189.9029l68.031494 0" fill-rule="evenodd"/><path fill="#000000" fill-opacity="0.0" d="m410.39896 157.63255l68.031494 0l0 42.015747l-68.031494 0z" fill-rule="evenodd"/><path fill="#ff0000" d="m443.02094 186.16829l0 -4.609375l-4.125 -8.40625l3.109375 0l1.390625 3.015625l1.0 2.5625l0.15625 0l1.0 -2.5625l1.375 -3.015625l3.015625 0l-4.125 8.40625l0 4.609375l-2.796875 0z" fill-rule="nonzero"/><path fill="#000000" fill-opacity="0.0" d="m410.34384 189.51968l0 42.23622" fill-rule="evenodd"/><path stroke="#000000" stroke-width="1.0" stroke-linejoin="round" stroke-linecap="butt" d="m410.34384 189.51968l0 42.23622" fill-rule="evenodd"/><path fill="#000000" fill-opacity="0.0" d="m449.53937 158.62466l31.968506 0l0 42.015762l-31.968506 0z" fill-rule="evenodd"/><path fill="#000000" d="m463.57062 178.04466q1.375 0 2.046875 -0.609375q0.6875 -0.609375 0.6875 -1.546875l0 -0.140625q0 -1.046875 -0.671875 -1.5625q-0.65625 -0.53125 -1.71875 -0.53125q-1.046875 0 -1.6875 0.46875q-0.640625 0.453125 -1.0625 1.203125l-1.171875 -0.90625q0.25 -0.390625 0.59375 -0.765625q0.359375 -0.390625 0.828125 -0.6875q0.484375 -0.296875 1.109375 -0.484375q0.625 -0.1875 1.421875 -0.1875q0.84375 0 1.5625 0.21875q0.734375 0.21875 1.265625 0.640625q0.546875 0.40625 0.859375 1.03125q0.3125 0.609375 0.3125 1.390625q0 0.640625 -0.203125 1.140625q-0.1875 0.5 -0.53125 0.875q-0.34375 0.375 -0.8125 0.640625q-0.46875 0.265625 -1.0 0.390625l0 0.078125q0.546875 0.109375 1.046875 0.359375q0.5 0.25 0.890625 0.65625q0.40625 0.40625 0.625 0.96875q0.234375 0.5625 0.234375 1.296875q0 0.84375 -0.328125 1.546875q-0.3125 0.6875 -0.90625 1.1875q-0.59375 0.5 -1.421875 0.78125q-0.828125 0.265625 -1.828125 0.265625q-0.859375 0 -1.53125 -0.1875q-0.65625 -0.1875 -1.171875 -0.5q-0.515625 -0.3125 -0.90625 -0.703125q-0.375 -0.390625 -0.671875 -0.828125l1.1875 -0.890625q0.25 0.390625 0.53125 0.71875q0.28125 0.3125 0.640625 0.546875q0.375 0.21875 0.828125 0.359375q0.46875 0.125 1.09375 0.125q1.375 0 2.109375 -0.625q0.734375 -0.640625 0.734375 -1.8125l0 -0.15625q0 -1.15625 -0.71875 -1.78125q-0.71875 -0.640625 -2.140625 -0.640625l-1.5625 0l0 -1.34375l1.4375 0z" fill-rule="nonzero"/><path fill="#000000" fill-opacity="0.0" d="m450.3294 199.11285l31.968506 0l0 42.015762l-31.968506 0z" fill-rule="evenodd"/><path fill="#000000" d="m464.93878 226.2516q-1.015625 0 -1.84375 -0.34375q-0.8125 -0.34375 -1.390625 -0.984375q-0.5625 -0.640625 -0.875 -1.578125q-0.3125 -0.9375 -0.3125 -2.09375q0 -1.453125 0.4375 -2.71875q0.453125 -1.28125 1.125 -2.328125q0.6875 -1.0625 1.515625 -1.875q0.84375 -0.8125 1.640625 -1.3125l2.015625 0q-1.0625 0.765625 -1.890625 1.5q-0.828125 0.71875 -1.46875 1.515625q-0.625 0.78125 -1.0625 1.6875q-0.421875 0.90625 -0.703125 2.046875l0.09375 0.03125q0.46875 -0.796875 1.234375 -1.328125q0.765625 -0.53125 1.96875 -0.53125q0.859375 0 1.5625 0.28125q0.71875 0.28125 1.234375 0.796875q0.53125 0.515625 0.8125 1.265625q0.296875 0.75 0.296875 1.671875q0 0.9375 -0.328125 1.734375q-0.3125 0.796875 -0.875 1.375q-0.5625 0.5625 -1.375 0.875q-0.8125 0.3125 -1.8125 0.3125zm-0.015625 -1.3125q1.34375 0 2.078125 -0.734375q0.734375 -0.734375 0.734375 -2.046875l0 -0.15625q0 -1.328125 -0.734375 -2.046875q-0.734375 -0.734375 -2.078125 -0.734375q-1.34375 0 -2.078125 0.734375q-0.734375 0.71875 -0.734375 2.046875l0 0.15625q0 1.3125 0.734375 2.046875q0.734375 0.734375 2.078125 0.734375z" fill-rule="nonzero"/><path fill="#000000" fill-opacity="0.0" d="m61.771652 274.8399l84.53543 0l0 58.173218l-84.53543 0z" fill-rule="evenodd"/><path fill="#000000" d="m100.22995 314.5599l-1.890625 -6.375l-7.84375 0l-1.875 6.375l-2.796875 0l6.859375 -22.34375l3.546875 0l6.84375 22.34375l-2.84375 0zm-5.65625 -19.484375l-0.296875 0l-3.140625 10.78125l6.5625 0l-3.125 -10.78125zm13.309418 19.484375l0 -22.34375l2.6875 0l0 20.0l10.59375 0l0 2.34375l-13.28125 0z" fill-rule="nonzero"/><path fill="#000000" fill-opacity="0.0" d="m342.7349 273.9344l84.53546 0l0 58.173218l-84.53546 0z" fill-rule="evenodd"/><path fill="#000000" d="m371.02133 294.8419l-0.234375 0l0 18.8125l-2.421875 0l0 -22.34375l3.8125 0l7.609375 18.828125l0.21875 0l0 -18.828125l2.4375 0l0 22.34375l-3.8125 0l-7.609375 -18.8125zm17.825043 18.8125l0 -22.34375l2.6875 0l0 20.0l10.59375 0l0 2.34375l-13.28125 0z" fill-rule="nonzero"/></g></svg>