<svg version="1.1" viewBox="0.0 0.0 642 520" fill="none" stroke="none" stroke-linecap="square" stroke-miterlimit="10" xmlns:xlink="http://www.w3.org/1999/xlink" xmlns="http://www.w3.org/2000/svg"><g clip-path="url(#p.0)"><path fill="#000000" fill-opacity="0.0" d="m0 0l800.0 0l0 600.0l-800.0 0z" fill-rule="evenodd"/><path fill="#000000" fill-opacity="0.0" d="m7.937008 62.27034l68.031494 0" fill-rule="evenodd"/><path stroke="#000000" stroke-width="1.0" stroke-linejoin="round" stroke-linecap="butt" d="m7.937008 62.27034l68.031494 0" fill-rule="evenodd"/><path fill="#000000" fill-opacity="0.0" d="m7.937008 30.0l68.031494 0l0 42.015747l-68.031494 0z" fill-rule="evenodd"/><path fill="#ff0000" d="m44.465252 58.535748l-0.8125 -3.140625l-3.5625 0l-0.8125 3.140625l-2.828125 0l3.53125 -13.015625l3.953125 0l3.515625 13.015625l-2.984375 0zm-2.515625 -10.3125l-0.140625 0l-1.28125 4.921875l2.6875 0l-1.265625 -4.921875z" fill-rule="nonzero"/><path fill="#000000" fill-opacity="0.0" d="m7.929134 30.0l29.984253 0l0 42.015747l-29.984253 0z" fill-rule="evenodd"/><path fill="#000000" d="m22.522884 57.13875q-1.140625 0 -2.0 -0.28125q-0.84375 -0.296875 -1.421875 -0.796875q-0.5625 -0.5 -0.859375 -1.1875q-0.28125 -0.703125 -0.28125 -1.5q0 -1.34375 0.71875 -2.125q0.734375 -0.78125 1.921875 -1.09375l0 -0.15625q-1.046875 -0.359375 -1.65625 -1.140625q-0.59375 -0.796875 -0.59375 -1.921875q0 -1.484375 1.09375 -2.375q1.109375 -0.890625 3.078125 -0.890625q1.984375 0 3.078125 0.890625q1.109375 0.890625 1.109375 2.375q0 1.125 -0.609375 1.921875q-0.609375 0.78125 -1.65625 1.140625l0 0.15625q1.203125 0.3125 1.921875 1.09375q0.734375 0.78125 0.734375 2.125q0 0.796875 -0.296875 1.5q-0.28125 0.6875 -0.859375 1.1875q-0.578125 0.5 -1.4375 0.796875q-0.84375 0.28125 -1.984375 0.28125zm0 -1.3125q1.390625 0 2.171875 -0.609375q0.78125 -0.625 0.78125 -1.75l0 -0.40625q0 -1.125 -0.78125 -1.734375q-0.765625 -0.625 -2.171875 -0.625q-1.390625 0 -2.171875 0.625q-0.765625 0.609375 -0.765625 1.734375l0 0.40625q0 1.125 0.78125 1.75q0.78125 0.609375 2.15625 0.609375zm0 -6.390625q1.265625 0 1.921875 -0.53125q0.671875 -0.546875 0.671875 -1.5625l0 -0.25q0 -1.015625 -0.6875 -1.546875q-0.671875 -0.546875 -1.90625 -0.546875q-1.234375 0 -1.921875 0.546875q-0.671875 0.53125 -0.671875 1.546875l0 0.25q0 1.015625 0.65625 1.5625q0.671875 0.53125 1.9375 0.53125z" fill-rule="nonzero"/><path fill="#000000" fill-opacity="0.0" d="m7.937008 20.254593l68.031494 0" fill-rule="evenodd"/><path stroke="#000000" stroke-width="1.0" stroke-linejoin="round" stroke-linecap="butt" d="m7.937008 20.254593l68.031494 0" fill-rule="evenodd"/><path fill="#000000" fill-opacity="0.0" d="m8.062992 -12.015748l67.90552 0l0 42.015747l-67.90552 0z" fill-rule="evenodd"/><path fill="#ff0000" d="m45.95012 3.5043745l0 9.375q0 0.875 -0.3125 1.59375q-0.296875 0.71875 -0.875 1.234375q-0.5625 0.49999905 -1.375 0.76562405q-0.796875 0.265625 -1.78125 0.265625q-2.0 0 -3.09375 -0.98437405q-1.09375 -1.0 -1.390625 -2.625l2.65625 -0.546875q0.140625 0.84375 0.5625 1.375q0.421875 0.515625 1.265625 0.515625q0.703125 0 1.109375 -0.453125q0.40625 -0.46875 0.40625 -1.421875l0 -6.8125l-4.296875 0l0 -2.28125l7.125 0z" fill-rule="nonzero"/><path fill="#000000" fill-opacity="0.0" d="m75.96326 20.146982l0 42.551178" fill-rule="evenodd"/><path stroke="#000000" stroke-width="1.0" stroke-linejoin="round" stroke-linecap="butt" d="m75.96326 20.146982l0 42.551178" fill-rule="evenodd"/><path fill="#000000" fill-opacity="0.0" d="m75.96326 42.036747l67.9055 20.503937" fill-rule="evenodd"/><path stroke="#000000" stroke-width="1.0" stroke-linejoin="round" stroke-linecap="butt" d="m75.96326 42.036747l62.161636 18.769585" fill-rule="evenodd"/><path fill="#000000" stroke="#000000" stroke-width="1.0" stroke-linecap="butt" d="m137.64745 62.387554l4.821823 -0.26944733l-3.866928 -2.8929977z" fill-rule="evenodd"/><path fill="#000000" fill-opacity="0.0" d="m85.795265 20.146982l63.433067 19.212599l-10.29921 34.015747l-63.433067 -19.212597z" fill-rule="evenodd"/><path fill="#000000" d="m111.719574 50.77692l2.7665558 -9.137234l1.1215591 0.3396988l-2.7665558 9.137234l-1.1215591 -0.3396988zm3.4308624 -2.568901q0.55693054 -1.8394089 1.8559113 -2.4092064q1.0742569 -0.47460175 2.3004913 -0.103199005q1.3608322 0.4121666 1.9564972 1.5721397q0.6001892 1.1450157 0.12023163 2.7302017q-0.38487244 1.2711372 -0.99554443 1.8861465q-0.595726 0.61954117 -1.4507294 0.80137634q-0.85500336 0.18183899 -1.7223434 -0.08086014q-1.3907394 -0.4212265 -1.9909286 -1.566246q-0.58071136 -1.1554413 -0.07358551 -2.8303528zm1.1514664 0.3487587q-0.38487244 1.2711372 -0.021736145 2.0668106q0.37808228 0.80020523 1.2155151 1.0538445q0.83742523 0.25364304 1.5809021 -0.2068634q0.7480011 -0.47546387 1.1419296 -1.7765083q0.3712921 -1.2262726 -0.0067977905 -2.0264778q-0.36312866 -0.7956772 -1.1856079 -1.0447884q-0.83742523 -0.25363922 -1.5958557 0.20233536q-0.74347687 0.46051025 -1.1283493 1.7316475zm5.509857 3.1218338l1.1609421 0.15571213q-0.09907532 0.7046623 0.21096802 1.1903915q0.3295288 0.47530365 1.092186 0.7062988q0.7776184 0.23552322 1.2465591 0.03470993q0.4689331 -0.2008133 0.5957184 -0.61954117q0.11319733 -0.37386322 -0.16282654 -0.70235443q-0.179039 -0.21748352 -1.0233154 -0.71809006q-1.1461105 -0.68997955 -1.5567245 -1.0592346q-0.39112854 -0.37968063 -0.52762604 -0.84549713q-0.117012024 -0.47624207 0.032409668 -0.9697418q0.13130951 -0.4336853 0.43891144 -0.74866486q0.32707977 -0.32540894 0.7480011 -0.47546387q0.32350922 -0.09792709 0.81288147 -0.096637726q0.48937988 0.0012893677 1.0127716 0.15981293q0.7776184 0.23552322 1.2929077 0.63648605q0.51529694 0.400959 0.68169403 0.8758354q0.17092896 0.4599228 0.08090973 1.1346703l-1.1369247 -0.18109131q0.07917786 -0.5311012 -0.19369507 -0.92394257q-0.26834106 -0.40779495 -0.92632294 -0.60708237q-0.7776108 -0.23552322 -1.1835785 -0.08094025q-0.4059677 0.15457916 -0.51010895 0.49853516q-0.06791687 0.22431946 0.012336731 0.44453812q0.095207214 0.2247467 0.34310913 0.430439q0.1463852 0.10964203 0.90093994 0.58307266q1.1012497 0.6763878 1.5014343 1.0261612q0.4196701 0.33934784 0.5711212 0.8096924q0.15144348 0.47034836 -0.020614624 1.03862q-0.1720581 0.56827164 -0.65047455 0.9621277q-0.4784088 0.39385605 -1.1879883 0.47280884q-0.6946182 0.083480835 -1.4722366 -0.1520462q-1.2860489 -0.38951874 -1.7959824 -1.1317024q-0.5099335 -0.7421837 -0.3873825 -1.8478813zm11.402946 3.2904625l1.1107178 0.48334503q-0.57707214 0.93538284 -1.4968414 1.2771912q-0.9002838 0.33138275 -2.0517578 -0.017372131q-1.4505463 -0.4393425 -2.0312653 -1.5947876q-0.58070374 -1.1554451 -0.096221924 -2.755581q0.50712585 -1.6749115 1.6357117 -2.328968q1.1480713 -0.6644821 2.5238495 -0.24778748q1.3309174 0.4031105 1.8966827 1.5540237q0.5657501 1.1509132 0.06768799 2.7959137q-0.031707764 0.10468292 -0.09056091 0.29909134l-4.93486 -1.4946709q-0.27072144 1.1098022 0.10598755 1.860611q0.38124084 0.7358589 1.2037201 0.9849701q0.628067 0.19023132 1.1568298 0.007534027q0.5332794 -0.1976471 1.0003204 -0.82351303zm-3.1263123 -2.9386673l3.6936646 1.1187401q0.17427063 -0.8451462 -0.042892456 -1.3680496q-0.3391266 -0.82105637 -1.1915131 -1.0792236q-0.7776184 -0.23552704 -1.4594879 0.1293602q-0.67733765 0.349926 -0.9997711 1.199173z" fill-rule="nonzero"/><path fill="#000000" fill-opacity="0.0" d="m76.19292 40.73523l67.9055 -20.503937" fill-rule="evenodd"/><path stroke="#000000" stroke-width="1.0" stroke-linejoin="round" stroke-linecap="butt" d="m76.19292 40.73523l62.161636 -18.769587" fill-rule="evenodd"/><path fill="#000000" stroke="#000000" stroke-width="1.0" stroke-linecap="butt" d="m138.832 23.546865l3.866928 -2.8929977l-4.821823 -0.26944733z" fill-rule="evenodd"/><path fill="#000000" fill-opacity="0.0" d="m75.963165 29.598354l64.157486 -19.370079l10.267715 34.047245l-64.15748 19.370079z" fill-rule="evenodd"/><path fill="#000000" d="m120.7181 38.858086l-4.028343 -5.9979324l1.1667328 -0.35225677l2.1974792 3.498558l0.83245087 1.2992249q-0.01662445 -0.109233856 -0.06650543 -1.4651871l-0.12137604 -4.190649l1.1517715 -0.34773827l2.1421585 3.5315819l0.7125473 1.1722069l9.3078613E-4 -1.4039383l-0.028549194 -4.153389l1.0919495 -0.32967377l-0.07019043 7.2353363l-1.1667328 0.35225677l-2.2425919 -3.6481552l-0.59264374 -1.0451927l0.18764496 5.492691l-1.1667328 0.35225677zm5.6387787 -10.25495l-0.3924942 -1.3014793l1.1218567 -0.33870697l0.3924942 1.3014812l-1.1218567 0.33870506zm2.3639603 7.8388042l-1.9940262 -6.6121216l1.1218567 -0.33870506l1.9940414 6.6121197l-1.121872 0.33870697zm2.8197632 -0.851326l-1.9940338 -6.6121197l1.0171509 -0.30709267l0.2842102 0.9424515q0.38865662 -1.3088188 1.7648163 -1.7242985q0.59832764 -0.18064308 1.1700592 -0.12475586q0.57173157 0.055887222 0.91934204 0.342659q0.3580475 0.26729584 0.6071167 0.7143879q0.15457153 0.29608727 0.38916016 1.0739841l1.2270966 4.0689945l-1.1218567 0.33870697l-1.213562 -4.0241184q-0.20751953 -0.68813896 -0.441391 -0.97660446q-0.23838806 -0.30342484 -0.6261139 -0.3985443q-0.39224243 -0.11008072 -0.84098816 0.02540207q-0.71798706 0.21677208 -1.1061859 0.82362175q-0.3881836 0.60684776 -0.004714966 1.8784103l1.0917511 3.6202087l-1.1218567 0.33870697z" fill-rule="nonzero"/><path fill="#000000" fill-opacity="0.0" d="m107.37795 -4.3333335l32.97637 0l0 42.015747l-32.97637 0z" fill-rule="evenodd"/><path fill="#ff0000" d="m126.37864 24.202414l-0.8125 -3.140625l-3.5625 0l-0.8125 3.140625l-2.828125 0l3.53125 -13.015624l3.953125 0l3.5156326 13.015624l-2.9843826 0zm-2.515625 -10.312499l-0.140625 0l-1.28125 4.921874l2.6875 0l-1.265625 -4.921874z" fill-rule="nonzero"/><path fill="#000000" fill-opacity="0.0" d="m135.83989 0.020997375l29.984253 0l0 42.01575l-29.984253 0z" fill-rule="evenodd"/><path fill="#000000" d="m148.07426 26.940996l5.09375 -11.671876l-5.71875 0l0 2.421876l-1.390625 0l0 -3.765626l8.6875 0l0 1.375l-5.0 11.640626l-1.671875 0z" fill-rule="nonzero"/><path fill="#000000" fill-opacity="0.0" d="m118.5958 116.396324l68.0315 0" fill-rule="evenodd"/><path stroke="#000000" stroke-width="1.0" stroke-linejoin="round" stroke-linecap="butt" d="m118.5958 116.396324l68.0315 0" fill-rule="evenodd"/><path fill="#000000" fill-opacity="0.0" d="m118.5958 84.125984l68.0315 0l0 42.015747l-68.0315 0z" fill-rule="evenodd"/><path fill="#ff0000" d="m148.51468 112.661736l0 -13.015625l8.624985 0l0 2.28125l-5.828125 0l0 2.984375l5.21875 0l0 2.296875l-5.21875 0l0 5.453125l-2.7968597 0z" fill-rule="nonzero"/><path fill="#000000" fill-opacity="0.0" d="m118.5958 74.38058l68.0315 0" fill-rule="evenodd"/><path stroke="#000000" stroke-width="1.0" stroke-linejoin="round" stroke-linecap="butt" d="m118.5958 74.38058l68.0315 0" fill-rule="evenodd"/><path fill="#000000" fill-opacity="0.0" d="m118.59055 42.110237l68.03149 0l0 42.015747l-68.03149 0z" fill-rule="evenodd"/><path fill="#ff0000" d="m156.54066 57.63036l0 9.374996q0 0.875 -0.3125 1.59375q-0.296875 0.71875 -0.875 1.234375q-0.5625 0.5 -1.375 0.765625q-0.796875 0.265625 -1.78125 0.265625q-2.0 0 -3.09375 -0.984375q-1.09375 -1.0 -1.390625 -2.625l2.65625 -0.546875q0.140625 0.84375 0.5625 1.375q0.421875 0.515625 1.265625 0.515625q0.703125 0 1.109375 -0.453125q0.40625 -0.46875 0.40625 -1.421875l0 -6.812496l-4.296875 0l0 -2.28125l7.125 0z" fill-rule="nonzero"/><path fill="#000000" fill-opacity="0.0" d="m186.62204 74.272964l0 42.551186" fill-rule="evenodd"/><path stroke="#000000" stroke-width="1.0" stroke-linejoin="round" stroke-linecap="butt" d="m186.62204 74.272964l0 42.551186" fill-rule="evenodd"/><path fill="#000000" fill-opacity="0.0" d="m50.75197 137.4029l68.031494 0" fill-rule="evenodd"/><path stroke="#000000" stroke-width="1.0" stroke-linejoin="round" stroke-linecap="butt" d="m50.75197 137.4029l68.031494 0" fill-rule="evenodd"/><path fill="#000000" fill-opacity="0.0" d="m50.75197 105.132545l68.031494 0l0 42.015755l-68.031494 0z" fill-rule="evenodd"/><path fill="#ff0000" d="m80.67084 133.66829l0 -13.015617l8.625 0l0 2.28125l-5.828125 0l0 2.984375l5.21875 0l0 2.2968674l-5.21875 0l0 5.453125l-2.796875 0z" fill-rule="nonzero"/><path fill="#000000" fill-opacity="0.0" d="m50.75197 63.1168l29.984253 0l0 42.015747l-29.984253 0z" fill-rule="evenodd"/><path fill="#000000" d="m69.75197 81.7868q0 1.453125 -0.4375 2.734375q-0.4375 1.28125 -1.125 2.34375q-0.6875 1.046875 -1.53125 1.859375q-0.828125 0.8125 -1.625 1.3125l-2.015625 0q1.0625 -0.765625 1.890625 -1.484375q0.828125 -0.734375 1.453125 -1.53125q0.640625 -0.796875 1.0625 -1.6875q0.4375 -0.90625 0.71875 -2.046875l-0.09375 -0.046875q-0.484375 0.8125 -1.234375 1.34375q-0.75 0.53125 -1.96875 0.53125q-0.859375 0 -1.578125 -0.28125q-0.71875 -0.28125 -1.234375 -0.796875q-0.515625 -0.53125 -0.8125 -1.265625q-0.28125 -0.734375 -0.28125 -1.671875q0 -0.953125 0.3125 -1.734375q0.3125 -0.796875 0.890625 -1.359375q0.578125 -0.578125 1.390625 -0.890625q0.8125 -0.328125 1.796875 -0.328125q1.03125 0 1.84375 0.34375q0.828125 0.34375 1.390625 1.0q0.578125 0.640625 0.875 1.578125q0.3125 0.921875 0.3125 2.078125zm-4.40625 2.03125q1.34375 0 2.078125 -0.71875q0.734375 -0.734375 0.734375 -2.0625l0 -0.140625q0 -1.328125 -0.734375 -2.046875q-0.734375 -0.734375 -2.078125 -0.734375q-1.34375 0 -2.078125 0.734375q-0.734375 0.71875 -0.734375 2.046875l0 0.140625q0 1.328125 0.734375 2.0625q0.734375 0.71875 2.078125 0.71875z" fill-rule="nonzero"/><path fill="#000000" fill-opacity="0.0" d="m35.92126 105.132545l44.818897 0l0 42.015755l-44.818897 0z" fill-rule="evenodd"/><path fill="#000000" d="m46.499386 132.05255l0 -1.359375l3.734375 0l0 -10.500008l-0.125 0l-3.28125 3.046875l-0.921875 -0.984375l3.453125 -3.21875l2.453125 0l0 11.656258l3.421875 0l0 1.359375l-8.734375 0zm15.209381 0.21875q-1.1875 0 -2.046875 -0.453125q-0.859375 -0.453125 -1.421875 -1.3125q-0.5625 -0.859375 -0.828125 -2.109375q-0.25 -1.2500076 -0.25 -2.8593826q0 -1.578125 0.25 -2.828125q0.265625 -1.265625 0.828125 -2.125q0.5625 -0.859375 1.421875 -1.3125q0.859375 -0.46875 2.046875 -0.46875q1.203125 0 2.046875 0.46875q0.8593788 0.453125 1.4218788 1.3125q0.5625 0.859375 0.828125 2.125q0.265625 1.25 0.265625 2.828125q0 1.609375 -0.265625 2.8593826q-0.265625 1.25 -0.828125 2.109375q-0.5625 0.859375 -1.4218788 1.3125q-0.84375 0.453125 -2.046875 0.453125zm0 -1.359375q0.78125 0 1.34375 -0.296875q0.5625 -0.3125 0.90625 -0.875q0.3437538 -0.5625 0.5156288 -1.34375q0.171875 -0.7968826 0.171875 -1.7968826l0 -2.125q0 -0.96875 -0.171875 -1.765625q-0.171875 -0.8125 -0.5156288 -1.359375q-0.34375 -0.5625 -0.90625 -0.875q-0.5625 -0.3125 -1.34375 -0.3125q-0.78125 0 -1.34375 0.3125q-0.5625 0.3125 -0.90625 0.875q-0.34375 0.546875 -0.515625 1.359375q-0.15625 0.796875 -0.15625 1.765625l0 2.125q0 1.0 0.15625 1.7968826q0.171875 0.78125 0.515625 1.34375q0.34375 0.5625 0.90625 0.875q0.5625 0.296875 1.34375 0.296875zm0 -4.2656326q-0.65625 0 -0.90625 -0.265625q-0.25 -0.265625 -0.25 -0.640625l0 -0.40625q0 -0.375 0.25 -0.625q0.25 -0.265625 0.90625 -0.265625q0.65625 0 0.90625 0.265625q0.25 0.25 0.25 0.625l0 0.40625q0 0.375 -0.25 0.640625q-0.25 0.265625 -0.90625 0.265625z" fill-rule="nonzero"/><path fill="#000000" fill-opacity="0.0" d="m50.75197 95.38714l68.031494 0" fill-rule="evenodd"/><path stroke="#000000" stroke-width="1.0" stroke-linejoin="round" stroke-linecap="butt" d="m50.75197 95.38714l68.031494 0" fill-rule="evenodd"/><path fill="#000000" fill-opacity="0.0" d="m50.881935 63.1168l67.90551 0l0 42.015747l-67.90551 0z" fill-rule="evenodd"/><path fill="#ff0000" d="m85.12843 91.87129q-2.609375 0 -3.875 -1.75q-1.25 -1.765625 -1.25 -4.984375q0 -3.203125 1.25 -4.96875q1.265625 -1.765625 3.875 -1.765625q1.015625 0 1.78125 0.28125q0.78125 0.265625 1.34375 0.75q0.5625 0.484375 0.921875 1.171875q0.359375 0.6875 0.5625 1.546875l-2.609375 0.640625q-0.109375 -0.46875 -0.265625 -0.859375q-0.140625 -0.390625 -0.375 -0.671875q-0.234375 -0.28125 -0.578125 -0.4375q-0.34375 -0.15625 -0.828125 -0.15625q-1.140625 0 -1.625 0.890625q-0.46875 0.875 -0.46875 2.4375l0 2.28125q0 1.5625 0.46875 2.453125q0.484375 0.890625 1.625 0.890625q0.96875 0 1.40625 -0.59375q0.4375 -0.609375 0.640625 -1.53125l2.609375 0.625q-0.203125 0.859375 -0.5625 1.5625q-0.359375 0.6875 -0.921875 1.1875q-0.5625 0.484375 -1.34375 0.75q-0.765625 0.25 -1.78125 0.25z" fill-rule="nonzero"/><path fill="#000000" fill-opacity="0.0" d="m118.78609 95.120735l0 42.551186" fill-rule="evenodd"/><path stroke="#000000" stroke-width="1.0" stroke-linejoin="round" stroke-linecap="butt" d="m118.78609 95.120735l0 42.551186" fill-rule="evenodd"/><path fill="#000000" fill-opacity="0.0" d="m186.62204 95.54855l68.03151 0" fill-rule="evenodd"/><path stroke="#000000" stroke-width="1.0" stroke-linejoin="round" stroke-linecap="butt" d="m186.62204 95.54855l62.03151 0" fill-rule="evenodd"/><path fill="#000000" stroke="#000000" stroke-width="1.0" stroke-linecap="butt" d="m248.65355 97.20029l4.538086 -1.6517334l-4.538086 -1.6517258z" fill-rule="evenodd"/><path fill="#000000" fill-opacity="0.0" d="m248.33858 74.54068l29.984268 0l0 42.015747l-29.984268 0z" fill-rule="evenodd"/><path fill="#000000" d="m262.93234 101.67943q-1.140625 0 -2.0 -0.28125q-0.84375 -0.296875 -1.421875 -0.796875q-0.5625 -0.5 -0.859375 -1.1875q-0.28125 -0.703125 -0.28125 -1.5q0 -1.34375 0.71875 -2.125q0.734375 -0.78125 1.921875 -1.09375l0 -0.15625q-1.046875 -0.359375 -1.65625 -1.140625q-0.59375 -0.796875 -0.59375 -1.921875q0 -1.484375 1.09375 -2.375q1.109375 -0.890625 3.078125 -0.890625q1.984375 0 3.078125 0.890625q1.109375 0.890625 1.109375 2.375q0 1.125 -0.609375 1.921875q-0.609375 0.78125 -1.65625 1.140625l0 0.15625q1.203125 0.3125 1.921875 1.09375q0.734375 0.78125 0.734375 2.125q0 0.796875 -0.296875 1.5q-0.28125 0.6875 -0.859375 1.1875q-0.578125 0.5 -1.4375 0.796875q-0.84375 0.28125 -1.984375 0.28125zm0 -1.3125q1.390625 0 2.171875 -0.609375q0.78125 -0.625 0.78125 -1.75l0 -0.40625q0 -1.125 -0.78125 -1.734375q-0.765625 -0.625 -2.171875 -0.625q-1.390625 0 -2.171875 0.625q-0.765625 0.609375 -0.765625 1.734375l0 0.40625q0 1.125 0.78125 1.75q0.78125 0.609375 2.15625 0.609375zm0 -6.390625q1.265625 0 1.921875 -0.53125q0.671875 -0.546875 0.671875 -1.5625l0 -0.25q0 -1.015625 -0.6875 -1.546875q-0.671875 -0.546875 -1.90625 -0.546875q-1.234375 0 -1.921875 0.546875q-0.671875 0.53125 -0.671875 1.546875l0 0.25q0 1.015625 0.65625 1.5625q0.671875 0.53125 1.9375 0.53125z" fill-rule="nonzero"/><path fill="#000000" fill-opacity="0.0" d="m186.81102 63.27034l67.90552 0l0 42.015747l-67.90552 0z" fill-rule="evenodd"/><path fill="#ff0000" d="m224.69815 78.79047l0 9.375q0 0.875 -0.3125 1.59375q-0.296875 0.71875 -0.875 1.234375q-0.5625 0.5 -1.375 0.765625q-0.796875 0.265625 -1.78125 0.265625q-2.0 0 -3.09375 -0.984375q-1.09375 -1.0 -1.390625 -2.625l2.65625 -0.546875q0.140625 0.84375 0.5625 1.375q0.421875 0.515625 1.265625 0.515625q0.703125 0 1.109375 -0.453125q0.40625 -0.46875 0.40625 -1.421875l0 -6.8125l-4.296875 0l0 -2.28125l7.125 0z" fill-rule="nonzero"/><path fill="#000000" fill-opacity="0.0" d="m635.9449 61.144356l-68.031494 0" fill-rule="evenodd"/><path stroke="#000000" stroke-width="1.0" stroke-linejoin="round" stroke-linecap="butt" d="m635.9449 61.144356l-68.031494 0" fill-rule="evenodd"/><path fill="#000000" fill-opacity="0.0" d="m635.9449 28.874016l-68.031494 0l0 42.015747l68.031494 0z" fill-rule="evenodd"/><path fill="#ff0000" d="m606.1448 60.972263l-2.65625 0q-1.5 0 -2.140625 -0.734375q-0.625 -0.71875 -0.625 -1.953125l0 -0.765625q-2.0 -0.390625 -2.953125 -2.09375q-0.9375 -1.703125 -0.9375 -4.53125q0 -3.1875 1.234375 -4.953125q1.25 -1.78125 3.859375 -1.78125q2.609375 0 3.84375 1.78125q1.25 1.765625 1.25 4.953125q0 2.828125 -0.9375 4.53125q-0.9375 1.703125 -2.9375 2.09375l0 1.453125l3.0 0l0 2.0zm-4.21875 -5.59375q1.203125 0 1.65625 -0.890625q0.453125 -0.890625 0.453125 -2.46875l0 -2.265625q0 -1.5625 -0.453125 -2.4375q-0.453125 -0.890625 -1.65625 -0.890625q-1.1875 0 -1.65625 0.890625q-0.453125 0.875 -0.453125 2.4375l0 2.28125q0 1.5625 0.453125 2.453125q0.46875 0.890625 1.65625 0.890625z" fill-rule="nonzero"/><path fill="#000000" fill-opacity="0.0" d="m635.9449 -13.141732l-29.984253 0l0 42.015747l29.984253 0z" fill-rule="evenodd"/><path fill="#000000" d="m618.195 13.778266l5.09375 -11.671875l-5.71875 0l0 2.421875l-1.390625 0l0 -3.765625l8.6875 0l0 1.375l-5.0 11.640625l-1.671875 0z" fill-rule="nonzero"/><path fill="#000000" fill-opacity="0.0" d="m635.95276 28.874016l-29.984253 0l0 42.015747l29.984253 0z" fill-rule="evenodd"/><path fill="#000000" d="m620.56226 56.012764q-1.140625 0 -2.0 -0.28125q-0.84375 -0.296875 -1.421875 -0.796875q-0.5625 -0.5 -0.859375 -1.1875q-0.28125 -0.703125 -0.28125 -1.5q0 -1.34375 0.71875 -2.125q0.734375 -0.78125 1.921875 -1.09375l0 -0.15625q-1.046875 -0.359375 -1.65625 -1.140625q-0.59375 -0.796875 -0.59375 -1.921875q0 -1.484375 1.09375 -2.375q1.109375 -0.890625 3.078125 -0.890625q1.984375 0 3.078125 0.890625q1.109375 0.890625 1.109375 2.375q0 1.125 -0.609375 1.921875q-0.609375 0.78125 -1.65625 1.140625l0 0.15625q1.203125 0.3125 1.921875 1.09375q0.734375 0.78125 0.734375 2.125q0 0.796875 -0.296875 1.5q-0.28125 0.6875 -0.859375 1.1875q-0.578125 0.5 -1.4375 0.796875q-0.84375 0.28125 -1.984375 0.28125zm0 -1.3125q1.390625 0 2.171875 -0.609375q0.78125 -0.625 0.78125 -1.75l0 -0.40625q0 -1.125 -0.78125 -1.734375q-0.765625 -0.625 -2.171875 -0.625q-1.390625 0 -2.171875 0.625q-0.765625 0.609375 -0.765625 1.734375l0 0.40625q0 1.125 0.78125 1.75q0.78125 0.609375 2.15625 0.609375zm0 -6.390625q1.265625 0 1.921875 -0.53125q0.671875 -0.546875 0.671875 -1.5625l0 -0.25q0 -1.015625 -0.6875 -1.546875q-0.671875 -0.546875 -1.90625 -0.546875q-1.234375 0 -1.921875 0.546875q-0.671875 0.53125 -0.671875 1.546875l0 0.25q0 1.015625 0.65625 1.5625q0.671875 0.53125 1.9375 0.53125z" fill-rule="nonzero"/><path fill="#000000" fill-opacity="0.0" d="m635.9449 19.128609l-68.031494 0" fill-rule="evenodd"/><path stroke="#000000" stroke-width="1.0" stroke-linejoin="round" stroke-linecap="butt" d="m635.9449 19.128609l-68.031494 0" fill-rule="evenodd"/><path fill="#000000" fill-opacity="0.0" d="m635.81104 -13.141732l-67.90552 0l0 42.015747l67.90552 0z" fill-rule="evenodd"/><path fill="#ff0000" d="m603.2614 4.6596403l0 10.734375l-2.796875 0l0 -10.734375l-3.75 0l0 -2.28125l10.296875 0l0 2.28125l-3.75 0z" fill-rule="nonzero"/><path fill="#000000" fill-opacity="0.0" d="m567.91864 19.020998l0 42.551178" fill-rule="evenodd"/><path stroke="#000000" stroke-width="1.0" stroke-linejoin="round" stroke-linecap="butt" d="m567.91864 19.020998l0 42.551178" fill-rule="evenodd"/><path fill="#000000" fill-opacity="0.0" d="m567.91864 40.910763l-67.90552 20.503937" fill-rule="evenodd"/><path stroke="#000000" stroke-width="1.0" stroke-linejoin="round" stroke-linecap="butt" d="m567.91864 40.910763l-62.161682 18.769585" fill-rule="evenodd"/><path fill="#000000" stroke="#000000" stroke-width="1.0" stroke-linecap="butt" d="m505.27954 58.099125l-3.8669128 2.8929977l4.821808 0.26944733z" fill-rule="evenodd"/><path fill="#000000" fill-opacity="0.0" d="m558.0866 19.020998l-63.433044 19.212599l10.299194 34.015747l63.433105 -19.212597z" fill-rule="evenodd"/><path fill="#000000" d="m510.40695 56.2402l-2.7665405 -9.137234l1.1215515 -0.3396988l2.7665405 9.137234l-1.1215515 0.3396988zm1.4295349 -4.0410156q-0.5569458 -1.8394089 0.20776367 -3.0342484q0.63049316 -0.9909439 1.8567505 -1.3623466q1.3608398 -0.4121666 2.499817 0.22240448q1.1345215 0.6196213 1.6144409 2.2048035q0.3848877 1.2711372 0.21795654 2.1216698q-0.15197754 0.8460083 -0.7625122 1.4717178q-0.61047363 0.6257057 -1.4778442 0.88840866q-1.390686 0.4212227 -2.5252075 -0.19839478q-1.1240234 -0.63910294 -1.6311646 -2.3140144zm1.1514282 -0.34875488q0.3848877 1.2711372 1.1283569 1.7316437q0.75842285 0.4559784 1.5958862 0.20233536q0.83740234 -0.25363922 1.2005615 -1.0493164q0.35858154 -0.8106308 -0.035339355 -2.1116753q-0.37127686 -1.2262726 -1.1296997 -1.682251q-0.74346924 -0.46050644 -1.565979 -0.21139526q-0.83740234 0.25363922 -1.2155151 1.0538445q-0.36309814 0.7956772 0.021728516 2.0668144zm6.315857 -0.4599266l1.0522461 -0.51462173q0.30847168 0.6412506 0.8358154 0.8733368q0.5378418 0.21260834 1.3004761 -0.01838684q0.7776489 -0.23552322 1.0563965 -0.66280365q0.27874756 -0.4272766 0.15197754 -0.8460045q-0.11315918 -0.37386322 -0.5250244 -0.4940071q-0.2695923 -0.08160782 -1.2497559 -0.029640198q-1.3362427 0.06188965 -1.8826904 -0.017490387q-0.5360718 -0.09886551 -0.90802 -0.4106865q-0.36151123 -0.33130264 -0.5109253 -0.8248062q-0.13128662 -0.4336815 -0.050109863 -0.86642456q0.091674805 -0.45222855 0.35864258 -0.8106308q0.21484375 -0.2609825 0.62268066 -0.5314522q0.40789795 -0.27046967 0.9312744 -0.42899704q0.7776489 -0.23552322 1.428772 -0.18784714q0.65112305 0.047676086 1.0529785 0.35043716q0.39733887 0.28780746 0.6967163 0.89914703l-1.0463867 0.48018646q-0.22875977 -0.48580933 -0.673645 -0.66124344q-0.4494629 -0.19038773 -1.1074829 0.008903503q-0.7775879 0.23552322 -1.029602 0.5893936q-0.25201416 0.3538742 -0.14788818 0.6978264q0.06793213 0.22431946 0.25683594 0.3630104q0.20391846 0.1341629 0.52423096 0.16774368q0.18261719 0.009994507 1.072998 -0.014801025q1.2914429 -0.048297882 1.8184204 0.020656586q0.5373535 0.04947281 0.9242554 0.35676575q0.38690186 0.30728912 0.55895996 0.87556076q0.1720581 0.56827545 -0.007507324 1.1614189q-0.17956543 0.5931473 -0.72613525 1.0525589q-0.5316162 0.45488358 -1.3092041 0.6904068q-1.2860718 0.38951874 -2.1220093 0.054973602q-0.8359375 -0.33454514 -1.34729 -1.3224831zm11.312378 -3.58955l1.1921997 -0.21416473q0.038757324 1.0984344 -0.53692627 1.8931732q-0.56518555 0.7752533 -1.7166748 1.124012q-1.4505615 0.4393425 -2.574585 -0.19976044q-1.1240845 -0.63910294 -1.6085815 -2.2392426q-0.5070801 -1.6749077 0.0690918 -2.8453064q0.5866089 -1.1898804 1.9624023 -1.6065788q1.3308716 -0.4031067 2.4400024 0.24052429q1.1090698 0.643631 1.6071777 2.2886353q0.031677246 0.10467911 0.09057617 0.29909134l-4.9348755 1.494667q0.39031982 1.0735664 1.1202393 1.489212q0.7253418 0.40068817 1.5478516 0.151577q0.62805176 -0.19023132 0.96661377 -0.63562775q0.33410645 -0.46035004 0.37548828 -1.2402115zm-4.23114 -0.71024704l3.6936646 -1.1187401q-0.3237915 -0.7998543 -0.7944946 -1.1144066q-0.73760986 -0.49494553 -1.5899658 -0.23677444q-0.7776489 0.23552322 -1.1425171 0.9174576q-0.3694458 0.66698074 -0.16668701 1.5524635z" fill-rule="nonzero"/><path fill="#000000" fill-opacity="0.0" d="m567.68896 39.609245l-67.90549 -20.503937" fill-rule="evenodd"/><path stroke="#000000" stroke-width="1.0" stroke-linejoin="round" stroke-linecap="butt" d="m567.68896 39.609245l-62.16165 -18.769587" fill-rule="evenodd"/><path fill="#000000" stroke="#000000" stroke-width="1.0" stroke-linecap="butt" d="m506.0048 19.258436l-4.8218384 0.26944733l3.8669434 2.8929977z" fill-rule="evenodd"/><path fill="#000000" fill-opacity="0.0" d="m567.9187 28.47237l-64.15747 -19.370079l-10.2677 34.047245l64.15747 19.370079z" fill-rule="evenodd"/><path fill="#000000" d="m508.14706 33.19833l-0.040283203 -7.226307l1.166748 0.35225487l-0.10333252 4.130808l-0.024719238 1.5430927q0.046539307 -0.10020065 0.75457764 -1.2574501l2.2154846 -3.5583973l1.1517944 0.34773827l-0.16766357 4.1277046l-0.054382324 1.3709164l0.77685547 -1.1691036l2.2722778 -3.4759789l1.09198 0.32967377l-4.0582886 5.988901l-1.1667175 -0.35225296l0.14840698 -4.280407l0.084106445 -1.1987381l-2.880127 4.679798l-1.1667175 -0.35225296zm10.36673 -5.422657l0.39245605 -1.3014812l1.1218872 0.33870697l-0.3925171 1.3014793l-1.1218262 -0.33870506zm-2.3640137 7.8388023l1.9940796 -6.6121197l1.1218262 0.33870506l-1.9940186 6.612118l-1.1218872 -0.33870316zm2.8197632 0.8513222l1.9940186 -6.612118l1.0172119 0.30709267l-0.28424072 0.9424515q1.0473022 -0.87527466 2.423462 -0.459795q0.59832764 0.18064308 1.0437622 0.543623q0.44537354 0.3629799 0.57647705 0.79426765q0.1505127 0.42084122 0.110839844 0.93116q-0.03491211 0.33221436 -0.2694702 1.1101112l-1.2271118 4.0689964l-1.1218872 -0.33870697l1.213562 -4.0241165q0.20751953 -0.68814087 0.17218018 -1.0578957q-0.030883789 -0.38471222 -0.30126953 -0.6785412q-0.26593018 -0.3087864 -0.7147217 -0.44426918q-0.71795654 -0.21677208 -1.376831 0.07395172q-0.6588745 0.2907238 -1.0423584 1.5622864l-1.0917358 3.6202087l-1.1218872 -0.33870697z" fill-rule="nonzero"/><path fill="#000000" fill-opacity="0.0" d="m536.50397 -5.4593177l-32.97641 0l0 42.015747l32.97641 0z" fill-rule="evenodd"/><path fill="#ff0000" d="m521.4189 12.342055l0 10.734374l-2.796875 0l0 -10.734374l-3.75 0l0 -2.28125l10.296875 0l0 2.28125l-3.75 0z" fill-rule="nonzero"/><path fill="#000000" fill-opacity="0.0" d="m508.042 -1.1049869l-29.984253 0l0 42.01575l29.984253 0z" fill-rule="evenodd"/><path fill="#000000" d="m490.2921 25.815012l5.09375 -11.671876l-5.71875 0l0 2.421876l-1.390625 0l0 -3.765626l8.6875 0l0 1.375l-5.0 11.640626l-1.671875 0z" fill-rule="nonzero"/><path fill="#000000" fill-opacity="0.0" d="m525.2861 115.27034l-68.03146 0" fill-rule="evenodd"/><path stroke="#000000" stroke-width="1.0" stroke-linejoin="round" stroke-linecap="butt" d="m525.2861 115.27034l-68.03146 0" fill-rule="evenodd"/><path fill="#000000" fill-opacity="0.0" d="m525.2861 83.0l-68.03146 0l0 42.015747l68.03146 0z" fill-rule="evenodd"/><path fill="#ff0000" d="m489.29846 111.53575l-3.453125 -13.015625l3.109375 0l1.53125 6.609375l0.765625 3.75l0.15625 0l0.78125 -3.75l1.546875 -6.609375l2.96875 0l-3.453125 13.015625l-3.953125 0z" fill-rule="nonzero"/><path fill="#000000" fill-opacity="0.0" d="m525.2861 73.25459l-68.03146 0" fill-rule="evenodd"/><path stroke="#000000" stroke-width="1.0" stroke-linejoin="round" stroke-linecap="butt" d="m525.2861 73.25459l-68.03146 0" fill-rule="evenodd"/><path fill="#000000" fill-opacity="0.0" d="m525.2913 40.984253l-68.03146 0l0 42.015747l68.03146 0z" fill-rule="evenodd"/><path fill="#ff0000" d="m495.4912 73.0825l-2.65625 0q-1.5 0 -2.140625 -0.734375q-0.625 -0.71875 -0.625 -1.953125l0 -0.765625q-2.0 -0.390625 -2.953125 -2.09375q-0.9375 -1.703125 -0.9375 -4.531246q0 -3.1875 1.234375 -4.953125q1.25 -1.78125 3.859375 -1.78125q2.609375 0 3.84375 1.78125q1.25 1.765625 1.25 4.953125q0 2.8281212 -0.9375 4.531246q-0.9375 1.703125 -2.9375 2.09375l0 1.453125l3.0 0l0 2.0zm-4.21875 -5.59375q1.203125 0 1.65625 -0.890625q0.453125 -0.890625 0.453125 -2.46875l0 -2.2656212q0 -1.5625 -0.453125 -2.4375q-0.453125 -0.890625 -1.65625 -0.890625q-1.1875 0 -1.65625 0.890625q-0.453125 0.875 -0.453125 2.4375l0 2.2812462q0 1.5625 0.453125 2.453125q0.46875 0.890625 1.65625 0.890625z" fill-rule="nonzero"/><path fill="#000000" fill-opacity="0.0" d="m457.25986 73.14698l0 42.551186" fill-rule="evenodd"/><path stroke="#000000" stroke-width="1.0" stroke-linejoin="round" stroke-linecap="butt" d="m457.25986 73.14698l0 42.551186" fill-rule="evenodd"/><path fill="#000000" fill-opacity="0.0" d="m593.32153 138.1076l-68.031494 0" fill-rule="evenodd"/><path stroke="#000000" stroke-width="1.0" stroke-linejoin="round" stroke-linecap="butt" d="m593.32153 138.1076l-68.031494 0" fill-rule="evenodd"/><path fill="#000000" fill-opacity="0.0" d="m593.32153 105.83727l-68.031494 0l0 42.01574l68.031494 0z" fill-rule="evenodd"/><path fill="#ff0000" d="m557.8808 134.37302l-2.75 0l0 -13.015625l5.03125 0q0.953125 0 1.703125 0.296875q0.75 0.28125 1.25 0.828125q0.515625 0.53125 0.78125 1.296875q0.265625 0.765625 0.265625 1.71875q0 1.375 -0.609375 2.375q-0.59375 0.984375 -1.6875 1.296875l2.546875 5.203125l-3.046875 0l-2.1875 -4.828125l-1.296875 0l0 4.828125zm1.609375 -7.0q0.984375 0 1.359375 -0.375q0.390625 -0.375 0.390625 -1.21875l0 -0.5625q0 -0.859375 -0.390625 -1.234375q-0.375 -0.375 -1.359375 -0.375l-1.609375 0l0 3.765625l1.609375 0z" fill-rule="nonzero"/><path fill="#000000" fill-opacity="0.0" d="m593.32153 63.82152l-29.984253 0l0 42.01575l29.984253 0z" fill-rule="evenodd"/><path fill="#000000" d="m582.3373 82.49152q0 1.453125 -0.4375 2.734375q-0.4375 1.28125 -1.125 2.34375q-0.6875 1.046875 -1.53125 1.859375q-0.828125 0.8125 -1.625 1.3125l-2.015625 0q1.0625 -0.765625 1.890625 -1.484375q0.828125 -0.734375 1.453125 -1.53125q0.640625 -0.796875 1.0625 -1.6875q0.4375 -0.90625 0.71875 -2.046875l-0.09375 -0.046875q-0.484375 0.8125 -1.234375 1.34375q-0.75 0.53125 -1.96875 0.53125q-0.859375 0 -1.578125 -0.28125q-0.71875 -0.28125 -1.234375 -0.796875q-0.515625 -0.53125 -0.8125 -1.265625q-0.28125 -0.734375 -0.28125 -1.671875q0 -0.953125 0.3125 -1.734375q0.3125 -0.796875 0.890625 -1.359375q0.578125 -0.578125 1.390625 -0.890625q0.8125 -0.328125 1.796875 -0.328125q1.03125 0 1.84375 0.34375q0.828125 0.34375 1.390625 1.0q0.578125 0.640625 0.875 1.578125q0.3125 0.921875 0.3125 2.078125zm-4.40625 2.03125q1.34375 0 2.078125 -0.71875q0.734375 -0.734375 0.734375 -2.0625l0 -0.140625q0 -1.328125 -0.734375 -2.046875q-0.734375 -0.734375 -2.078125 -0.734375q-1.34375 0 -2.078125 0.734375q-0.734375 0.71875 -0.734375 2.046875l0 0.140625q0 1.328125 0.734375 2.0625q0.734375 0.71875 2.078125 0.71875z" fill-rule="nonzero"/><path fill="#000000" fill-opacity="0.0" d="m608.1522 105.83727l-44.81891 0l0 42.01574l44.81891 0z" fill-rule="evenodd"/><path fill="#000000" d="m573.91144 132.75726l0 -1.359375l3.734375 0l0 -10.499992l-0.125 0l-3.28125 3.046875l-0.921875 -0.984375l3.453125 -3.21875l2.453125 0l0 11.656242l3.421875 0l0 1.359375l-8.734375 0zm15.209412 0.21875q-1.1875 0 -2.046875 -0.453125q-0.859375 -0.453125 -1.421875 -1.3125q-0.5625 -0.859375 -0.828125 -2.109375q-0.25 -1.2499924 -0.25 -2.8593674q0 -1.578125 0.25 -2.828125q0.265625 -1.265625 0.828125 -2.125q0.5625 -0.859375 1.421875 -1.3125q0.859375 -0.46875 2.046875 -0.46875q1.203125 0 2.046875 0.46875q0.859375 0.453125 1.421875 1.3125q0.5625 0.859375 0.828125 2.125q0.265625 1.25 0.265625 2.828125q0 1.609375 -0.265625 2.8593674q-0.265625 1.25 -0.828125 2.109375q-0.5625 0.859375 -1.421875 1.3125q-0.84375 0.453125 -2.046875 0.453125zm0 -1.359375q0.78125 0 1.34375 -0.296875q0.5625 -0.3125 0.90625 -0.875q0.34375 -0.5625 0.515625 -1.34375q0.171875 -0.796875 0.171875 -1.7968674l0 -2.125q0 -0.96875 -0.171875 -1.765625q-0.171875 -0.8125 -0.515625 -1.359375q-0.34375 -0.5625 -0.90625 -0.875q-0.5625 -0.3125 -1.34375 -0.3125q-0.78125 0 -1.34375 0.3125q-0.5625 0.3125 -0.90625 0.875q-0.34375 0.546875 -0.515625 1.359375q-0.15625 0.796875 -0.15625 1.765625l0 2.125q0 0.9999924 0.15625 1.7968674q0.171875 0.78125 0.515625 1.34375q0.34375 0.5625 0.90625 0.875q0.5625 0.296875 1.34375 0.296875zm0 -4.2656174q-0.65625 0 -0.90625 -0.265625q-0.25 -0.265625 -0.25 -0.640625l0 -0.40625q0 -0.375 0.25 -0.625q0.25 -0.265625 0.90625 -0.265625q0.65625 0 0.90625 0.265625q0.25 0.25 0.25 0.625l0 0.40625q0 0.375 -0.25 0.640625q-0.25 0.265625 -0.90625 0.265625z" fill-rule="nonzero"/><path fill="#000000" fill-opacity="0.0" d="m593.32153 96.091866l-68.031494 0" fill-rule="evenodd"/><path stroke="#000000" stroke-width="1.0" stroke-linejoin="round" stroke-linecap="butt" d="m593.32153 96.091866l-68.031494 0" fill-rule="evenodd"/><path fill="#000000" fill-opacity="0.0" d="m593.1916 63.82152l-67.90552 0l0 42.01575l67.90552 0z" fill-rule="evenodd"/><path fill="#ff0000" d="m557.2669 92.35727l-3.453125 -13.015625l3.109375 0l1.53125 6.609375l0.765625 3.75l0.15625 0l0.78125 -3.75l1.546875 -6.609375l2.96875 0l-3.453125 13.015625l-3.953125 0z" fill-rule="nonzero"/><path fill="#000000" fill-opacity="0.0" d="m525.4816 95.44882l0 42.551178" fill-rule="evenodd"/><path stroke="#000000" stroke-width="1.0" stroke-linejoin="round" stroke-linecap="butt" d="m525.4816 95.44882l0 42.551178" fill-rule="evenodd"/><path fill="#000000" fill-opacity="0.0" d="m457.25986 94.42257l-68.031494 0" fill-rule="evenodd"/><path stroke="#000000" stroke-width="1.0" stroke-linejoin="round" stroke-linecap="butt" d="m457.25986 94.42257l-62.031525 0" fill-rule="evenodd"/><path fill="#000000" stroke="#000000" stroke-width="1.0" stroke-linecap="butt" d="m395.22833 92.77084l-4.538086 1.6517258l4.538086 1.6517334z" fill-rule="evenodd"/><path fill="#000000" fill-opacity="0.0" d="m395.5433 73.414696l-29.984253 0l0 42.015747l29.984253 0z" fill-rule="evenodd"/><path fill="#000000" d="m380.1528 100.553444q-1.140625 0 -2.0 -0.28125q-0.84375 -0.296875 -1.421875 -0.796875q-0.5625 -0.5 -0.859375 -1.1875q-0.28125 -0.703125 -0.28125 -1.5q0 -1.34375 0.71875 -2.125q0.734375 -0.78125 1.921875 -1.09375l0 -0.15625q-1.046875 -0.359375 -1.65625 -1.140625q-0.59375 -0.796875 -0.59375 -1.921875q0 -1.484375 1.09375 -2.375q1.109375 -0.890625 3.078125 -0.890625q1.984375 0 3.078125 0.890625q1.109375 0.890625 1.109375 2.375q0 1.125 -0.609375 1.921875q-0.609375 0.78125 -1.65625 1.140625l0 0.15625q1.203125 0.3125 1.921875 1.09375q0.734375 0.78125 0.734375 2.125q0 0.796875 -0.296875 1.5q-0.28125 0.6875 -0.859375 1.1875q-0.578125 0.5 -1.4375 0.796875q-0.84375 0.28125 -1.984375 0.28125zm0 -1.3125q1.390625 0 2.171875 -0.609375q0.78125 -0.625 0.78125 -1.75l0 -0.40625q0 -1.125 -0.78125 -1.734375q-0.765625 -0.625 -2.171875 -0.625q-1.390625 0 -2.171875 0.625q-0.765625 0.609375 -0.765625 1.734375l0 0.40625q0 1.125 0.78125 1.75q0.78125 0.609375 2.15625 0.609375zm0 -6.390625q1.265625 0 1.921875 -0.53125q0.671875 -0.546875 0.671875 -1.5625l0 -0.25q0 -1.015625 -0.6875 -1.546875q-0.671875 -0.546875 -1.90625 -0.546875q-1.234375 0 -1.921875 0.546875q-0.671875 0.53125 -0.671875 1.546875l0 0.25q0 1.015625 0.65625 1.5625q0.671875 0.53125 1.9375 0.53125z" fill-rule="nonzero"/><path fill="#000000" fill-opacity="0.0" d="m457.07086 62.144356l-67.90552 0l0 42.015747l67.90552 0z" fill-rule="evenodd"/><path fill="#ff0000" d="m421.14624 90.68011l-3.453125 -13.015625l3.109375 0l1.53125 6.609375l0.765625 3.75l0.15625 0l0.78125 -3.75l1.546875 -6.609375l2.96875 0l-3.453125 13.015625l-3.953125 0z" fill-rule="nonzero"/><path fill="#000000" fill-opacity="0.0" d="m7.929134 -12.015748l29.984253 0l0 42.015747l-29.984253 0z" fill-rule="evenodd"/><path fill="#000000" d="m20.16351 14.90425l5.09375 -11.671875l-5.71875 0l0 2.421875l-1.390625 0l0 -3.765625l8.6875 0l0 1.375l-5.0 11.640625l-1.671875 0z" fill-rule="nonzero"/><path fill="#000000" fill-opacity="0.0" d="m76.250656 228.55118l68.031494 0" fill-rule="evenodd"/><path stroke="#000000" stroke-width="1.0" stroke-linejoin="round" stroke-linecap="butt" d="m76.250656 228.55118l68.031494 0" fill-rule="evenodd"/><path fill="#000000" fill-opacity="0.0" d="m76.250656 196.28084l68.031494 0l0 42.015747l-68.031494 0z" fill-rule="evenodd"/><path fill="#ff0000" d="m114.200775 211.80096l0 9.375q0 0.875 -0.3125 1.59375q-0.296875 0.71875 -0.875 1.234375q-0.5625 0.5 -1.375 0.765625q-0.796875 0.265625 -1.78125 0.265625q-2.0 0 -3.09375 -0.984375q-1.09375 -1.0 -1.390625 -2.625l2.65625 -0.546875q0.140625 0.84375 0.5625 1.375q0.421875 0.515625 1.265625 0.515625q0.703125 0 1.109375 -0.453125q0.40625 -0.46875 0.40625 -1.421875l0 -6.8125l-4.296875 0l0 -2.28125l7.125 0z" fill-rule="nonzero"/><path fill="#000000" fill-opacity="0.0" d="m76.24278 196.28084l29.984253 0l0 42.015747l-29.984253 0z" fill-rule="evenodd"/><path fill="#000000" d="m90.83653 223.41959q-1.140625 0 -2.0 -0.28125q-0.84375 -0.296875 -1.421875 -0.796875q-0.5625 -0.5 -0.859375 -1.1875q-0.28125 -0.703125 -0.28125 -1.5q0 -1.34375 0.71875 -2.125q0.734375 -0.78125 1.921875 -1.09375l0 -0.15625q-1.046875 -0.359375 -1.65625 -1.140625q-0.59375 -0.796875 -0.59375 -1.921875q0 -1.484375 1.09375 -2.375q1.109375 -0.890625 3.078125 -0.890625q1.984375 0 3.078125 0.890625q1.109375 0.890625 1.109375 2.375q0 1.125 -0.609375 1.921875q-0.609375 0.78125 -1.65625 1.140625l0 0.15625q1.203125 0.3125 1.921875 1.09375q0.734375 0.78125 0.734375 2.125q0 0.796875 -0.296875 1.5q-0.28125 0.6875 -0.859375 1.1875q-0.578125 0.5 -1.4375 0.796875q-0.84375 0.28125 -1.984375 0.28125zm0 -1.3125q1.390625 0 2.171875 -0.609375q0.78125 -0.625 0.78125 -1.75l0 -0.40625q0 -1.125 -0.78125 -1.734375q-0.765625 -0.625 -2.171875 -0.625q-1.390625 0 -2.171875 0.625q-0.765625 0.609375 -0.765625 1.734375l0 0.40625q0 1.125 0.78125 1.75q0.78125 0.609375 2.15625 0.609375zm0 -6.390625q1.265625 0 1.921875 -0.53125q0.671875 -0.546875 0.671875 -1.5625l0 -0.25q0 -1.015625 -0.6875 -1.546875q-0.671875 -0.546875 -1.90625 -0.546875q-1.234375 0 -1.921875 0.546875q-0.671875 0.53125 -0.671875 1.546875l0 0.25q0 1.015625 0.65625 1.5625q0.671875 0.53125 1.9375 0.53125z" fill-rule="nonzero"/><path fill="#000000" fill-opacity="0.0" d="m76.250656 186.53543l68.031494 0" fill-rule="evenodd"/><path stroke="#000000" stroke-width="1.0" stroke-linejoin="round" stroke-linecap="butt" d="m76.250656 186.53543l68.031494 0" fill-rule="evenodd"/><path fill="#000000" fill-opacity="0.0" d="m76.37664 154.26509l67.90551 0l0 42.015747l-67.90551 0z" fill-rule="evenodd"/><path fill="#ff0000" d="m106.45127 182.80084l0 -13.015625l2.8125 0l0 10.71875l5.59375 0l0 2.296875l-8.40625 0z" fill-rule="nonzero"/><path fill="#000000" fill-opacity="0.0" d="m76.24278 154.26509l29.984253 0l0 42.015747l-29.984253 0z" fill-rule="evenodd"/><path fill="#000000" d="m86.82091 181.18509l0 -1.359375l3.734375 0l0 -10.5l-0.125 0l-3.28125 3.046875l-0.921875 -0.984375l3.453125 -3.21875l2.453125 0l0 11.65625l3.421875 0l0 1.359375l-8.734375 0z" fill-rule="nonzero"/><path fill="#000000" fill-opacity="0.0" d="m144.27165 186.53543l0 42.551178" fill-rule="evenodd"/><path stroke="#000000" stroke-width="1.0" stroke-linejoin="round" stroke-linecap="butt" d="m144.27165 186.53543l0 42.551178" fill-rule="evenodd"/><path fill="#000000" fill-opacity="0.0" d="m76.32284 270.45932l68.03149 0" fill-rule="evenodd"/><path stroke="#000000" stroke-width="1.0" stroke-linejoin="round" stroke-linecap="butt" d="m76.32284 270.45932l68.03149 0" fill-rule="evenodd"/><path fill="#000000" fill-opacity="0.0" d="m76.32284 238.18898l68.03149 0l0 42.01573l-68.03149 0z" fill-rule="evenodd"/><path fill="#ff0000" d="m111.97608 261.2716l-3.28125 0l0 5.453125l-2.8125 0l0 -13.015625l2.8125 0l0 5.265625l3.28125 0l0 -5.265625l2.828125 0l0 13.015625l-2.828125 0l0 -5.453125z" fill-rule="nonzero"/><path fill="#000000" fill-opacity="0.0" d="m76.314964 238.18898l29.984245 0l0 42.01573l-29.984245 0z" fill-rule="evenodd"/><path fill="#000000" d="m92.36184 265.10898l0 -2.5625l-6.40625 0l0 -1.375l5.625 -9.078125l2.28125 0l0 9.171875l1.9375 0l0 1.28125l-1.9375 0l0 2.5625l-1.5 0zm-5.015625 -3.84375l5.015625 0l0 -7.96875l-0.0625 0l-4.953125 7.96875z" fill-rule="nonzero"/><path fill="#000000" fill-opacity="0.0" d="m76.32546 312.58267l68.03149 0" fill-rule="evenodd"/><path stroke="#000000" stroke-width="1.0" stroke-linejoin="round" stroke-linecap="butt" d="m76.32546 312.58267l68.03149 0" fill-rule="evenodd"/><path fill="#000000" fill-opacity="0.0" d="m76.32546 280.31235l68.03149 0l0 42.015747l-68.03149 0z" fill-rule="evenodd"/><path fill="#ff0000" d="m112.79121 303.0512l0.140625 -3.640625l-0.171875 0l-2.421875 6.6875l-2.421875 -6.6875l-0.171875 0l0.15625 3.640625l0 5.796875l-2.421875 0l0 -13.015625l3.296875 0l1.609375 4.375l0.140625 0l1.609375 -4.375l3.078125 0l0 13.015625l-2.421875 0l0 -5.796875z" fill-rule="nonzero"/><path fill="#000000" fill-opacity="0.0" d="m76.31759 280.31235l29.984245 0l0 42.015747l-29.984245 0z" fill-rule="evenodd"/><path fill="#000000" d="m94.66134 295.57608l-5.8125 0l-0.375 4.984375l0.125 0q0.484375 -0.65625 1.078125 -1.03125q0.609375 -0.390625 1.640625 -0.390625q0.859375 0 1.578125 0.265625q0.71875 0.265625 1.234375 0.796875q0.53125 0.515625 0.828125 1.265625q0.296875 0.734375 0.296875 1.6875q0 0.9375 -0.296875 1.734375q-0.296875 0.796875 -0.875 1.375q-0.578125 0.5625 -1.40625 0.875q-0.8125 0.3125 -1.859375 0.3125q-0.8125 0 -1.46875 -0.1875q-0.640625 -0.1875 -1.140625 -0.5q-0.484375 -0.3125 -0.859375 -0.703125q-0.375 -0.390625 -0.671875 -0.828125l1.171875 -0.890625q0.265625 0.390625 0.53125 0.71875q0.28125 0.3125 0.625 0.546875q0.359375 0.21875 0.796875 0.359375q0.453125 0.125 1.0625 0.125q1.34375 0 2.0625 -0.71875q0.71875 -0.734375 0.71875 -2.015625l0 -0.15625q0 -1.28125 -0.734375 -2.0q-0.734375 -0.734375 -2.09375 -0.734375q-0.921875 0 -1.4375 0.3125q-0.515625 0.3125 -0.953125 0.78125l-1.3125 -0.1875l0.453125 -7.15625l7.09375 0l0 1.359375z" fill-rule="nonzero"/><path fill="#000000" fill-opacity="0.0" d="m144.34645 270.56693l0 42.551178" fill-rule="evenodd"/><path stroke="#000000" stroke-width="1.0" stroke-linejoin="round" stroke-linecap="butt" d="m144.34645 270.56693l0 42.551178" fill-rule="evenodd"/><path fill="#000000" fill-opacity="0.0" d="m76.2126 393.76904l68.031494 0" fill-rule="evenodd"/><path stroke="#000000" stroke-width="1.0" stroke-linejoin="round" stroke-linecap="butt" d="m76.2126 393.76904l68.031494 0" fill-rule="evenodd"/><path fill="#000000" fill-opacity="0.0" d="m76.2126 361.4987l68.031494 0l0 42.015747l-68.031494 0z" fill-rule="evenodd"/><path fill="#ff0000" d="m109.85022 384.61255l-1.15625 1.609375l0 3.8125l-2.796875 0l0 -13.015625l2.796875 0l0 5.4375l0.15625 0l1.421875 -2.15625l2.28125 -3.28125l3.140625 0l-3.90625 5.5l4.09375 7.515625l-3.15625 0l-2.875 -5.421875z" fill-rule="nonzero"/><path fill="#000000" fill-opacity="0.0" d="m76.20473 361.4987l29.984253 0l0 42.015747l-29.984253 0z" fill-rule="evenodd"/><path fill="#000000" d="m90.8141 388.63742q-1.015625 0 -1.84375 -0.34375q-0.8125 -0.34375 -1.390625 -0.984375q-0.5625 -0.640625 -0.875 -1.578125q-0.3125 -0.9375 -0.3125 -2.09375q0 -1.453125 0.4375 -2.71875q0.453125 -1.28125 1.125 -2.328125q0.6875 -1.0625 1.515625 -1.875q0.84375 -0.8125 1.640625 -1.3125l2.015625 0q-1.0625 0.765625 -1.890625 1.5q-0.828125 0.71875 -1.46875 1.515625q-0.625 0.78125 -1.0625 1.6875q-0.421875 0.90625 -0.703125 2.046875l0.09375 0.03125q0.46875 -0.796875 1.234375 -1.328125q0.765625 -0.53125 1.96875 -0.53125q0.859375 0 1.5625 0.28125q0.71875 0.28125 1.234375 0.796875q0.53125 0.515625 0.8125 1.265625q0.296875 0.75 0.296875 1.671875q0 0.9375 -0.328125 1.734375q-0.3125 0.796875 -0.875 1.375q-0.5625 0.5625 -1.375 0.875q-0.8125 0.3125 -1.8125 0.3125zm-0.015625 -1.3125q1.34375 0 2.078125 -0.734375q0.734375 -0.734375 0.734375 -2.046875l0 -0.15625q0 -1.328125 -0.734375 -2.046875q-0.734375 -0.734375 -2.078125 -0.734375q-1.34375 0 -2.078125 0.734375q-0.734375 0.71875 -0.734375 2.046875l0 0.15625q0 1.3125 0.734375 2.046875q0.734375 0.734375 2.078125 0.734375z" fill-rule="nonzero"/><path fill="#000000" fill-opacity="0.0" d="m76.2126 351.7533l68.031494 0" fill-rule="evenodd"/><path stroke="#000000" stroke-width="1.0" stroke-linejoin="round" stroke-linecap="butt" d="m76.2126 351.7533l68.031494 0" fill-rule="evenodd"/><path fill="#000000" fill-opacity="0.0" d="m76.338585 319.48294l67.90551 0l0 42.015747l-67.90551 0z" fill-rule="evenodd"/><path fill="#ff0000" d="m112.36633 346.17493l-0.171875 0q-0.171875 0.40625 -0.421875 0.78125q-0.234375 0.375 -0.59375 0.671875q-0.34375 0.28125 -0.828125 0.4375q-0.46875 0.171875 -1.0625 0.171875q-0.953125 0 -1.6875 -0.4375q-0.734375 -0.453125 -1.25 -1.3125q-0.5 -0.859375 -0.75 -2.078125q-0.25 -1.234375 -0.25 -2.796875q0 -3.3125 1.203125 -5.078125q1.21875 -1.765625 3.75 -1.765625q1.015625 0 1.78125 0.28125q0.765625 0.265625 1.3125 0.765625q0.546875 0.484375 0.90625 1.1875q0.359375 0.6875 0.5625 1.515625l-2.609375 0.640625q-0.125 -0.40625 -0.265625 -0.78125q-0.140625 -0.390625 -0.359375 -0.6875q-0.21875 -0.3125 -0.5625 -0.484375q-0.328125 -0.171875 -0.8125 -0.171875q-1.0625 0 -1.5 0.875q-0.4375 0.875 -0.4375 2.453125l0 2.140625q0 1.578125 0.46875 2.53125q0.484375 0.953125 1.6875 0.953125q0.953125 0 1.421875 -0.5625q0.46875 -0.5625 0.46875 -1.4375l0 -0.953125l-2.21875 0l0 -1.96875l4.71875 0l0 6.953125l-2.5 0l0 -1.84375z" fill-rule="nonzero"/><path fill="#000000" fill-opacity="0.0" d="m76.20473 319.48294l29.984253 0l0 42.015747l-29.984253 0z" fill-rule="evenodd"/><path fill="#000000" d="m90.23598 338.90292q1.375 0 2.046875 -0.609375q0.6875 -0.609375 0.6875 -1.546875l0 -0.140625q0 -1.046875 -0.671875 -1.5625q-0.65625 -0.53125 -1.71875 -0.53125q-1.046875 0 -1.6875 0.46875q-0.640625 0.453125 -1.0625 1.203125l-1.171875 -0.90625q0.25 -0.390625 0.59375 -0.765625q0.359375 -0.390625 0.828125 -0.6875q0.484375 -0.296875 1.109375 -0.484375q0.625 -0.1875 1.421875 -0.1875q0.84375 0 1.5625 0.21875q0.734375 0.21875 1.265625 0.640625q0.546875 0.40625 0.859375 1.03125q0.3125 0.609375 0.3125 1.390625q0 0.640625 -0.203125 1.140625q-0.1875 0.5 -0.53125 0.875q-0.34375 0.375 -0.8125 0.640625q-0.46875 0.265625 -1.0 0.390625l0 0.078125q0.546875 0.109375 1.046875 0.359375q0.5 0.25 0.890625 0.65625q0.40625 0.40625 0.625 0.96875q0.234375 0.5625 0.234375 1.296875q0 0.84375 -0.328125 1.546875q-0.3125 0.6875 -0.90625 1.1875q-0.59375 0.5 -1.421875 0.78125q-0.828125 0.265625 -1.828125 0.265625q-0.859375 0 -1.53125 -0.1875q-0.65625 -0.1875 -1.171875 -0.5q-0.515625 -0.3125 -0.90625 -0.703125q-0.375 -0.390625 -0.671875 -0.828125l1.1875 -0.890625q0.25 0.390625 0.53125 0.71875q0.28125 0.3125 0.640625 0.546875q0.375 0.21875 0.828125 0.359375q0.46875 0.125 1.09375 0.125q1.375 0 2.109375 -0.625q0.734375 -0.640625 0.734375 -1.8125l0 -0.15625q0 -1.15625 -0.71875 -1.78125q-0.71875 -0.640625 -2.140625 -0.640625l-1.5625 0l0 -1.34375l1.4375 0z" fill-rule="nonzero"/><path fill="#000000" fill-opacity="0.0" d="m144.2336 351.7533l0 42.551178" fill-rule="evenodd"/><path stroke="#000000" stroke-width="1.0" stroke-linejoin="round" stroke-linecap="butt" d="m144.2336 351.7533l0 42.551178" fill-rule="evenodd"/><path fill="#000000" fill-opacity="0.0" d="m76.284775 435.67715l68.031494 0" fill-rule="evenodd"/><path stroke="#000000" stroke-width="1.0" stroke-linejoin="round" stroke-linecap="butt" d="m76.284775 435.67715l68.031494 0" fill-rule="evenodd"/><path fill="#000000" fill-opacity="0.0" d="m76.284775 403.40683l68.031494 0l0 42.015747l-68.031494 0z" fill-rule="evenodd"/><path fill="#ff0000" d="m106.1099 431.94257l0 -2.078125l2.7968674 0l0 -8.875l-2.7968674 0l0 -2.0625l8.390617 0l0 2.0625l-2.796875 0l0 8.875l2.796875 0l0 2.078125l-8.390617 0z" fill-rule="nonzero"/><path fill="#000000" fill-opacity="0.0" d="m76.2769 403.40683l29.984253 0l0 42.015747l-29.984253 0z" fill-rule="evenodd"/><path fill="#000000" d="m95.29253 430.3268l-8.6875 0l0 -1.609375l4.34375 -3.90625q0.953125 -0.859375 1.5625 -1.765625q0.625 -0.90625 0.625 -1.921875l0 -0.21875q0 -1.171875 -0.625 -1.8125q-0.609375 -0.65625 -1.828125 -0.65625q-1.1875 0 -1.84375 0.609375q-0.640625 0.609375 -0.953125 1.625l-1.390625 -0.53125q0.1875 -0.578125 0.5 -1.125q0.328125 -0.546875 0.828125 -0.96875q0.515625 -0.4375 1.234375 -0.703125q0.71875 -0.265625 1.671875 -0.265625q0.96875 0 1.71875 0.28125q0.75 0.28125 1.265625 0.796875q0.515625 0.5 0.78125 1.1875q0.28125 0.6875 0.28125 1.5q0 0.75 -0.21875 1.40625q-0.21875 0.65625 -0.609375 1.25q-0.375 0.59375 -0.90625 1.171875q-0.53125 0.5625 -1.1875 1.125l-3.625 3.171875l7.0625 0l0 1.359375z" fill-rule="nonzero"/><path fill="#000000" fill-opacity="0.0" d="m76.2874 477.80054l68.031494 0" fill-rule="evenodd"/><path stroke="#000000" stroke-width="1.0" stroke-linejoin="round" stroke-linecap="butt" d="m76.2874 477.80054l68.031494 0" fill-rule="evenodd"/><path fill="#000000" fill-opacity="0.0" d="m76.2874 445.53018l68.031494 0l0 42.015747l-68.031494 0z" fill-rule="evenodd"/><path fill="#ff0000" d="m112.81564 474.06592l-0.8125 -3.140625l-3.5625 0l-0.8124924 3.140625l-2.828125 0l3.5312424 -13.015625l3.953125 0l3.515625 13.015625l-2.984375 0zm-2.515625 -10.3125l-0.140625 0l-1.28125 4.921875l2.6875 0l-1.265625 -4.921875z" fill-rule="nonzero"/><path fill="#000000" fill-opacity="0.0" d="m76.279526 445.53018l29.984253 0l0 42.015747l-29.984253 0z" fill-rule="evenodd"/><path fill="#000000" d="m88.5139 472.4502l5.09375 -11.671875l-5.71875 0l0 2.421875l-1.390625 0l0 -3.765625l8.6875 0l0 1.375l-5.0 11.640625l-1.671875 0z" fill-rule="nonzero"/><path fill="#000000" fill-opacity="0.0" d="m144.3084 435.7848l0 42.551178" fill-rule="evenodd"/><path stroke="#000000" stroke-width="1.0" stroke-linejoin="round" stroke-linecap="butt" d="m144.3084 435.7848l0 42.551178" fill-rule="evenodd"/><path fill="#000000" fill-opacity="0.0" d="m144.27165 207.10367l68.031494 0" fill-rule="evenodd"/><path stroke="#000000" stroke-width="1.0" stroke-linejoin="round" stroke-linecap="butt" d="m144.27165 207.10367l68.031494 0" fill-rule="evenodd"/><path fill="#000000" fill-opacity="0.0" d="m144.39764 174.83333l67.9055 0l0 42.015747l-67.9055 0z" fill-rule="evenodd"/><path fill="#ff0000" d="m182.28476 190.35345l0 9.375q0 0.875 -0.3125 1.59375q-0.296875 0.71875 -0.875 1.234375q-0.5625 0.5 -1.375 0.765625q-0.796875 0.265625 -1.78125 0.265625q-2.0 0 -3.09375 -0.984375q-1.09375 -1.0 -1.390625 -2.625l2.65625 -0.546875q0.140625 0.84375 0.5625 1.375q0.421875 0.515625 1.265625 0.515625q0.703125 0 1.109375 -0.453125q0.40625 -0.46875 0.40625 -1.421875l0 -6.8125l-4.296875 0l0 -2.28125l7.125 0z" fill-rule="nonzero"/><path fill="#000000" fill-opacity="0.0" d="m144.20866 291.15878l68.031494 0" fill-rule="evenodd"/><path stroke="#000000" stroke-width="1.0" stroke-linejoin="round" stroke-linecap="butt" d="m144.20866 291.15878l68.031494 0" fill-rule="evenodd"/><path fill="#000000" fill-opacity="0.0" d="m144.33464 258.88846l67.90552 0l0 42.015747l-67.90552 0z" fill-rule="evenodd"/><path fill="#ff0000" d="m180.7374 281.62732l0.140625 -3.640625l-0.171875 0l-2.421875 6.6875l-2.421875 -6.6875l-0.171875 0l0.15625 3.640625l0 5.796875l-2.421875 0l0 -13.015625l3.296875 0l1.609375 4.375l0.140625 0l1.609375 -4.375l3.078125 0l0 13.015625l-2.421875 0l0 -5.796875z" fill-rule="nonzero"/><path fill="#000000" fill-opacity="0.0" d="m144.24016 372.41208l68.031494 0" fill-rule="evenodd"/><path stroke="#000000" stroke-width="1.0" stroke-linejoin="round" stroke-linecap="butt" d="m144.24016 372.41208l68.031494 0" fill-rule="evenodd"/><path fill="#000000" fill-opacity="0.0" d="m144.36613 340.14172l67.90552 0l0 42.015747l-67.90552 0z" fill-rule="evenodd"/><path fill="#ff0000" d="m177.94077 363.2556l-1.15625 1.609375l0 3.8125l-2.796875 0l0 -13.015625l2.796875 0l0 5.4375l0.15625 0l1.421875 -2.15625l2.28125 -3.28125l3.140625 0l-3.90625 5.5l4.09375 7.515625l-3.15625 0l-2.875 -5.421875z" fill-rule="nonzero"/><path fill="#000000" fill-opacity="0.0" d="m144.17717 456.4672l68.031494 0" fill-rule="evenodd"/><path stroke="#000000" stroke-width="1.0" stroke-linejoin="round" stroke-linecap="butt" d="m144.17717 456.4672l68.031494 0" fill-rule="evenodd"/><path fill="#000000" fill-opacity="0.0" d="m144.30315 424.19684l67.90552 0l0 42.015747l-67.90552 0z" fill-rule="evenodd"/><path fill="#ff0000" d="m180.7684 452.7326l-0.8125 -3.140625l-3.5625 0l-0.8125 3.140625l-2.828125 0l3.53125 -13.015625l3.953125 0l3.515625 13.015625l-2.984375 0zm-2.515625 -10.3125l-0.140625 0l-1.28125 4.921875l2.6875 0l-1.265625 -4.921875z" fill-rule="nonzero"/><path fill="#000000" fill-opacity="0.0" d="m212.0105 206.62993l0 84.88188" fill-rule="evenodd"/><path stroke="#000000" stroke-width="1.0" stroke-linejoin="round" stroke-linecap="butt" d="m212.0105 206.62993l0 84.88188" fill-rule="evenodd"/><path fill="#000000" fill-opacity="0.0" d="m212.0105 371.96063l0 84.8819" fill-rule="evenodd"/><path stroke="#000000" stroke-width="1.0" stroke-linejoin="round" stroke-linecap="butt" d="m212.0105 371.96063l0 84.8819" fill-rule="evenodd"/><path fill="#000000" fill-opacity="0.0" d="m212.41339 248.82808l68.031494 0" fill-rule="evenodd"/><path stroke="#000000" stroke-width="1.0" stroke-linejoin="round" stroke-linecap="butt" d="m212.41339 248.82808l68.031494 0" fill-rule="evenodd"/><path fill="#000000" fill-opacity="0.0" d="m212.41339 414.40027l68.031494 0" fill-rule="evenodd"/><path stroke="#000000" stroke-width="1.0" stroke-linejoin="round" stroke-linecap="butt" d="m212.41339 414.40027l68.031494 0" fill-rule="evenodd"/><path fill="#000000" fill-opacity="0.0" d="m212.54594 216.85039l67.9055 0l0 42.015762l-67.9055 0z" fill-rule="evenodd"/><path fill="#ff0000" d="m250.43306 232.37051l0 9.375q0 0.875 -0.3125 1.59375q-0.296875 0.71875 -0.875 1.234375q-0.5625 0.5 -1.375 0.765625q-0.796875 0.265625 -1.78125 0.265625q-2.0 0 -3.09375 -0.984375q-1.09375 -1.0 -1.390625 -2.625l2.65625 -0.546875q0.140625 0.84375 0.5625 1.375q0.421875 0.515625 1.265625 0.515625q0.703125 0 1.109375 -0.453125q0.40625 -0.46875 0.40625 -1.421875l0 -6.8125l-4.296875 0l0 -2.28125l7.125 0z" fill-rule="nonzero"/><path fill="#000000" fill-opacity="0.0" d="m212.1365 382.15747l67.49606 0l0 42.015747l-67.49606 0z" fill-rule="evenodd"/><path fill="#ff0000" d="m248.39703 410.69324l-0.8125 -3.140625l-3.5625 0l-0.8125 3.140625l-2.828125 0l3.53125 -13.015625l3.953125 0l3.515625 13.015625l-2.984375 0zm-2.515625 -10.3125l-0.140625 0l-1.28125 4.921875l2.6875 0l-1.265625 -4.921875z" fill-rule="nonzero"/><path fill="#000000" fill-opacity="0.0" d="m280.07874 249.35432l0 164.9134" fill-rule="evenodd"/><path stroke="#000000" stroke-width="1.0" stroke-linejoin="round" stroke-linecap="butt" d="m280.07874 249.35432l0 164.9134" fill-rule="evenodd"/><path fill="#000000" fill-opacity="0.0" d="m280.45013 322.32678l68.409454 0" fill-rule="evenodd"/><path stroke="#000000" stroke-width="1.0" stroke-linejoin="round" stroke-linecap="butt" d="m280.45013 322.32678l68.409454 0" fill-rule="evenodd"/><path fill="#000000" fill-opacity="0.0" d="m280.45145 290.1181l68.409454 0l0 42.015747l-68.409454 0z" fill-rule="evenodd"/><path fill="#ff0000" d="m317.16867 318.65387l-0.8125 -3.140625l-3.5625 0l-0.8125 3.140625l-2.828125 0l3.53125 -13.015625l3.953125 0l3.515625 13.015625l-2.984375 0zm-2.515625 -10.3125l-0.140625 0l-1.28125 4.921875l2.6875 0l-1.265625 -4.921875z" fill-rule="nonzero"/><path fill="#000000" fill-opacity="0.0" d="m552.9252 228.55118l-68.03146 0" fill-rule="evenodd"/><path stroke="#000000" stroke-width="1.0" stroke-linejoin="round" stroke-linecap="butt" d="m552.9252 228.55118l-68.03146 0" fill-rule="evenodd"/><path fill="#000000" fill-opacity="0.0" d="m552.9252 196.28084l-68.03146 0l0 42.015747l68.03146 0z" fill-rule="evenodd"/><path fill="#ff0000" d="m516.93756 224.81659l-3.453125 -13.015625l3.109375 0l1.53125 6.609375l0.765625 3.75l0.15625 0l0.78125 -3.75l1.546875 -6.609375l2.96875 0l-3.453125 13.015625l-3.953125 0z" fill-rule="nonzero"/><path fill="#000000" fill-opacity="0.0" d="m552.93304 196.28084l-29.984253 0l0 42.015747l29.984253 0z" fill-rule="evenodd"/><path fill="#000000" d="m537.54254 223.41959q-1.140625 0 -2.0 -0.28125q-0.84375 -0.296875 -1.421875 -0.796875q-0.5625 -0.5 -0.859375 -1.1875q-0.28125 -0.703125 -0.28125 -1.5q0 -1.34375 0.71875 -2.125q0.734375 -0.78125 1.921875 -1.09375l0 -0.15625q-1.046875 -0.359375 -1.65625 -1.140625q-0.59375 -0.796875 -0.59375 -1.921875q0 -1.484375 1.09375 -2.375q1.109375 -0.890625 3.078125 -0.890625q1.984375 0 3.078125 0.890625q1.109375 0.890625 1.109375 2.375q0 1.125 -0.609375 1.921875q-0.609375 0.78125 -1.65625 1.140625l0 0.15625q1.203125 0.3125 1.921875 1.09375q0.734375 0.78125 0.734375 2.125q0 0.796875 -0.296875 1.5q-0.28125 0.6875 -0.859375 1.1875q-0.578125 0.5 -1.4375 0.796875q-0.84375 0.28125 -1.984375 0.28125zm0 -1.3125q1.390625 0 2.171875 -0.609375q0.78125 -0.625 0.78125 -1.75l0 -0.40625q0 -1.125 -0.78125 -1.734375q-0.765625 -0.625 -2.171875 -0.625q-1.390625 0 -2.171875 0.625q-0.765625 0.609375 -0.765625 1.734375l0 0.40625q0 1.125 0.78125 1.75q0.78125 0.609375 2.15625 0.609375zm0 -6.390625q1.265625 0 1.921875 -0.53125q0.671875 -0.546875 0.671875 -1.5625l0 -0.25q0 -1.015625 -0.6875 -1.546875q-0.671875 -0.546875 -1.90625 -0.546875q-1.234375 0 -1.921875 0.546875q-0.671875 0.53125 -0.671875 1.546875l0 0.25q0 1.015625 0.65625 1.5625q0.671875 0.53125 1.9375 0.53125z" fill-rule="nonzero"/><path fill="#000000" fill-opacity="0.0" d="m552.9252 186.53543l-68.03146 0" fill-rule="evenodd"/><path stroke="#000000" stroke-width="1.0" stroke-linejoin="round" stroke-linecap="butt" d="m552.9252 186.53543l-68.03146 0" fill-rule="evenodd"/><path fill="#000000" fill-opacity="0.0" d="m552.7992 154.26509l-67.90549 0l0 42.015747l67.90549 0z" fill-rule="evenodd"/><path fill="#ff0000" d="m518.8433 183.01959q-2.609375 0 -3.859375 -1.765625q-1.234375 -1.78125 -1.234375 -4.96875q0 -3.1875 1.234375 -4.953125q1.25 -1.78125 3.859375 -1.78125q2.609375 0 3.84375 1.78125q1.25 1.765625 1.25 4.953125q0 3.1875 -1.25 4.96875q-1.234375 1.765625 -3.84375 1.765625zm0 -2.25q1.203125 0 1.65625 -0.890625q0.453125 -0.890625 0.453125 -2.46875l0 -2.265625q0 -1.5625 -0.453125 -2.4375q-0.453125 -0.890625 -1.65625 -0.890625q-1.1875 0 -1.65625 0.890625q-0.453125 0.875 -0.453125 2.4375l0 2.28125q0 1.5625 0.453125 2.453125q0.46875 0.890625 1.65625 0.890625z" fill-rule="nonzero"/><path fill="#000000" fill-opacity="0.0" d="m552.93304 154.26509l-29.984253 0l0 42.015747l29.984253 0z" fill-rule="evenodd"/><path fill="#000000" d="m533.5269 181.18509l0 -1.359375l3.734375 0l0 -10.5l-0.125 0l-3.28125 3.046875l-0.921875 -0.984375l3.453125 -3.21875l2.453125 0l0 11.65625l3.421875 0l0 1.359375l-8.734375 0z" fill-rule="nonzero"/><path fill="#000000" fill-opacity="0.0" d="m484.9042 186.53543l0 42.551178" fill-rule="evenodd"/><path stroke="#000000" stroke-width="1.0" stroke-linejoin="round" stroke-linecap="butt" d="m484.9042 186.53543l0 42.551178" fill-rule="evenodd"/><path fill="#000000" fill-opacity="0.0" d="m552.853 270.45932l-68.031494 0" fill-rule="evenodd"/><path stroke="#000000" stroke-width="1.0" stroke-linejoin="round" stroke-linecap="butt" d="m552.853 270.45932l-68.031494 0" fill-rule="evenodd"/><path fill="#000000" fill-opacity="0.0" d="m552.853 238.18898l-68.031494 0l0 42.01573l68.031494 0z" fill-rule="evenodd"/><path fill="#ff0000" d="m517.06854 253.7091l0 8.234375q0 0.625 0.046875 1.140625q0.046875 0.5 0.21875 0.859375q0.171875 0.359375 0.53125 0.5625q0.359375 0.1875 0.96875 0.1875q0.625 0 0.96875 -0.1875q0.359375 -0.203125 0.53125 -0.5625q0.1875 -0.359375 0.234375 -0.859375q0.046875 -0.515625 0.046875 -1.140625l0 -8.234375l2.796875 0l0 7.859375q0 1.34375 -0.1875 2.359375q-0.171875 1.0 -0.671875 1.671875q-0.5 0.671875 -1.40625 1.015625q-0.890625 0.328125 -2.3125 0.328125q-1.421875 0 -2.3125 -0.328125q-0.890625 -0.34375 -1.40625 -1.015625q-0.5 -0.671875 -0.671875 -1.671875q-0.171875 -1.015625 -0.171875 -2.359375l0 -7.859375l2.796875 0z" fill-rule="nonzero"/><path fill="#000000" fill-opacity="0.0" d="m552.8609 238.18898l-29.984253 0l0 42.01573l29.984253 0z" fill-rule="evenodd"/><path fill="#000000" d="m538.9235 265.10898l0 -2.5625l-6.40625 0l0 -1.375l5.625 -9.078125l2.28125 0l0 9.171875l1.9375 0l0 1.28125l-1.9375 0l0 2.5625l-1.5 0zm-5.015625 -3.84375l5.015625 0l0 -7.96875l-0.0625 0l-4.953125 7.96875z" fill-rule="nonzero"/><path fill="#000000" fill-opacity="0.0" d="m552.8504 312.58267l-68.031494 0" fill-rule="evenodd"/><path stroke="#000000" stroke-width="1.0" stroke-linejoin="round" stroke-linecap="butt" d="m552.8504 312.58267l-68.031494 0" fill-rule="evenodd"/><path fill="#000000" fill-opacity="0.0" d="m552.8504 280.31235l-68.031494 0l0 42.015747l68.031494 0z" fill-rule="evenodd"/><path fill="#ff0000" d="m518.6284 309.06683q-1.640625 0 -2.859375 -0.53125q-1.203125 -0.546875 -1.953125 -1.484375l1.625 -1.78125q0.703125 0.78125 1.546875 1.15625q0.859375 0.375 1.734375 0.375q1.015625 0 1.53125 -0.453125q0.515625 -0.453125 0.515625 -1.28125q0 -0.703125 -0.40625 -1.046875q-0.390625 -0.359375 -1.34375 -0.5l-1.359375 -0.234375q-1.75 -0.296875 -2.546875 -1.296875q-0.78125 -1.0 -0.78125 -2.4375q0 -1.875 1.234375 -2.90625q1.234375 -1.046875 3.453125 -1.046875q1.515625 0 2.625 0.46875q1.125 0.46875 1.8125 1.265625l-1.578125 1.78125q-0.53125 -0.578125 -1.234375 -0.90625q-0.703125 -0.328125 -1.609375 -0.328125q-1.875 0 -1.875 1.546875q0 0.671875 0.40625 1.015625q0.421875 0.328125 1.375 0.5l1.375 0.234375q1.578125 0.28125 2.4375 1.203125q0.859375 0.90625 0.859375 2.453125q0 0.921875 -0.328125 1.703125q-0.3125 0.765625 -0.953125 1.34375q-0.625 0.5625 -1.546875 0.875q-0.921875 0.3125 -2.15625 0.3125z" fill-rule="nonzero"/><path fill="#000000" fill-opacity="0.0" d="m552.8583 280.31235l-29.984253 0l0 42.015747l29.984253 0z" fill-rule="evenodd"/><path fill="#000000" d="m541.2178 295.57608l-5.8125 0l-0.375 4.984375l0.125 0q0.484375 -0.65625 1.078125 -1.03125q0.609375 -0.390625 1.640625 -0.390625q0.859375 0 1.578125 0.265625q0.71875 0.265625 1.234375 0.796875q0.53125 0.515625 0.828125 1.265625q0.296875 0.734375 0.296875 1.6875q0 0.9375 -0.296875 1.734375q-0.296875 0.796875 -0.875 1.375q-0.578125 0.5625 -1.40625 0.875q-0.8125 0.3125 -1.859375 0.3125q-0.8125 0 -1.46875 -0.1875q-0.640625 -0.1875 -1.140625 -0.5q-0.484375 -0.3125 -0.859375 -0.703125q-0.375 -0.390625 -0.671875 -0.828125l1.171875 -0.890625q0.265625 0.390625 0.53125 0.71875q0.28125 0.3125 0.625 0.546875q0.359375 0.21875 0.796875 0.359375q0.453125 0.125 1.0625 0.125q1.34375 0 2.0625 -0.71875q0.71875 -0.734375 0.71875 -2.015625l0 -0.15625q0 -1.28125 -0.734375 -2.0q-0.734375 -0.734375 -2.09375 -0.734375q-0.921875 0 -1.4375 0.3125q-0.515625 0.3125 -0.953125 0.78125l-1.3125 -0.1875l0.453125 -7.15625l7.09375 0l0 1.359375z" fill-rule="nonzero"/><path fill="#000000" fill-opacity="0.0" d="m484.8294 270.56693l0 42.551178" fill-rule="evenodd"/><path stroke="#000000" stroke-width="1.0" stroke-linejoin="round" stroke-linecap="butt" d="m484.8294 270.56693l0 42.551178" fill-rule="evenodd"/><path fill="#000000" fill-opacity="0.0" d="m552.96326 393.76904l-68.031494 0" fill-rule="evenodd"/><path stroke="#000000" stroke-width="1.0" stroke-linejoin="round" stroke-linecap="butt" d="m552.96326 393.76904l-68.031494 0" fill-rule="evenodd"/><path fill="#000000" fill-opacity="0.0" d="m552.96326 361.4987l-68.031494 0l0 42.015747l68.031494 0z" fill-rule="evenodd"/><path fill="#ff0000" d="m517.5538 390.03442l0 -4.609375l-4.125 -8.40625l3.109375 0l1.390625 3.015625l1.0 2.5625l0.15625 0l1.0 -2.5625l1.375 -3.015625l3.015625 0l-4.125 8.40625l0 4.609375l-2.796875 0z" fill-rule="nonzero"/><path fill="#000000" fill-opacity="0.0" d="m552.9711 361.4987l-29.984253 0l0 42.015747l29.984253 0z" fill-rule="evenodd"/><path fill="#000000" d="m537.59625 388.63742q-1.015625 0 -1.84375 -0.34375q-0.8125 -0.34375 -1.390625 -0.984375q-0.5625 -0.640625 -0.875 -1.578125q-0.3125 -0.9375 -0.3125 -2.09375q0 -1.453125 0.4375 -2.71875q0.453125 -1.28125 1.125 -2.328125q0.6875 -1.0625 1.515625 -1.875q0.84375 -0.8125 1.640625 -1.3125l2.015625 0q-1.0625 0.765625 -1.890625 1.5q-0.828125 0.71875 -1.46875 1.515625q-0.625 0.78125 -1.0625 1.6875q-0.421875 0.90625 -0.703125 2.046875l0.09375 0.03125q0.46875 -0.796875 1.234375 -1.328125q0.765625 -0.53125 1.96875 -0.53125q0.859375 0 1.5625 0.28125q0.71875 0.28125 1.234375 0.796875q0.53125 0.515625 0.8125 1.265625q0.296875 0.75 0.296875 1.671875q0 0.9375 -0.328125 1.734375q-0.3125 0.796875 -0.875 1.375q-0.5625 0.5625 -1.375 0.875q-0.8125 0.3125 -1.8125 0.3125zm-0.015625 -1.3125q1.34375 0 2.078125 -0.734375q0.734375 -0.734375 0.734375 -2.046875l0 -0.15625q0 -1.328125 -0.734375 -2.046875q-0.734375 -0.734375 -2.078125 -0.734375q-1.34375 0 -2.078125 0.734375q-0.734375 0.71875 -0.734375 2.046875l0 0.15625q0 1.3125 0.734375 2.046875q0.734375 0.734375 2.078125 0.734375z" fill-rule="nonzero"/><path fill="#000000" fill-opacity="0.0" d="m552.96326 351.7533l-68.031494 0" fill-rule="evenodd"/><path stroke="#000000" stroke-width="1.0" stroke-linejoin="round" stroke-linecap="butt" d="m552.96326 351.7533l-68.031494 0" fill-rule="evenodd"/><path fill="#000000" fill-opacity="0.0" d="m552.8373 319.48294l-67.90552 0l0 42.015747l67.90552 0z" fill-rule="evenodd"/><path fill="#ff0000" d="m517.02203 339.36243l-0.203125 0l0 8.65625l-2.390625 0l0 -13.015625l3.359375 0l2.96875 8.65625l0.203125 0l0 -8.65625l2.390625 0l0 13.015625l-3.359375 0l-2.96875 -8.65625z" fill-rule="nonzero"/><path fill="#000000" fill-opacity="0.0" d="m552.9711 319.48294l-29.984253 0l0 42.015747l29.984253 0z" fill-rule="evenodd"/><path fill="#000000" d="m537.0181 338.90292q1.375 0 2.046875 -0.609375q0.6875 -0.609375 0.6875 -1.546875l0 -0.140625q0 -1.046875 -0.671875 -1.5625q-0.65625 -0.53125 -1.71875 -0.53125q-1.046875 0 -1.6875 0.46875q-0.640625 0.453125 -1.0625 1.203125l-1.171875 -0.90625q0.25 -0.390625 0.59375 -0.765625q0.359375 -0.390625 0.828125 -0.6875q0.484375 -0.296875 1.109375 -0.484375q0.625 -0.1875 1.421875 -0.1875q0.84375 0 1.5625 0.21875q0.734375 0.21875 1.265625 0.640625q0.546875 0.40625 0.859375 1.03125q0.3125 0.609375 0.3125 1.390625q0 0.640625 -0.203125 1.140625q-0.1875 0.5 -0.53125 0.875q-0.34375 0.375 -0.8125 0.640625q-0.46875 0.265625 -1.0 0.390625l0 0.078125q0.546875 0.109375 1.046875 0.359375q0.5 0.25 0.890625 0.65625q0.40625 0.40625 0.625 0.96875q0.234375 0.5625 0.234375 1.296875q0 0.84375 -0.328125 1.546875q-0.3125 0.6875 -0.90625 1.1875q-0.59375 0.5 -1.421875 0.78125q-0.828125 0.265625 -1.828125 0.265625q-0.859375 0 -1.53125 -0.1875q-0.65625 -0.1875 -1.171875 -0.5q-0.515625 -0.3125 -0.90625 -0.703125q-0.375 -0.390625 -0.671875 -0.828125l1.1875 -0.890625q0.25 0.390625 0.53125 0.71875q0.28125 0.3125 0.640625 0.546875q0.375 0.21875 0.828125 0.359375q0.46875 0.125 1.09375 0.125q1.375 0 2.109375 -0.625q0.734375 -0.640625 0.734375 -1.8125l0 -0.15625q0 -1.15625 -0.71875 -1.78125q-0.71875 -0.640625 -2.140625 -0.640625l-1.5625 0l0 -1.34375l1.4375 0z" fill-rule="nonzero"/><path fill="#000000" fill-opacity="0.0" d="m484.94226 351.7533l0 42.551178" fill-rule="evenodd"/><path stroke="#000000" stroke-width="1.0" stroke-linejoin="round" stroke-linecap="butt" d="m484.94226 351.7533l0 42.551178" fill-rule="evenodd"/><path fill="#000000" fill-opacity="0.0" d="m552.89105 435.67715l-68.03146 0" fill-rule="evenodd"/><path stroke="#000000" stroke-width="1.0" stroke-linejoin="round" stroke-linecap="butt" d="m552.89105 435.67715l-68.03146 0" fill-rule="evenodd"/><path fill="#000000" fill-opacity="0.0" d="m552.89105 403.40683l-68.03146 0l0 42.015747l68.03146 0z" fill-rule="evenodd"/><path fill="#ff0000" d="m514.7003 431.94257l0 -13.015625l5.03125 0q0.953125 0 1.703125 0.296875q0.75 0.28125 1.25 0.828125q0.515625 0.53125 0.78125 1.296875q0.265625 0.765625 0.265625 1.71875q0 0.953125 -0.265625 1.71875q-0.265625 0.75 -0.78125 1.296875q-0.5 0.546875 -1.25 0.84375q-0.75 0.28125 -1.703125 0.28125l-2.21875 0l0 4.734375l-2.8125 0zm2.8125 -7.0l1.515625 0q0.984375 0 1.359375 -0.375q0.390625 -0.375 0.390625 -1.21875l0 -0.5625q0 -0.859375 -0.390625 -1.234375q-0.375 -0.375 -1.359375 -0.375l-1.515625 0l0 3.765625z" fill-rule="nonzero"/><path fill="#000000" fill-opacity="0.0" d="m552.8989 403.40683l-29.984253 0l0 42.015747l29.984253 0z" fill-rule="evenodd"/><path fill="#000000" d="m541.9303 430.3268l-8.6875 0l0 -1.609375l4.34375 -3.90625q0.953125 -0.859375 1.5625 -1.765625q0.625 -0.90625 0.625 -1.921875l0 -0.21875q0 -1.171875 -0.625 -1.8125q-0.609375 -0.65625 -1.828125 -0.65625q-1.1875 0 -1.84375 0.609375q-0.640625 0.609375 -0.953125 1.625l-1.390625 -0.53125q0.1875 -0.578125 0.5 -1.125q0.328125 -0.546875 0.828125 -0.96875q0.515625 -0.4375 1.234375 -0.703125q0.71875 -0.265625 1.671875 -0.265625q0.96875 0 1.71875 0.28125q0.75 0.28125 1.265625 0.796875q0.515625 0.5 0.78125 1.1875q0.28125 0.6875 0.28125 1.5q0 0.75 -0.21875 1.40625q-0.21875 0.65625 -0.609375 1.25q-0.375 0.59375 -0.90625 1.171875q-0.53125 0.5625 -1.1875 1.125l-3.625 3.171875l7.0625 0l0 1.359375z" fill-rule="nonzero"/><path fill="#000000" fill-opacity="0.0" d="m552.8884 477.80054l-68.03146 0" fill-rule="evenodd"/><path stroke="#000000" stroke-width="1.0" stroke-linejoin="round" stroke-linecap="butt" d="m552.8884 477.80054l-68.03146 0" fill-rule="evenodd"/><path fill="#000000" fill-opacity="0.0" d="m552.8884 445.53018l-68.03146 0l0 42.015747l68.03146 0z" fill-rule="evenodd"/><path fill="#ff0000" d="m520.2758 463.33154l0 10.734375l-2.796875 0l0 -10.734375l-3.75 0l0 -2.28125l10.296875 0l0 2.28125l-3.75 0z" fill-rule="nonzero"/><path fill="#000000" fill-opacity="0.0" d="m552.8963 445.53018l-29.984253 0l0 42.015747l29.984253 0z" fill-rule="evenodd"/><path fill="#000000" d="m535.1464 472.4502l5.09375 -11.671875l-5.71875 0l0 2.421875l-1.390625 0l0 -3.765625l8.6875 0l0 1.375l-5.0 11.640625l-1.671875 0z" fill-rule="nonzero"/><path fill="#000000" fill-opacity="0.0" d="m484.86746 435.7848l0 42.551178" fill-rule="evenodd"/><path stroke="#000000" stroke-width="1.0" stroke-linejoin="round" stroke-linecap="butt" d="m484.86746 435.7848l0 42.551178" fill-rule="evenodd"/><path fill="#000000" fill-opacity="0.0" d="m484.9042 207.10367l-68.031494 0" fill-rule="evenodd"/><path stroke="#000000" stroke-width="1.0" stroke-linejoin="round" stroke-linecap="butt" d="m484.9042 207.10367l-68.031494 0" fill-rule="evenodd"/><path fill="#000000" fill-opacity="0.0" d="m484.77823 174.83333l-67.90552 0l0 42.015747l67.90552 0z" fill-rule="evenodd"/><path fill="#ff0000" d="m448.85358 203.36908l-3.453125 -13.015625l3.109375 0l1.53125 6.609375l0.765625 3.75l0.15625 0l0.78125 -3.75l1.546875 -6.609375l2.96875 0l-3.453125 13.015625l-3.953125 0z" fill-rule="nonzero"/><path fill="#000000" fill-opacity="0.0" d="m484.9672 291.15878l-68.031494 0" fill-rule="evenodd"/><path stroke="#000000" stroke-width="1.0" stroke-linejoin="round" stroke-linecap="butt" d="m484.9672 291.15878l-68.031494 0" fill-rule="evenodd"/><path fill="#000000" fill-opacity="0.0" d="m484.84122 258.88846l-67.90552 0l0 42.015747l67.90552 0z" fill-rule="evenodd"/><path fill="#ff0000" d="m450.6822 287.64294q-1.640625 0 -2.859375 -0.53125q-1.203125 -0.546875 -1.953125 -1.484375l1.625 -1.78125q0.703125 0.78125 1.546875 1.15625q0.859375 0.375 1.734375 0.375q1.015625 0 1.53125 -0.453125q0.515625 -0.453125 0.515625 -1.28125q0 -0.703125 -0.40625 -1.046875q-0.390625 -0.359375 -1.34375 -0.5l-1.359375 -0.234375q-1.75 -0.296875 -2.546875 -1.296875q-0.78125 -1.0 -0.78125 -2.4375q0 -1.875 1.234375 -2.90625q1.234375 -1.046875 3.453125 -1.046875q1.515625 0 2.625 0.46875q1.125 0.46875 1.8125 1.265625l-1.578125 1.78125q-0.53125 -0.578125 -1.234375 -0.90625q-0.703125 -0.328125 -1.609375 -0.328125q-1.875 0 -1.875 1.546875q0 0.671875 0.40625 1.015625q0.421875 0.328125 1.375 0.5l1.375 0.234375q1.578125 0.28125 2.4375 1.203125q0.859375 0.90625 0.859375 2.453125q0 0.921875 -0.328125 1.703125q-0.3125 0.765625 -0.953125 1.34375q-0.625 0.5625 -1.546875 0.875q-0.921875 0.3125 -2.15625 0.3125z" fill-rule="nonzero"/><path fill="#000000" fill-opacity="0.0" d="m484.9357 372.41208l-68.031494 0" fill-rule="evenodd"/><path stroke="#000000" stroke-width="1.0" stroke-linejoin="round" stroke-linecap="butt" d="m484.9357 372.41208l-68.031494 0" fill-rule="evenodd"/><path fill="#000000" fill-opacity="0.0" d="m484.80972 340.14172l-67.90552 0l0 42.015747l67.90552 0z" fill-rule="evenodd"/><path fill="#ff0000" d="m449.4632 368.6775l0 -4.609375l-4.125 -8.40625l3.109375 0l1.390625 3.015625l1.0 2.5625l0.15625 0l1.0 -2.5625l1.375 -3.015625l3.015625 0l-4.125 8.40625l0 4.609375l-2.796875 0z" fill-rule="nonzero"/><path fill="#000000" fill-opacity="0.0" d="m484.9987 456.4672l-68.031494 0" fill-rule="evenodd"/><path stroke="#000000" stroke-width="1.0" stroke-linejoin="round" stroke-linecap="butt" d="m484.9987 456.4672l-68.031494 0" fill-rule="evenodd"/><path fill="#000000" fill-opacity="0.0" d="m484.8727 424.19684l-67.90552 0l0 42.015747l67.90552 0z" fill-rule="evenodd"/><path fill="#ff0000" d="m446.74493 452.7326l0 -13.015625l5.03125 0q0.953125 0 1.703125 0.296875q0.75 0.28125 1.25 0.828125q0.515625 0.53125 0.78125 1.296875q0.265625 0.765625 0.265625 1.71875q0 0.953125 -0.265625 1.71875q-0.265625 0.75 -0.78125 1.296875q-0.5 0.546875 -1.25 0.84375q-0.75 0.28125 -1.703125 0.28125l-2.21875 0l0 4.734375l-2.8125 0zm2.8125 -7.0l1.515625 0q0.984375 0 1.359375 -0.375q0.390625 -0.375 0.390625 -1.21875l0 -0.5625q0 -0.859375 -0.390625 -1.234375q-0.375 -0.375 -1.359375 -0.375l-1.515625 0l0 3.765625z" fill-rule="nonzero"/><path fill="#000000" fill-opacity="0.0" d="m417.16534 206.62993l0 84.88188" fill-rule="evenodd"/><path stroke="#000000" stroke-width="1.0" stroke-linejoin="round" stroke-linecap="butt" d="m417.16534 206.62993l0 84.88188" fill-rule="evenodd"/><path fill="#000000" fill-opacity="0.0" d="m417.16534 371.96063l0 84.8819" fill-rule="evenodd"/><path stroke="#000000" stroke-width="1.0" stroke-linejoin="round" stroke-linecap="butt" d="m417.16534 371.96063l0 84.8819" fill-rule="evenodd"/><path fill="#000000" fill-opacity="0.0" d="m416.76248 248.82808l-68.031525 0" fill-rule="evenodd"/><path stroke="#000000" stroke-width="1.0" stroke-linejoin="round" stroke-linecap="butt" d="m416.76248 248.82808l-68.031525 0" fill-rule="evenodd"/><path fill="#000000" fill-opacity="0.0" d="m416.76248 414.40027l-68.031525 0" fill-rule="evenodd"/><path stroke="#000000" stroke-width="1.0" stroke-linejoin="round" stroke-linecap="butt" d="m416.76248 414.40027l-68.031525 0" fill-rule="evenodd"/><path fill="#000000" fill-opacity="0.0" d="m416.6299 216.85039l-67.90552 0l0 42.015762l67.90552 0z" fill-rule="evenodd"/><path fill="#ff0000" d="m382.47092 245.60489q-1.640625 0 -2.859375 -0.53125q-1.203125 -0.546875 -1.953125 -1.484375l1.625 -1.78125q0.703125 0.78125 1.546875 1.15625q0.859375 0.375 1.734375 0.375q1.015625 0 1.53125 -0.453125q0.515625 -0.453125 0.515625 -1.28125q0 -0.703125 -0.40625 -1.046875q-0.390625 -0.359375 -1.34375 -0.5l-1.359375 -0.234375q-1.75 -0.296875 -2.546875 -1.296875q-0.78125 -1.0 -0.78125 -2.4375q0 -1.875 1.234375 -2.90625q1.234375 -1.046875 3.453125 -1.046875q1.515625 0 2.625 0.46875q1.125 0.46875 1.8125 1.265625l-1.578125 1.78125q-0.53125 -0.578125 -1.234375 -0.90625q-0.703125 -0.328125 -1.609375 -0.328125q-1.875 0 -1.875 1.546875q0 0.671875 0.40625 1.015625q0.421875 0.328125 1.375 0.5l1.375 0.234375q1.578125 0.28125 2.4375 1.203125q0.859375 0.90625 0.859375 2.453125q0 0.921875 -0.328125 1.703125q-0.3125 0.765625 -0.953125 1.34375q-0.625 0.5625 -1.546875 0.875q-0.921875 0.3125 -2.15625 0.3125z" fill-rule="nonzero"/><path fill="#000000" fill-opacity="0.0" d="m417.03934 382.15747l-67.49606 0l0 42.015747l67.49606 0z" fill-rule="evenodd"/><path fill="#ff0000" d="m381.89755 410.69324l0 -4.609375l-4.125 -8.40625l3.109375 0l1.390625 3.015625l1.0 2.5625l0.15625 0l1.0 -2.5625l1.375 -3.015625l3.015625 0l-4.125 8.40625l0 4.609375l-2.796875 0z" fill-rule="nonzero"/><path fill="#000000" fill-opacity="0.0" d="m349.0971 249.35432l0 164.9134" fill-rule="evenodd"/><path stroke="#000000" stroke-width="1.0" stroke-linejoin="round" stroke-linecap="butt" d="m349.0971 249.35432l0 164.9134" fill-rule="evenodd"/><path fill="#000000" fill-opacity="0.0" d="m253.63255 301.32022l26.582657 0l0 42.015747l-26.582657 0z" fill-rule="evenodd"/><path fill="#ff0000" d="m270.7419 329.85596l-0.8125 -3.140625l-3.5625 0l-0.8125 3.140625l-2.828125 0l3.53125 -13.015625l3.953125 0l3.515625 13.015625l-2.984375 0zm-2.515625 -10.3125l-0.140625 0l-1.28125 4.921875l2.6875 0l-1.265625 -4.921875z" fill-rule="nonzero"/><path fill="#000000" fill-opacity="0.0" d="m344.1706 301.32022l26.582703 0l0 42.015747l-26.582703 0z" fill-rule="evenodd"/><path fill="#ff0000" d="m357.37372 329.85596l0 -4.609375l-4.125 -8.40625l3.109375 0l1.390625 3.015625l1.0 2.5625l0.15625 0l1.0 -2.5625l1.375 -3.015625l3.015625 0l-4.125 8.40625l0 4.609375l-2.796875 0z" fill-rule="nonzero"/><path fill="#000000" fill-opacity="0.0" d="m107.3832 478.44357l117.984245 0l0 58.17325l-117.984245 0z" fill-rule="evenodd"/><path fill="#000000" d="m130.85025 518.1636l0 -22.34375l13.765625 0l0 2.34375l-11.078125 0l0 7.515625l10.6875 0l0 2.34375l-10.6875 0l0 7.796875l11.078125 0l0 2.34375l-13.765625 0zm32.168793 0q-1.5 0 -2.140625 -0.765625q-0.640625 -0.765625 -0.8125 -1.921875l-0.15625 0q-0.546875 1.4375 -1.75 2.265625q-1.1875 0.8125 -3.203125 0.8125q-2.59375 0 -4.140625 -1.34375q-1.53125 -1.34375 -1.53125 -3.6875q0 -2.296875 1.671875 -3.546875q1.6875 -1.25 5.4375 -1.25l3.515625 0l0 -1.640625q0 -1.8125 -1.03125 -2.71875q-1.015625 -0.921875 -2.90625 -0.921875q-1.65625 0 -2.71875 0.65625q-1.046875 0.65625 -1.6875 1.78125l-1.734375 -1.28125q0.3125 -0.640625 0.859375 -1.25q0.546875 -0.609375 1.34375 -1.078125q0.796875 -0.46875 1.828125 -0.734375q1.03125 -0.265625 2.265625 -0.265625q2.921875 0 4.625 1.46875q1.71875 1.46875 1.71875 4.09375l0 9.09375l2.296875 0l0 2.234375l-1.75 0zm-7.625 -1.765625q1.0 0 1.8125 -0.234375q0.8125 -0.234375 1.421875 -0.640625q0.609375 -0.40625 0.9375 -0.953125q0.34375 -0.5625 0.34375 -1.203125l0 -2.71875l-3.515625 0q-2.3125 0 -3.375 0.640625q-1.046875 0.640625 -1.046875 1.84375l0 0.671875q0 1.28125 0.90625 1.9375q0.921875 0.65625 2.515625 0.65625zm20.778168 2.15625q-2.59375 0 -4.46875 -0.875q-1.875 -0.890625 -3.1875 -2.359375l1.734375 -1.515625q1.1875 1.25 2.59375 1.921875q1.40625 0.671875 3.390625 0.671875q1.921875 0 3.140625 -0.6875q1.234375 -0.6875 1.234375 -2.15625q0 -0.640625 -0.234375 -1.0625q-0.234375 -0.4375 -0.65625 -0.6875q-0.421875 -0.265625 -0.9375 -0.40625q-0.5 -0.140625 -1.078125 -0.25l-2.59375 -0.375q-0.859375 -0.125 -1.875 -0.34375q-1.0 -0.234375 -1.84375 -0.71875q-0.828125 -0.5 -1.390625 -1.328125q-0.546875 -0.84375 -0.546875 -2.1875q0 -1.25 0.484375 -2.15625q0.5 -0.921875 1.390625 -1.53125q0.90625 -0.625 2.109375 -0.921875q1.21875 -0.3125 2.671875 -0.3125q2.234375 0 3.875 0.703125q1.65625 0.703125 2.84375 1.953125l-1.671875 1.5625q-0.28125 -0.359375 -0.71875 -0.71875q-0.4375 -0.375 -1.0625 -0.671875q-0.609375 -0.3125 -1.453125 -0.5q-0.828125 -0.1875 -1.921875 -0.1875q-1.9375 0 -2.984375 0.671875q-1.046875 0.671875 -1.046875 1.953125q0 0.640625 0.234375 1.078125q0.25 0.421875 0.65625 0.6875q0.421875 0.25 0.953125 0.390625q0.53125 0.140625 1.078125 0.234375l2.59375 0.390625q0.890625 0.125 1.875 0.359375q1.0 0.21875 1.828125 0.71875q0.828125 0.484375 1.390625 1.328125q0.5625 0.828125 0.5625 2.171875q0 2.46875 -1.90625 3.8125q-1.90625 1.34375 -5.0625 1.34375zm19.809418 -0.390625q-1.890625 0 -2.78125 -1.046875q-0.875 -1.0625 -0.875 -2.734375l0 -10.5625l-5.5 0l0 -2.171875l4.09375 0q0.828125 0 1.15625 -0.328125q0.34375 -0.34375 0.34375 -1.171875l0 -4.328125l2.46875 0l0 5.828125l7.515625 0l0 2.171875l-7.515625 0l0 12.171875l7.515625 0l0 2.171875l-6.421875 0z" fill-rule="nonzero"/><path fill="#000000" fill-opacity="0.0" d="m382.01837 478.44357l117.98425 0l0 58.17325l-117.98425 0z" fill-rule="evenodd"/><path fill="#000000" d="m405.4854 518.1636l-1.75 -22.34375l2.390625 0l0.9375 12.8125l0.46875 6.75l0.265625 0l2.9375 -13.734375l3.015625 0l2.9375 13.734375l0.265625 0l0.46875 -6.75l0.9375 -12.8125l2.328125 0l-1.765625 22.34375l-3.859375 0l-2.71875 -13.34375l-0.265625 0l-2.71875 13.34375l-3.875 0zm26.215668 0.390625q-1.796875 0 -3.21875 -0.609375q-1.421875 -0.609375 -2.4375 -1.75q-1.0 -1.140625 -1.546875 -2.71875q-0.546875 -1.578125 -0.546875 -3.53125q0 -1.984375 0.5625 -3.578125q0.5625 -1.609375 1.546875 -2.75q1.0 -1.140625 2.390625 -1.734375q1.390625 -0.609375 3.09375 -0.609375q1.65625 0 3.015625 0.609375q1.359375 0.59375 2.3125 1.671875q0.96875 1.078125 1.484375 2.546875q0.515625 1.46875 0.515625 3.234375l0 1.21875l-12.234375 0l0 0.765625q0 1.078125 0.34375 2.015625q0.359375 0.921875 1.015625 1.59375q0.65625 0.671875 1.59375 1.046875q0.953125 0.359375 2.109375 0.359375q1.65625 0 2.875 -0.765625q1.21875 -0.765625 1.859375 -2.109375l1.890625 1.28125q-0.734375 1.65625 -2.453125 2.734375q-1.703125 1.078125 -4.171875 1.078125zm-0.15625 -15.171875q-1.0625 0 -1.96875 0.390625q-0.890625 0.375 -1.546875 1.046875q-0.65625 0.671875 -1.03125 1.59375q-0.359375 0.90625 -0.359375 1.984375l0 0.234375l9.46875 0l0 -0.359375q0 -1.078125 -0.34375 -1.96875q-0.328125 -0.90625 -0.921875 -1.5625q-0.578125 -0.65625 -1.4375 -1.0q-0.84375 -0.359375 -1.859375 -0.359375zm19.262543 15.171875q-2.59375 0 -4.46875 -0.875q-1.875 -0.890625 -3.1875 -2.359375l1.734375 -1.515625q1.1875 1.25 2.59375 1.921875q1.40625 0.671875 3.390625 0.671875q1.921875 0 3.140625 -0.6875q1.234375 -0.6875 1.234375 -2.15625q0 -0.640625 -0.234375 -1.0625q-0.234375 -0.4375 -0.65625 -0.6875q-0.421875 -0.265625 -0.9375 -0.40625q-0.5 -0.140625 -1.078125 -0.25l-2.59375 -0.375q-0.859375 -0.125 -1.875 -0.34375q-1.0 -0.234375 -1.84375 -0.71875q-0.828125 -0.5 -1.390625 -1.328125q-0.546875 -0.84375 -0.546875 -2.1875q0 -1.25 0.484375 -2.15625q0.5 -0.921875 1.390625 -1.53125q0.90625 -0.625 2.109375 -0.921875q1.21875 -0.3125 2.671875 -0.3125q2.234375 0 3.875 0.703125q1.65625 0.703125 2.84375 1.953125l-1.671875 1.5625q-0.28125 -0.359375 -0.71875 -0.71875q-0.4375 -0.375 -1.0625 -0.671875q-0.609375 -0.3125 -1.453125 -0.5q-0.828125 -0.1875 -1.921875 -0.1875q-1.9375 0 -2.984375 0.671875q-1.046875 0.671875 -1.046875 1.953125q0 0.640625 0.234375 1.078125q0.25 0.421875 0.65625 0.6875q0.421875 0.25 0.953125 0.390625q0.53125 0.140625 1.078125 0.234375l2.59375 0.390625q0.890625 0.125 1.875 0.359375q1.0 0.21875 1.828125 0.71875q0.828125 0.484375 1.390625 1.328125q0.5625 0.828125 0.5625 2.171875q0 2.46875 -1.90625 3.8125q-1.90625 1.34375 -5.0625 1.34375zm19.809418 -0.390625q-1.890625 0 -2.78125 -1.046875q-0.875 -1.0625 -0.875 -2.734375l0 -10.5625l-5.5 0l0 -2.171875l4.09375 0q0.828125 0 1.15625 -0.328125q0.34375 -0.34375 0.34375 -1.171875l0 -4.328125l2.46875 0l0 5.828125l7.515625 0l0 2.171875l-7.515625 0l0 12.171875l7.515625 0l0 2.171875l-6.421875 0z" fill-rule="nonzero"/></g></svg>