<svg version="1.1" viewBox="0.0 0.0 720 300" fill="none" stroke="none" stroke-linecap="square" stroke-miterlimit="10" xmlns:xlink="http://www.w3.org/1999/xlink" xmlns="http://www.w3.org/2000/svg"><clipPath id="p.0"><path d="m0 0l800.0 0l0 600.0l-800.0 0l0 -600.0z" clip-rule="nonzero"/></clipPath><g clip-path="url(#p.0)"><path fill="#000000" fill-opacity="0.0" d="m1.9908136 232.22835l68.031494 0" fill-rule="evenodd"/><path stroke="#000000" stroke-width="1.0" stroke-linejoin="round" stroke-linecap="butt" d="m1.9908136 232.22835l68.031494 0" fill-rule="evenodd"/><path fill="#000000" fill-opacity="0.0" d="m1.9908136 199.95801l68.031494 0l0 42.015747l-68.031494 0z" fill-rule="evenodd"/><path fill="#ff0000" d="m38.08156 226.65001l-0.171875 0q-0.171875 0.40625 -0.421875 0.78125q-0.234375 0.375 -0.59375 0.671875q-0.34375 0.28125 -0.828125 0.4375q-0.46875 0.171875 -1.0625 0.171875q-0.953125 0 -1.6875 -0.4375q-0.734375 -0.453125 -1.25 -1.3125q-0.4999981 -0.859375 -0.7499981 -2.078125q-0.25 -1.234375 -0.25 -2.796875q0 -3.3125 1.2031231 -5.078125q1.21875 -1.765625 3.75 -1.765625q1.015625 0 1.78125 0.28125q0.765625 0.265625 1.3125 0.765625q0.546875 0.484375 0.90625 1.1875q0.359375 0.6875 0.5625 1.515625l-2.609375 0.640625q-0.125 -0.40625 -0.265625 -0.78125q-0.140625 -0.390625 -0.359375 -0.6875q-0.21875 -0.3125 -0.5625 -0.484375q-0.328125 -0.171875 -0.8125 -0.171875q-1.0625 0 -1.5 0.875q-0.4375 0.875 -0.4375 2.453125l0 2.140625q0 1.578125 0.46875 2.53125q0.484375 0.953125 1.6875 0.953125q0.953125 0 1.421875 -0.5625q0.46875 -0.5625 0.46875 -1.4375l0 -0.953125l-2.21875 0l0 -1.96875l4.71875 0l0 6.953125l-2.5 0l0 -1.84375z" fill-rule="nonzero"/><path fill="#000000" fill-opacity="0.0" d="m1.9908136 190.2126l68.031494 0" fill-rule="evenodd"/><path stroke="#000000" stroke-width="1.0" stroke-linejoin="round" stroke-linecap="butt" d="m1.9908136 190.2126l68.031494 0" fill-rule="evenodd"/><path fill="#000000" fill-opacity="0.0" d="m1.9908136 157.94226l68.031494 0l0 42.015747l-68.031494 0z" fill-rule="evenodd"/><path fill="#ff0000" d="m31.909685 186.47801l0 -13.015625l8.624998 0l0 2.28125l-5.828125 0l0 2.984375l5.21875 0l0 2.296875l-5.21875 0l0 5.453125l-2.796873 0z" fill-rule="nonzero"/><path fill="#000000" fill-opacity="0.0" d="m-0.001312336 199.95801l31.968504 0l0 42.015747l-31.968504 0z" fill-rule="evenodd"/><path fill="#000000" d="m18.342438 215.22176l-5.8125 0l-0.375 4.984375l0.125 0q0.484375 -0.65625 1.078125 -1.03125q0.609375 -0.390625 1.640625 -0.390625q0.859375 0 1.578125 0.265625q0.71875 0.265625 1.234375 0.796875q0.53125 0.515625 0.828125 1.265625q0.296875 0.734375 0.296875 1.6875q0 0.9375 -0.296875 1.734375q-0.296875 0.796875 -0.875 1.375q-0.578125 0.5625 -1.40625 0.875q-0.8125 0.3125 -1.859375 0.3125q-0.8125 0 -1.46875 -0.1875q-0.640625 -0.1875 -1.140625 -0.5q-0.484375 -0.3125 -0.859375 -0.703125q-0.375 -0.390625 -0.671875 -0.828125l1.171875 -0.890625q0.265625 0.390625 0.53125 0.71875q0.28125 0.3125 0.625 0.546875q0.359375 0.21875 0.796875 0.359375q0.453125 0.125 1.0625 0.125q1.34375 0 2.0625 -0.71875q0.71875 -0.734375 0.71875 -2.015625l0 -0.15625q0 -1.28125 -0.734375 -2.0q-0.734375 -0.734375 -2.09375 -0.734375q-0.921875 0 -1.4375 0.3125q-0.515625 0.3125 -0.953125 0.78125l-1.3125 -0.1875l0.453125 -7.15625l7.09375 0l0 1.359375z" fill-rule="nonzero"/><path fill="#000000" fill-opacity="0.0" d="m-0.001312336 157.94226l31.968504 0l0 42.015747l-31.968504 0z" fill-rule="evenodd"/><path fill="#000000" d="m16.045563 184.86226l0 -2.5625l-6.40625 0l0 -1.375l5.625 -9.078125l2.28125 0l0 9.171875l1.9375 0l0 1.28125l-1.9375 0l0 2.5625l-1.5 0zm-5.015625 -3.84375l5.015625 0l0 -7.96875l-0.0625 0l-4.953125 7.96875z" fill-rule="nonzero"/><path fill="#000000" fill-opacity="0.0" d="m70.02362 189.7664l0 42.92914" fill-rule="evenodd"/><path stroke="#000000" stroke-width="1.0" stroke-linejoin="round" stroke-linecap="butt" d="m70.02362 189.7664l0 42.92914" fill-rule="evenodd"/><path fill="#000000" fill-opacity="0.0" d="m70.02231 211.23097l68.031494 0" fill-rule="evenodd"/><path stroke="#000000" stroke-width="1.0" stroke-linejoin="round" stroke-linecap="butt" d="m70.02231 211.23097l68.031494 0" fill-rule="evenodd"/><path fill="#000000" fill-opacity="0.0" d="m70.496124 178.95013l67.55905 0l0 42.015747l-67.55905 0z" fill-rule="evenodd"/><path fill="#ff0000" d="m100.17877 207.48589l0 -13.015625l8.625 0l0 2.28125l-5.828125 0l0 2.984375l5.21875 0l0 2.296875l-5.21875 0l0 5.453125l-2.796875 0z" fill-rule="nonzero"/><path fill="#000000" fill-opacity="0.0" d="m1.992126 148.19685l68.031494 0" fill-rule="evenodd"/><path stroke="#000000" stroke-width="1.0" stroke-linejoin="round" stroke-linecap="butt" d="m1.992126 148.19685l68.031494 0" fill-rule="evenodd"/><path fill="#000000" fill-opacity="0.0" d="m1.992126 115.926506l68.031494 0l0 42.015755l-68.031494 0z" fill-rule="evenodd"/><path fill="#ff0000" d="m37.64537 139.00912l-3.28125 0l0 5.453125l-2.812498 0l0 -13.015625l2.812498 0l0 5.265625l3.28125 0l0 -5.265625l2.828125 0l0 13.015625l-2.828125 0l0 -5.453125z" fill-rule="nonzero"/><path fill="#000000" fill-opacity="0.0" d="m1.992126 106.1811l68.031494 0" fill-rule="evenodd"/><path stroke="#000000" stroke-width="1.0" stroke-linejoin="round" stroke-linecap="butt" d="m1.992126 106.1811l68.031494 0" fill-rule="evenodd"/><path fill="#000000" fill-opacity="0.0" d="m1.992126 73.91076l68.031494 0l0 42.015747l-68.031494 0z" fill-rule="evenodd"/><path fill="#ff0000" d="m38.52037 102.44651l-0.8125 -3.140625l-3.5625 0l-0.8125 3.140625l-2.828123 0l3.531248 -13.015625l3.953125 0l3.515625 13.015625l-2.984375 0zm-2.515625 -10.3125l-0.140625 0l-1.28125 4.921875l2.6875 0l-1.265625 -4.921875z" fill-rule="nonzero"/><path fill="#000000" fill-opacity="0.0" d="m0 115.926506l31.968504 0l0 42.015755l-31.968504 0z" fill-rule="evenodd"/><path fill="#000000" d="m14.609375 143.06526q-1.015625 0 -1.84375 -0.34375q-0.8125 -0.34375 -1.390625 -0.984375q-0.5625 -0.640625 -0.875 -1.578125q-0.3125 -0.9375 -0.3125 -2.09375q0 -1.453125 0.4375 -2.71875q0.453125 -1.28125 1.125 -2.328125q0.6875 -1.0625 1.515625 -1.875q0.84375 -0.8125 1.640625 -1.3125l2.015625 0q-1.0625 0.765625 -1.890625 1.5q-0.828125 0.71875 -1.46875 1.515625q-0.625 0.78125 -1.0625 1.6875q-0.421875 0.90625 -0.703125 2.046875l0.09375 0.03125q0.46875 -0.796875 1.234375 -1.328125q0.765625 -0.53125 1.96875 -0.53125q0.859375 0 1.5625 0.28125q0.71875 0.28125 1.234375 0.796875q0.53125 0.515625 0.8125 1.265625q0.296875 0.75 0.296875 1.671875q0 0.9375 -0.328125 1.734375q-0.3125 0.796875 -0.875 1.375q-0.5625 0.5625 -1.375 0.875q-0.8125 0.3125 -1.8125 0.3125zm-0.015625 -1.3125q1.34375 0 2.078125 -0.734375q0.734375 -0.734375 0.734375 -2.046875l0 -0.15625q0 -1.328125 -0.734375 -2.046875q-0.734375 -0.734375 -2.078125 -0.734375q-1.34375 0 -2.078125 0.734375q-0.734375 0.71875 -0.734375 2.046875l0 0.15625q0 1.3125 0.734375 2.046875q0.734375 0.734375 2.078125 0.734375z" fill-rule="nonzero"/><path fill="#000000" fill-opacity="0.0" d="m0 73.91076l31.968504 0l0 42.015747l-31.968504 0z" fill-rule="evenodd"/><path fill="#000000" d="m14.03125 93.33076q1.375 0 2.046875 -0.609375q0.6875 -0.609375 0.6875 -1.546875l0 -0.140625q0 -1.046875 -0.671875 -1.5625q-0.65625 -0.53125 -1.71875 -0.53125q-1.046875 0 -1.6875 0.46875q-0.640625 0.453125 -1.0625 1.203125l-1.171875 -0.90625q0.25 -0.390625 0.59375 -0.765625q0.359375 -0.390625 0.828125 -0.6875q0.484375 -0.296875 1.109375 -0.484375q0.625 -0.1875 1.421875 -0.1875q0.84375 0 1.5625 0.21875q0.734375 0.21875 1.265625 0.640625q0.546875 0.40625 0.859375 1.03125q0.3125 0.609375 0.3125 1.390625q0 0.640625 -0.203125 1.140625q-0.1875 0.5 -0.53125 0.875q-0.34375 0.375 -0.8125 0.640625q-0.46875 0.265625 -1.0 0.390625l0 0.078125q0.546875 0.109375 1.046875 0.359375q0.5 0.25 0.890625 0.65625q0.40625 0.40625 0.625 0.96875q0.234375 0.5625 0.234375 1.296875q0 0.84375 -0.328125 1.546875q-0.3125 0.6875 -0.90625 1.1875q-0.59375 0.5 -1.421875 0.78125q-0.828125 0.265625 -1.828125 0.265625q-0.859375 0 -1.53125 -0.1875q-0.65625 -0.1875 -1.171875 -0.5q-0.515625 -0.3125 -0.90625 -0.703125q-0.375 -0.390625 -0.671875 -0.828125l1.1875 -0.890625q0.25 0.390625 0.53125 0.71875q0.28125 0.3125 0.640625 0.546875q0.375 0.21875 0.828125 0.359375q0.46875 0.125 1.09375 0.125q1.375 0 2.109375 -0.625q0.734375 -0.640625 0.734375 -1.8125l0 -0.15625q0 -1.15625 -0.71875 -1.78125q-0.71875 -0.640625 -2.140625 -0.640625l-1.5625 0l0 -1.34375l1.4375 0z" fill-rule="nonzero"/><path fill="#000000" fill-opacity="0.0" d="m70.02493 105.73491l0 42.92914" fill-rule="evenodd"/><path stroke="#000000" stroke-width="1.0" stroke-linejoin="round" stroke-linecap="butt" d="m70.02493 105.73491l0 42.92914" fill-rule="evenodd"/><path fill="#000000" fill-opacity="0.0" d="m70.02362 127.19948l68.031494 0" fill-rule="evenodd"/><path stroke="#000000" stroke-width="1.0" stroke-linejoin="round" stroke-linecap="butt" d="m70.02362 127.19948l68.031494 0" fill-rule="evenodd"/><path fill="#000000" fill-opacity="0.0" d="m70.49744 94.91863l67.55905 0l0 42.015755l-67.55905 0z" fill-rule="evenodd"/><path fill="#ff0000" d="m105.91446 118.00126l-3.28125 0l0 5.453125l-2.8125 0l0 -13.015625l2.8125 0l0 5.265625l3.28125 0l0 -5.265625l2.828125 0l0 13.015625l-2.828125 0l0 -5.453125z" fill-rule="nonzero"/><path fill="#000000" fill-opacity="0.0" d="m2.9895012 64.16535l68.031494 0" fill-rule="evenodd"/><path stroke="#000000" stroke-width="1.0" stroke-linejoin="round" stroke-linecap="butt" d="m2.9895012 64.16535l68.031494 0" fill-rule="evenodd"/><path fill="#000000" fill-opacity="0.0" d="m2.9895012 31.895014l68.031494 0l0 42.015747l-68.031494 0z" fill-rule="evenodd"/><path fill="#ff0000" d="m39.455246 54.633884l0.140625 -3.640625l-0.171875 0l-2.421875 6.6875l-2.421875 -6.6875l-0.171875 0l0.15625 3.640625l0 5.796875l-2.421875 0l0 -13.015625l3.296875 0l1.609375 4.375l0.140625 0l1.609375 -4.375l3.078125 0l0 13.015625l-2.421875 0l0 -5.796875z" fill-rule="nonzero"/><path fill="#000000" fill-opacity="0.0" d="m2.9895012 22.149607l68.031494 0" fill-rule="evenodd"/><path stroke="#000000" stroke-width="1.0" stroke-linejoin="round" stroke-linecap="butt" d="m2.9895012 22.149607l68.031494 0" fill-rule="evenodd"/><path fill="#000000" fill-opacity="0.0" d="m2.9895012 -10.120735l68.031494 0l0 42.015747l-68.031494 0z" fill-rule="evenodd"/><path fill="#ff0000" d="m32.81462 18.415012l0 -2.078125l2.796875 0l0 -8.875l-2.796875 0l0 -2.0625l8.390625 0l0 2.0625l-2.796875 0l0 8.875l2.796875 0l0 2.078125l-8.390625 0z" fill-rule="nonzero"/><path fill="#000000" fill-opacity="0.0" d="m0.9973753 31.895014l31.968502 0l0 42.015747l-31.968502 0z" fill-rule="evenodd"/><path fill="#000000" d="m13.2317505 58.81501l5.09375 -11.671875l-5.71875 0l0 2.421875l-1.390625 0l0 -3.765625l8.6875 0l0 1.375l-5.0 11.640625l-1.671875 0z" fill-rule="nonzero"/><path fill="#000000" fill-opacity="0.0" d="m0.9973753 -10.120735l31.968502 0l0 42.015747l-31.968502 0z" fill-rule="evenodd"/><path fill="#000000" d="m20.013 16.799263l-8.6875 0l0 -1.609375l4.34375 -3.90625q0.953125 -0.859375 1.5625 -1.765625q0.625 -0.90625 0.625 -1.9218745l0 -0.21875q0 -1.171875 -0.625 -1.8125q-0.609375 -0.65625 -1.828125 -0.65625q-1.1875 0 -1.84375 0.609375q-0.640625 0.609375 -0.953125 1.625l-1.390625 -0.53125q0.1875 -0.578125 0.5 -1.125q0.328125 -0.546875 0.828125 -0.96875q0.515625 -0.4375 1.234375 -0.70312524q0.71875 -0.265625 1.671875 -0.265625q0.96875 0 1.71875 0.28125q0.75 0.28125024 1.265625 0.79687524q0.515625 0.5 0.78125 1.1875q0.28125 0.6875 0.28125 1.5q0 0.7499995 -0.21875 1.4062495q-0.21875 0.65625 -0.609375 1.25q-0.375 0.59375 -0.90625 1.171875q-0.53125 0.5625 -1.1875 1.125l-3.625 3.171875l7.0625 0l0 1.359375z" fill-rule="nonzero"/><path fill="#000000" fill-opacity="0.0" d="m71.02231 21.703413l0 42.92913" fill-rule="evenodd"/><path stroke="#000000" stroke-width="1.0" stroke-linejoin="round" stroke-linecap="butt" d="m71.02231 21.703413l0 42.92913" fill-rule="evenodd"/><path fill="#000000" fill-opacity="0.0" d="m71.020996 43.16798l68.031494 0" fill-rule="evenodd"/><path stroke="#000000" stroke-width="1.0" stroke-linejoin="round" stroke-linecap="butt" d="m71.020996 43.16798l68.031494 0" fill-rule="evenodd"/><path fill="#000000" fill-opacity="0.0" d="m71.49481 10.887139l67.55905 0l0 42.015747l-67.55905 0z" fill-rule="evenodd"/><path fill="#ff0000" d="m101.08371 39.422886l0 -2.078125l2.796875 0l0 -8.875l-2.796875 0l0 -2.0625l8.390625 0l0 2.0625l-2.796875 0l0 8.875l2.796875 0l0 2.078125l-8.390625 0z" fill-rule="nonzero"/><path fill="#000000" fill-opacity="0.0" d="m187.16667 190.24672l68.031494 0" fill-rule="evenodd"/><path stroke="#000000" stroke-width="1.0" stroke-linejoin="round" stroke-linecap="butt" d="m187.16667 190.24672l68.031494 0" fill-rule="evenodd"/><path fill="#000000" fill-opacity="0.0" d="m187.43312 157.94226l68.031494 0l0 42.015747l-68.031494 0z" fill-rule="evenodd"/><path fill="#ff0000" d="m217.35199 186.47801l0 -13.015625l8.625 0l0 2.28125l-5.828125 0l0 2.984375l5.21875 0l0 2.296875l-5.21875 0l0 5.453125l-2.796875 0z" fill-rule="nonzero"/><path fill="#000000" fill-opacity="0.0" d="m187.42389 148.19685l68.031494 0" fill-rule="evenodd"/><path stroke="#000000" stroke-width="1.0" stroke-linejoin="round" stroke-linecap="butt" d="m187.42389 148.19685l68.031494 0" fill-rule="evenodd"/><path fill="#000000" fill-opacity="0.0" d="m187.42389 115.926506l68.031494 0l0 42.015755l-68.031494 0z" fill-rule="evenodd"/><path fill="#ff0000" d="m217.24901 144.46225l0 -2.078125l2.796875 0l0 -8.875l-2.796875 0l0 -2.0625l8.390625 0l0 2.0625l-2.796875 0l0 8.875l2.796875 0l0 2.078125l-8.390625 0z" fill-rule="nonzero"/><path fill="#000000" fill-opacity="0.0" d="m255.4567 148.38058l0 41.826767" fill-rule="evenodd"/><path stroke="#000000" stroke-width="1.0" stroke-linejoin="round" stroke-linecap="butt" d="m255.4567 148.38058l0 41.826767" fill-rule="evenodd"/><path fill="#000000" fill-opacity="0.0" d="m187.4252 106.1811l68.031494 0" fill-rule="evenodd"/><path stroke="#000000" stroke-width="1.0" stroke-linejoin="round" stroke-linecap="butt" d="m187.4252 106.1811l68.031494 0" fill-rule="evenodd"/><path fill="#000000" fill-opacity="0.0" d="m187.4252 73.91076l68.031494 0l0 42.015747l-68.031494 0z" fill-rule="evenodd"/><path fill="#ff0000" d="m223.07845 96.993385l-3.28125 0l0 5.453125l-2.8125 0l0 -13.015625l2.8125 0l0 5.265625l3.28125 0l0 -5.265625l2.828125 0l0 13.015625l-2.828125 0l0 -5.453125z" fill-rule="nonzero"/><path fill="#000000" fill-opacity="0.0" d="m187.4252 64.16535l68.031494 0" fill-rule="evenodd"/><path stroke="#000000" stroke-width="1.0" stroke-linejoin="round" stroke-linecap="butt" d="m187.4252 64.16535l68.031494 0" fill-rule="evenodd"/><path fill="#000000" fill-opacity="0.0" d="m187.4252 31.895014l68.031494 0l0 42.015747l-68.031494 0z" fill-rule="evenodd"/><path fill="#ff0000" d="m217.56282 60.43076l0 -13.015625l2.8125 0l0 10.71875l5.59375 0l0 2.296875l-8.40625 0z" fill-rule="nonzero"/><path fill="#000000" fill-opacity="0.0" d="m255.45801 64.34908l0 41.826767" fill-rule="evenodd"/><path stroke="#000000" stroke-width="1.0" stroke-linejoin="round" stroke-linecap="butt" d="m255.45801 64.34908l0 41.826767" fill-rule="evenodd"/><path fill="#000000" fill-opacity="0.0" d="m255.4567 86.69029l68.031494 0" fill-rule="evenodd"/><path stroke="#000000" stroke-width="1.0" stroke-linejoin="round" stroke-linecap="butt" d="m255.4567 86.69029l68.031494 0" fill-rule="evenodd"/><path fill="#000000" fill-opacity="0.0" d="m255.4567 54.41995l68.031494 0l0 42.015743l-68.031494 0z" fill-rule="evenodd"/><path fill="#ff0000" d="m291.10992 77.50257l-3.28125 0l0 5.453125l-2.8125 0l0 -13.015625l2.8125 0l0 5.265625l3.28125 0l0 -5.265625l2.828125 0l0 13.015625l-2.828125 0l0 -5.453125z" fill-rule="nonzero"/><path fill="#000000" fill-opacity="0.0" d="m255.45538 170.72179l68.031494 0" fill-rule="evenodd"/><path stroke="#000000" stroke-width="1.0" stroke-linejoin="round" stroke-linecap="butt" d="m255.45538 170.72179l68.031494 0" fill-rule="evenodd"/><path fill="#000000" fill-opacity="0.0" d="m255.45538 138.45145l68.031494 0l0 42.015747l-68.031494 0z" fill-rule="evenodd"/><path fill="#ff0000" d="m285.37424 166.9872l0 -13.015625l8.625 0l0 2.28125l-5.828125 0l0 2.984375l5.21875 0l0 2.296875l-5.21875 0l0 5.453125l-2.796875 0z" fill-rule="nonzero"/><path fill="#000000" fill-opacity="0.0" d="m187.16798 31.895014l31.968506 0l0 42.015747l-31.968506 0z" fill-rule="evenodd"/><path fill="#000000" d="m197.74611 58.81501l0 -1.359375l3.734375 0l0 -10.5l-0.125 0l-3.28125 3.046875l-0.921875 -0.984375l3.453125 -3.21875l2.453125 0l0 11.65625l3.421875 0l0 1.359375l-8.734375 0z" fill-rule="nonzero"/><path fill="#000000" fill-opacity="0.0" d="m187.16798 73.91076l31.968506 0l0 42.015747l-31.968506 0z" fill-rule="evenodd"/><path fill="#000000" d="m203.21486 100.83076l0 -2.5625l-6.40625 0l0 -1.375l5.625 -9.078125l2.28125 0l0 9.171875l1.9375 0l0 1.28125l-1.9375 0l0 2.5625l-1.5 0zm-5.015625 -3.84375l5.015625 0l0 -7.96875l-0.0625 0l-4.953125 7.96875z" fill-rule="nonzero"/><path fill="#000000" fill-opacity="0.0" d="m187.16798 115.926506l31.968506 0l0 42.015755l-31.968506 0z" fill-rule="evenodd"/><path fill="#000000" d="m206.18361 142.84651l-8.6875 0l0 -1.609375l4.34375 -3.90625q0.953125 -0.859375 1.5625 -1.765625q0.625 -0.90625 0.625 -1.921875l0 -0.21875q0 -1.171875 -0.625 -1.8125q-0.609375 -0.65625 -1.828125 -0.65625q-1.1875 0 -1.84375 0.609375q-0.640625 0.609375 -0.953125 1.625l-1.390625 -0.53125q0.1875 -0.578125 0.5 -1.125q0.328125 -0.546875 0.828125 -0.96875q0.515625 -0.4375 1.234375 -0.703125q0.71875 -0.265625 1.671875 -0.265625q0.96875 0 1.71875 0.28125q0.75 0.28125 1.265625 0.796875q0.515625 0.5 0.78125 1.1875q0.28125 0.6875 0.28125 1.5q0 0.75 -0.21875 1.40625q-0.21875 0.65625 -0.609375 1.25q-0.375 0.59375 -0.90625 1.171875q-0.53125 0.5625 -1.1875 1.125l-3.625 3.171875l7.0625 0l0 1.359375z" fill-rule="nonzero"/><path fill="#000000" fill-opacity="0.0" d="m187.16798 157.94226l31.968506 0l0 42.015747l-31.968506 0z" fill-rule="evenodd"/><path fill="#000000" d="m201.19923 177.36226q1.375 0 2.046875 -0.609375q0.6875 -0.609375 0.6875 -1.546875l0 -0.140625q0 -1.046875 -0.671875 -1.5625q-0.65625 -0.53125 -1.71875 -0.53125q-1.046875 0 -1.6875 0.46875q-0.640625 0.453125 -1.0625 1.203125l-1.171875 -0.90625q0.25 -0.390625 0.59375 -0.765625q0.359375 -0.390625 0.828125 -0.6875q0.484375 -0.296875 1.109375 -0.484375q0.625 -0.1875 1.421875 -0.1875q0.84375 0 1.5625 0.21875q0.734375 0.21875 1.265625 0.640625q0.546875 0.40625 0.859375 1.03125q0.3125 0.609375 0.3125 1.390625q0 0.640625 -0.203125 1.140625q-0.1875 0.5 -0.53125 0.875q-0.34375 0.375 -0.8125 0.640625q-0.46875 0.265625 -1.0 0.390625l0 0.078125q0.546875 0.109375 1.046875 0.359375q0.5 0.25 0.890625 0.65625q0.40625 0.40625 0.625 0.96875q0.234375 0.5625 0.234375 1.296875q0 0.84375 -0.328125 1.546875q-0.3125 0.6875 -0.90625 1.1875q-0.59375 0.5 -1.421875 0.78125q-0.828125 0.265625 -1.828125 0.265625q-0.859375 0 -1.53125 -0.1875q-0.65625 -0.1875 -1.171875 -0.5q-0.515625 -0.3125 -0.90625 -0.703125q-0.375 -0.390625 -0.671875 -0.828125l1.1875 -0.890625q0.25 0.390625 0.53125 0.71875q0.28125 0.3125 0.640625 0.546875q0.375 0.21875 0.828125 0.359375q0.46875 0.125 1.09375 0.125q1.375 0 2.109375 -0.625q0.734375 -0.640625 0.734375 -1.8125l0 -0.15625q0 -1.15625 -0.71875 -1.78125q-0.71875 -0.640625 -2.140625 -0.640625l-1.5625 0l0 -1.34375l1.4375 0z" fill-rule="nonzero"/><path fill="#000000" fill-opacity="0.0" d="m323.48688 86.69029l0 84.031494" fill-rule="evenodd"/><path stroke="#000000" stroke-width="1.0" stroke-linejoin="round" stroke-linecap="butt" d="m323.48688 86.69029l0 84.031494" fill-rule="evenodd"/><path fill="#000000" fill-opacity="0.0" d="m294.979 106.191605l28.503937 0l0 42.015747l-28.503937 0z" fill-rule="evenodd"/><path fill="#ff0000" d="m305.479 134.72736l0 -13.015633l8.625 0l0 2.28125l-5.828125 0l0 2.984375l5.21875 0l0 2.2968826l-5.21875 0l0 5.453125l-2.796875 0z" fill-rule="nonzero"/><path fill="#000000" fill-opacity="0.0" d="m323.4882 128.70604l68.031494 0" fill-rule="evenodd"/><path stroke="#000000" stroke-width="1.0" stroke-linejoin="round" stroke-linecap="butt" d="m323.4882 128.70604l68.031494 0" fill-rule="evenodd"/><path fill="#000000" fill-opacity="0.0" d="m323.98688 96.43569l67.55905 0l0 42.015755l-67.55905 0z" fill-rule="evenodd"/><path fill="#ff0000" d="m357.76328 125.19019q-2.609375 0 -3.859375 -1.765625q-1.234375 -1.78125 -1.234375 -4.96875q0 -3.1875 1.234375 -4.953125q1.25 -1.78125 3.859375 -1.78125q2.609375 0 3.84375 1.78125q1.25 1.765625 1.25 4.953125q0 3.1875 -1.25 4.96875q-1.234375 1.765625 -3.84375 1.765625zm0 -2.25q1.203125 0 1.65625 -0.890625q0.453125 -0.890625 0.453125 -2.46875l0 -2.265625q0 -1.5625 -0.453125 -2.4375q-0.453125 -0.890625 -1.65625 -0.890625q-1.1875 0 -1.65625 0.890625q-0.453125 0.875 -0.453125 2.4375l0 2.28125q0 1.5625 0.453125 2.453125q0.46875 0.890625 1.65625 0.890625z" fill-rule="nonzero"/><path fill="#000000" fill-opacity="0.0" d="m391.51837 86.69029l0 84.031494" fill-rule="evenodd"/><path stroke="#000000" stroke-width="1.0" stroke-linejoin="round" stroke-linecap="butt" d="m391.51837 86.69029l0 84.031494" fill-rule="evenodd"/><path fill="#000000" fill-opacity="0.0" d="m391.51968 86.69029l68.031494 0" fill-rule="evenodd"/><path stroke="#000000" stroke-width="1.0" stroke-linejoin="round" stroke-linecap="butt" d="m391.51968 86.69029l68.031494 0" fill-rule="evenodd"/><path fill="#000000" fill-opacity="0.0" d="m391.51968 54.41995l68.031494 0l0 42.015743l-68.031494 0z" fill-rule="evenodd"/><path fill="#ff0000" d="m425.53232 83.174446q-2.609375 0 -3.859375 -1.765625q-1.234375 -1.78125 -1.234375 -4.96875q0 -3.1875 1.234375 -4.953125q1.25 -1.78125 3.859375 -1.78125q2.609375 0 3.84375 1.78125q1.25 1.765625 1.25 4.953125q0 3.1875 -1.25 4.96875q-1.234375 1.765625 -3.84375 1.765625zm0 -2.25q1.203125 0 1.65625 -0.890625q0.453125 -0.890625 0.453125 -2.46875l0 -2.265625q0 -1.5625 -0.453125 -2.4375q-0.453125 -0.890625 -1.65625 -0.890625q-1.1875 0 -1.65625 0.890625q-0.453125 0.875 -0.453125 2.4375l0 2.28125q0 1.5625 0.453125 2.453125q0.46875 0.890625 1.65625 0.890625z" fill-rule="nonzero"/><path fill="#000000" fill-opacity="0.0" d="m391.51837 170.72179l68.031494 0" fill-rule="evenodd"/><path stroke="#000000" stroke-width="1.0" stroke-linejoin="round" stroke-linecap="butt" d="m391.51837 170.72179l68.031494 0" fill-rule="evenodd"/><path fill="#000000" fill-opacity="0.0" d="m391.51837 138.45145l68.031494 0l0 42.015747l-68.031494 0z" fill-rule="evenodd"/><path fill="#ff0000" d="m424.14038 166.9872l0 -4.609375l-4.125 -8.40625l3.109375 0l1.390625 3.015625l1.0 2.5625l0.15625 0l1.0 -2.5625l1.375 -3.015625l3.015625 0l-4.125 8.40625l0 4.609375l-2.796875 0z" fill-rule="nonzero"/><path fill="#000000" fill-opacity="0.0" d="m386.2126 107.698166l34.362213 0l0 42.015747l-34.362213 0z" fill-rule="evenodd"/><path fill="#ff0000" d="m403.39056 136.45267q-2.609375 0 -3.859375 -1.765625q-1.234375 -1.78125 -1.234375 -4.96875q0 -3.1875076 1.234375 -4.9531326q1.25 -1.78125 3.859375 -1.78125q2.609375 0 3.84375 1.78125q1.25 1.765625 1.25 4.9531326q0 3.1875 -1.25 4.96875q-1.234375 1.765625 -3.84375 1.765625zm0 -2.25q1.203125 0 1.65625 -0.890625q0.453125 -0.890625 0.453125 -2.46875l0 -2.265625q0 -1.5625076 -0.453125 -2.4375076q-0.453125 -0.890625 -1.65625 -0.890625q-1.1875 0 -1.65625 0.890625q-0.453125 0.875 -0.453125 2.4375076l0 2.28125q0 1.5625 0.453125 2.453125q0.46875 0.890625 1.65625 0.890625z" fill-rule="nonzero"/><path fill="#000000" fill-opacity="0.0" d="m460.0735 149.8084l0 41.826782" fill-rule="evenodd"/><path stroke="#000000" stroke-width="1.0" stroke-linejoin="round" stroke-linecap="butt" d="m460.0735 149.8084l0 41.826782" fill-rule="evenodd"/><path fill="#000000" fill-opacity="0.0" d="m460.0748 65.7769l0 41.826775" fill-rule="evenodd"/><path stroke="#000000" stroke-width="1.0" stroke-linejoin="round" stroke-linecap="butt" d="m460.0748 65.7769l0 41.826775" fill-rule="evenodd"/><path fill="#000000" fill-opacity="0.0" d="m460.07217 191.76378l68.031525 0" fill-rule="evenodd"/><path stroke="#000000" stroke-width="1.0" stroke-linejoin="round" stroke-linecap="butt" d="m460.07217 191.76378l68.031525 0" fill-rule="evenodd"/><path fill="#000000" fill-opacity="0.0" d="m460.33862 159.45932l68.031494 0l0 42.015747l-68.031494 0z" fill-rule="evenodd"/><path fill="#ff0000" d="m492.96063 187.99507l0 -4.609375l-4.125 -8.40625l3.109375 0l1.390625 3.015625l1.0 2.5625l0.15625 0l1.0 -2.5625l1.375 -3.015625l3.015625 0l-4.125 8.40625l0 4.609375l-2.796875 0z" fill-rule="nonzero"/><path fill="#000000" fill-opacity="0.0" d="m460.3294 149.71391l68.031494 0" fill-rule="evenodd"/><path stroke="#000000" stroke-width="1.0" stroke-linejoin="round" stroke-linecap="butt" d="m460.3294 149.71391l68.031494 0" fill-rule="evenodd"/><path fill="#000000" fill-opacity="0.0" d="m460.3294 117.44357l68.031494 0l0 42.015747l-68.031494 0z" fill-rule="evenodd"/><path fill="#ff0000" d="m494.1389 146.19807q-1.640625 0 -2.859375 -0.53125q-1.203125 -0.546875 -1.953125 -1.484375l1.625 -1.78125q0.703125 0.78125 1.546875 1.15625q0.859375 0.375 1.734375 0.375q1.015625 0 1.53125 -0.453125q0.515625 -0.453125 0.515625 -1.28125q0 -0.703125 -0.40625 -1.046875q-0.390625 -0.359375 -1.34375 -0.5l-1.359375 -0.234375q-1.75 -0.296875 -2.546875 -1.296875q-0.78125 -1.0 -0.78125 -2.4375q0 -1.875 1.234375 -2.90625q1.234375 -1.046875 3.453125 -1.046875q1.515625 0 2.625 0.46875q1.125 0.46875 1.8125 1.265625l-1.578125 1.78125q-0.53125 -0.578125 -1.234375 -0.90625q-0.703125 -0.328125 -1.609375 -0.328125q-1.875 0 -1.875 1.546875q0 0.671875 0.40625 1.015625q0.421875 0.328125 1.375 0.5l1.375 0.234375q1.578125 0.28125 2.4375 1.203125q0.859375 0.90625 0.859375 2.453125q0 0.921875 -0.328125 1.703125q-0.3125 0.765625 -0.953125 1.34375q-0.625 0.5625 -1.546875 0.875q-0.921875 0.3125 -2.15625 0.3125z" fill-rule="nonzero"/><path fill="#000000" fill-opacity="0.0" d="m460.33072 107.698166l68.03146 0" fill-rule="evenodd"/><path stroke="#000000" stroke-width="1.0" stroke-linejoin="round" stroke-linecap="butt" d="m460.33072 107.698166l68.03146 0" fill-rule="evenodd"/><path fill="#000000" fill-opacity="0.0" d="m460.33072 75.42782l68.03146 0l0 42.015755l-68.03146 0z" fill-rule="evenodd"/><path fill="#ff0000" d="m495.74957 93.229195l0 10.734375l-2.796875 0l0 -10.734375l-3.75 0l0 -2.28125l10.296875 0l0 2.28125l-3.75 0z" fill-rule="nonzero"/><path fill="#000000" fill-opacity="0.0" d="m460.33072 65.68241l68.03146 0" fill-rule="evenodd"/><path stroke="#000000" stroke-width="1.0" stroke-linejoin="round" stroke-linecap="butt" d="m460.33072 65.68241l68.03146 0" fill-rule="evenodd"/><path fill="#000000" fill-opacity="0.0" d="m460.33072 33.412075l68.03146 0l0 42.015743l-68.03146 0z" fill-rule="evenodd"/><path fill="#ff0000" d="m494.34332 62.166573q-2.609375 0 -3.859375 -1.765625q-1.234375 -1.78125 -1.234375 -4.96875q0 -3.1875 1.234375 -4.953125q1.25 -1.78125 3.859375 -1.78125q2.609375 0 3.84375 1.78125q1.25 1.765625 1.25 4.953125q0 3.1875 -1.25 4.96875q-1.234375 1.765625 -3.84375 1.765625zm0 -2.25q1.203125 0 1.65625 -0.890625q0.453125 -0.890625 0.453125 -2.46875l0 -2.265625q0 -1.5625 -0.453125 -2.4375q-0.453125 -0.890625 -1.65625 -0.890625q-1.1875 0 -1.65625 0.890625q-0.453125 0.875 -0.453125 2.4375l0 2.28125q0 1.5625 0.453125 2.453125q0.46875 0.890625 1.65625 0.890625z" fill-rule="nonzero"/><path fill="#000000" fill-opacity="0.0" d="m496.39633 33.412075l31.968475 0l0 42.015743l-31.968475 0z" fill-rule="evenodd"/><path fill="#000000" d="m506.97446 60.332073l0 -1.359375l3.734375 0l0 -10.5l-0.125 0l-3.28125 3.046875l-0.921875 -0.984375l3.453125 -3.21875l2.4530945 0l0 11.65625l3.421875 0l0 1.359375l-8.7343445 0z" fill-rule="nonzero"/><path fill="#000000" fill-opacity="0.0" d="m496.39633 75.42782l31.968475 0l0 42.015755l-31.968475 0z" fill-rule="evenodd"/><path fill="#000000" d="m512.4432 102.34782l0 -2.5625l-6.4062195 0l0 -1.375l5.625 -9.078125l2.2812195 0l0 9.171875l1.9375 0l0 1.28125l-1.9375 0l0 2.5625l-1.5 0zm-5.0155945 -3.84375l5.0155945 0l0 -7.96875l-0.0625 0l-4.9530945 7.96875z" fill-rule="nonzero"/><path fill="#000000" fill-opacity="0.0" d="m496.39633 117.44357l31.968475 0l0 42.015747l-31.968475 0z" fill-rule="evenodd"/><path fill="#000000" d="m515.4119 144.36357l-8.6874695 0l0 -1.609375l4.34375 -3.90625q0.9530945 -0.859375 1.5624695 -1.765625q0.625 -0.90625 0.625 -1.921875l0 -0.21875q0 -1.171875 -0.625 -1.8125q-0.609375 -0.65625 -1.8280945 -0.65625q-1.1875 0 -1.84375 0.609375q-0.640625 0.609375 -0.953125 1.625l-1.390625 -0.53125q0.1875 -0.578125 0.5 -1.125q0.328125 -0.546875 0.828125 -0.96875q0.515625 -0.4375 1.234375 -0.703125q0.71875 -0.265625 1.671875 -0.265625q0.96875 0 1.7187195 0.28125q0.75 0.28125 1.265625 0.796875q0.515625 0.5 0.78125 1.1875q0.28125 0.6875 0.28125 1.5q0 0.75 -0.21875 1.40625q-0.21875 0.65625 -0.609375 1.25q-0.375 0.59375 -0.90625 1.171875q-0.53125 0.5625 -1.1874695 1.125l-3.625 3.171875l7.0624695 0l0 1.359375z" fill-rule="nonzero"/><path fill="#000000" fill-opacity="0.0" d="m496.39633 159.45932l31.968475 0l0 42.015747l-31.968475 0z" fill-rule="evenodd"/><path fill="#000000" d="m510.42758 178.87932q1.375 0 2.0468445 -0.609375q0.6875 -0.609375 0.6875 -1.546875l0 -0.140625q0 -1.046875 -0.671875 -1.5625q-0.6562195 -0.53125 -1.7187195 -0.53125q-1.046875 0 -1.6875 0.46875q-0.640625 0.453125 -1.0625 1.203125l-1.171875 -0.90625q0.25 -0.390625 0.59375 -0.765625q0.359375 -0.390625 0.828125 -0.6875q0.484375 -0.296875 1.109375 -0.484375q0.625 -0.1875 1.421875 -0.1875q0.84375 0 1.5624695 0.21875q0.734375 0.21875 1.265625 0.640625q0.546875 0.40625 0.859375 1.03125q0.3125 0.609375 0.3125 1.390625q0 0.640625 -0.203125 1.140625q-0.1875 0.5 -0.53125 0.875q-0.34375 0.375 -0.8125 0.640625q-0.46875 0.265625 -1.0 0.390625l0 0.078125q0.546875 0.109375 1.046875 0.359375q0.5 0.25 0.890625 0.65625q0.40625 0.40625 0.625 0.96875q0.234375 0.5625 0.234375 1.296875q0 0.84375 -0.328125 1.546875q-0.3125 0.6875 -0.90625 1.1875q-0.59375 0.5 -1.421875 0.78125q-0.8280945 0.265625 -1.8280945 0.265625q-0.859375 0 -1.53125 -0.1875q-0.65625 -0.1875 -1.171875 -0.5q-0.515625 -0.3125 -0.90625 -0.703125q-0.375 -0.390625 -0.671875 -0.828125l1.1875 -0.890625q0.25 0.390625 0.53125 0.71875q0.28125 0.3125 0.640625 0.546875q0.375 0.21875 0.828125 0.359375q0.46875 0.125 1.09375 0.125q1.375 0 2.1093445 -0.625q0.734375 -0.640625 0.734375 -1.8125l0 -0.15625q0 -1.15625 -0.71875 -1.78125q-0.7187195 -0.640625 -2.1405945 -0.640625l-1.5625 0l0 -1.34375l1.4375 0z" fill-rule="nonzero"/><path fill="#000000" fill-opacity="0.0" d="m646.1693 232.22835l68.031494 0" fill-rule="evenodd"/><path stroke="#000000" stroke-width="1.0" stroke-linejoin="round" stroke-linecap="butt" d="m646.1693 232.22835l68.031494 0" fill-rule="evenodd"/><path fill="#000000" fill-opacity="0.0" d="m646.1693 199.95801l68.031494 0l0 42.015747l-68.031494 0z" fill-rule="evenodd"/><path fill="#ff0000" d="m676.01 228.49376l0 -13.015625l5.03125 0q0.953125 0 1.703125 0.296875q0.75 0.28125 1.25 0.828125q0.515625 0.53125 0.78125 1.296875q0.265625 0.765625 0.265625 1.71875q0 0.953125 -0.265625 1.71875q-0.265625 0.75 -0.78125 1.296875q-0.5 0.546875 -1.25 0.84375q-0.75 0.28125 -1.703125 0.28125l-2.21875 0l0 4.734375l-2.8125 0zm2.8125 -7.0l1.515625 0q0.984375 0 1.359375 -0.375q0.390625 -0.375 0.390625 -1.21875l0 -0.5625q0 -0.859375 -0.390625 -1.234375q-0.375 -0.375 -1.359375 -0.375l-1.515625 0l0 3.765625z" fill-rule="nonzero"/><path fill="#000000" fill-opacity="0.0" d="m646.1693 190.2126l68.031494 0" fill-rule="evenodd"/><path stroke="#000000" stroke-width="1.0" stroke-linejoin="round" stroke-linecap="butt" d="m646.1693 190.2126l68.031494 0" fill-rule="evenodd"/><path fill="#000000" fill-opacity="0.0" d="m646.1693 157.94226l68.031494 0l0 42.015747l-68.031494 0z" fill-rule="evenodd"/><path fill="#ff0000" d="m678.79126 186.47801l0 -4.609375l-4.125 -8.40625l3.109375 0l1.390625 3.015625l1.0 2.5625l0.15625 0l1.0 -2.5625l1.375 -3.015625l3.015625 0l-4.125 8.40625l0 4.609375l-2.796875 0z" fill-rule="nonzero"/><path fill="#000000" fill-opacity="0.0" d="m682.395 199.95801l31.968506 0l0 42.015747l-31.968506 0z" fill-rule="evenodd"/><path fill="#000000" d="m700.7388 215.22176l-5.8125 0l-0.375 4.984375l0.125 0q0.484375 -0.65625 1.078125 -1.03125q0.609375 -0.390625 1.640625 -0.390625q0.859375 0 1.578125 0.265625q0.71875 0.265625 1.234375 0.796875q0.53125 0.515625 0.828125 1.265625q0.296875 0.734375 0.296875 1.6875q0 0.9375 -0.296875 1.734375q-0.296875 0.796875 -0.875 1.375q-0.578125 0.5625 -1.40625 0.875q-0.8125 0.3125 -1.859375 0.3125q-0.8125 0 -1.46875 -0.1875q-0.640625 -0.1875 -1.140625 -0.5q-0.484375 -0.3125 -0.859375 -0.703125q-0.375 -0.390625 -0.671875 -0.828125l1.171875 -0.890625q0.265625 0.390625 0.53125 0.71875q0.28125 0.3125 0.625 0.546875q0.359375 0.21875 0.796875 0.359375q0.453125 0.125 1.0625 0.125q1.34375 0 2.0625 -0.71875q0.71875 -0.734375 0.71875 -2.015625l0 -0.15625q0 -1.28125 -0.734375 -2.0q-0.734375 -0.734375 -2.09375 -0.734375q-0.921875 0 -1.4375 0.3125q-0.515625 0.3125 -0.953125 0.78125l-1.3125 -0.1875l0.453125 -7.15625l7.09375 0l0 1.359375z" fill-rule="nonzero"/><path fill="#000000" fill-opacity="0.0" d="m682.395 157.94226l31.968506 0l0 42.015747l-31.968506 0z" fill-rule="evenodd"/><path fill="#000000" d="m698.4419 184.86226l0 -2.5625l-6.40625 0l0 -1.375l5.625 -9.078125l2.28125 0l0 9.171875l1.9375 0l0 1.28125l-1.9375 0l0 2.5625l-1.5 0zm-5.015625 -3.84375l5.015625 0l0 -7.96875l-0.0625 0l-4.953125 7.96875z" fill-rule="nonzero"/><path fill="#000000" fill-opacity="0.0" d="m646.1706 148.19685l68.031494 0" fill-rule="evenodd"/><path stroke="#000000" stroke-width="1.0" stroke-linejoin="round" stroke-linecap="butt" d="m646.1706 148.19685l68.031494 0" fill-rule="evenodd"/><path fill="#000000" fill-opacity="0.0" d="m646.1706 115.926506l68.031494 0l0 42.015755l-68.031494 0z" fill-rule="evenodd"/><path fill="#ff0000" d="m678.32385 135.806l-0.203125 0l0 8.65625l-2.390625 0l0 -13.015625l3.359375 0l2.96875 8.65625l0.203125 0l0 -8.65625l2.390625 0l0 13.015625l-3.359375 0l-2.96875 -8.65625z" fill-rule="nonzero"/><path fill="#000000" fill-opacity="0.0" d="m646.1706 106.1811l68.031494 0" fill-rule="evenodd"/><path stroke="#000000" stroke-width="1.0" stroke-linejoin="round" stroke-linecap="butt" d="m646.1706 106.1811l68.031494 0" fill-rule="evenodd"/><path fill="#000000" fill-opacity="0.0" d="m646.1706 73.91076l68.031494 0l0 42.015747l-68.031494 0z" fill-rule="evenodd"/><path fill="#ff0000" d="m679.9801 102.66526q-1.640625 0 -2.859375 -0.53125q-1.203125 -0.546875 -1.953125 -1.484375l1.625 -1.78125q0.703125 0.78125 1.546875 1.15625q0.859375 0.375 1.734375 0.375q1.015625 0 1.53125 -0.453125q0.515625 -0.453125 0.515625 -1.28125q0 -0.703125 -0.40625 -1.046875q-0.390625 -0.359375 -1.34375 -0.5l-1.359375 -0.234375q-1.75 -0.296875 -2.546875 -1.296875q-0.78125 -1.0 -0.78125 -2.4375q0 -1.875 1.234375 -2.90625q1.234375 -1.046875 3.453125 -1.046875q1.515625 0 2.625 0.46875q1.125 0.46875 1.8125 1.265625l-1.578125 1.78125q-0.53125 -0.578125 -1.234375 -0.90625q-0.703125 -0.328125 -1.609375 -0.328125q-1.875 0 -1.875 1.546875q0 0.671875 0.40625 1.015625q0.421875 0.328125 1.375 0.5l1.375 0.234375q1.578125 0.28125 2.4375 1.203125q0.859375 0.90625 0.859375 2.453125q0 0.921875 -0.328125 1.703125q-0.3125 0.765625 -0.953125 1.34375q-0.625 0.5625 -1.546875 0.875q-0.921875 0.3125 -2.15625 0.3125z" fill-rule="nonzero"/><path fill="#000000" fill-opacity="0.0" d="m682.3963 115.926506l31.968506 0l0 42.015755l-31.968506 0z" fill-rule="evenodd"/><path fill="#000000" d="m697.0057 143.06526q-1.015625 0 -1.84375 -0.34375q-0.8125 -0.34375 -1.390625 -0.984375q-0.5625 -0.640625 -0.875 -1.578125q-0.3125 -0.9375 -0.3125 -2.09375q0 -1.453125 0.4375 -2.71875q0.453125 -1.28125 1.125 -2.328125q0.6875 -1.0625 1.515625 -1.875q0.84375 -0.8125 1.640625 -1.3125l2.015625 0q-1.0625 0.765625 -1.890625 1.5q-0.828125 0.71875 -1.46875 1.515625q-0.625 0.78125 -1.0625 1.6875q-0.421875 0.90625 -0.703125 2.046875l0.09375 0.03125q0.46875 -0.796875 1.234375 -1.328125q0.765625 -0.53125 1.96875 -0.53125q0.859375 0 1.5625 0.28125q0.71875 0.28125 1.234375 0.796875q0.53125 0.515625 0.8125 1.265625q0.296875 0.75 0.296875 1.671875q0 0.9375 -0.328125 1.734375q-0.3125 0.796875 -0.875 1.375q-0.5625 0.5625 -1.375 0.875q-0.8125 0.3125 -1.8125 0.3125zm-0.015625 -1.3125q1.34375 0 2.078125 -0.734375q0.734375 -0.734375 0.734375 -2.046875l0 -0.15625q0 -1.328125 -0.734375 -2.046875q-0.734375 -0.734375 -2.078125 -0.734375q-1.34375 0 -2.078125 0.734375q-0.734375 0.71875 -0.734375 2.046875l0 0.15625q0 1.3125 0.734375 2.046875q0.734375 0.734375 2.078125 0.734375z" fill-rule="nonzero"/><path fill="#000000" fill-opacity="0.0" d="m682.3963 73.91076l31.968506 0l0 42.015747l-31.968506 0z" fill-rule="evenodd"/><path fill="#000000" d="m696.42755 93.33076q1.375 0 2.046875 -0.609375q0.6875 -0.609375 0.6875 -1.546875l0 -0.140625q0 -1.046875 -0.671875 -1.5625q-0.65625 -0.53125 -1.71875 -0.53125q-1.046875 0 -1.6875 0.46875q-0.640625 0.453125 -1.0625 1.203125l-1.171875 -0.90625q0.25 -0.390625 0.59375 -0.765625q0.359375 -0.390625 0.828125 -0.6875q0.484375 -0.296875 1.109375 -0.484375q0.625 -0.1875 1.421875 -0.1875q0.84375 0 1.5625 0.21875q0.734375 0.21875 1.265625 0.640625q0.546875 0.40625 0.859375 1.03125q0.3125 0.609375 0.3125 1.390625q0 0.640625 -0.203125 1.140625q-0.1875 0.5 -0.53125 0.875q-0.34375 0.375 -0.8125 0.640625q-0.46875 0.265625 -1.0 0.390625l0 0.078125q0.546875 0.109375 1.046875 0.359375q0.5 0.25 0.890625 0.65625q0.40625 0.40625 0.625 0.96875q0.234375 0.5625 0.234375 1.296875q0 0.84375 -0.328125 1.546875q-0.3125 0.6875 -0.90625 1.1875q-0.59375 0.5 -1.421875 0.78125q-0.828125 0.265625 -1.828125 0.265625q-0.859375 0 -1.53125 -0.1875q-0.65625 -0.1875 -1.171875 -0.5q-0.515625 -0.3125 -0.90625 -0.703125q-0.375 -0.390625 -0.671875 -0.828125l1.1875 -0.890625q0.25 0.390625 0.53125 0.71875q0.28125 0.3125 0.640625 0.546875q0.375 0.21875 0.828125 0.359375q0.46875 0.125 1.09375 0.125q1.375 0 2.109375 -0.625q0.734375 -0.640625 0.734375 -1.8125l0 -0.15625q0 -1.15625 -0.71875 -1.78125q-0.71875 -0.640625 -2.140625 -0.640625l-1.5625 0l0 -1.34375l1.4375 0z" fill-rule="nonzero"/><path fill="#000000" fill-opacity="0.0" d="m647.16797 64.16535l68.031494 0" fill-rule="evenodd"/><path stroke="#000000" stroke-width="1.0" stroke-linejoin="round" stroke-linecap="butt" d="m647.16797 64.16535l68.031494 0" fill-rule="evenodd"/><path fill="#000000" fill-opacity="0.0" d="m647.16797 31.895014l68.031494 0l0 42.015747l-68.031494 0z" fill-rule="evenodd"/><path fill="#ff0000" d="m682.58685 49.696384l0 10.734375l-2.796875 0l0 -10.734375l-3.75 0l0 -2.28125l10.296875 0l0 2.28125l-3.75 0z" fill-rule="nonzero"/><path fill="#000000" fill-opacity="0.0" d="m647.16797 22.149607l68.031494 0" fill-rule="evenodd"/><path stroke="#000000" stroke-width="1.0" stroke-linejoin="round" stroke-linecap="butt" d="m647.16797 22.149607l68.031494 0" fill-rule="evenodd"/><path fill="#000000" fill-opacity="0.0" d="m647.16797 -10.120735l68.031494 0l0 42.015747l-68.031494 0z" fill-rule="evenodd"/><path fill="#ff0000" d="m679.415 5.399388l0 8.234375q0 0.625 0.046875 1.140625q0.046875 0.5 0.21875 0.859375q0.171875 0.359375 0.53125 0.5625q0.359375 0.1875 0.96875 0.1875q0.625 0 0.96875 -0.1875q0.359375 -0.203125 0.53125 -0.5625q0.1875 -0.359375 0.234375 -0.859375q0.046875 -0.515625 0.046875 -1.140625l0 -8.234375l2.796875 0l0 7.8593745q0 1.34375 -0.1875 2.359375q-0.171875 1.0 -0.671875 1.671875q-0.5 0.671875 -1.40625 1.015625q-0.890625 0.328125 -2.3125 0.328125q-1.421875 0 -2.3125 -0.328125q-0.890625 -0.34375 -1.40625 -1.015625q-0.5 -0.671875 -0.671875 -1.671875q-0.171875 -1.015625 -0.171875 -2.359375l0 -7.8593745l2.796875 0z" fill-rule="nonzero"/><path fill="#000000" fill-opacity="0.0" d="m683.3937 31.895014l31.968506 0l0 42.015747l-31.968506 0z" fill-rule="evenodd"/><path fill="#000000" d="m695.62805 58.81501l5.09375 -11.671875l-5.71875 0l0 2.421875l-1.390625 0l0 -3.765625l8.6875 0l0 1.375l-5.0 11.640625l-1.671875 0z" fill-rule="nonzero"/><path fill="#000000" fill-opacity="0.0" d="m683.3937 -10.120735l31.968506 0l0 42.015747l-31.968506 0z" fill-rule="evenodd"/><path fill="#000000" d="m702.4093 16.799263l-8.6875 0l0 -1.609375l4.34375 -3.90625q0.953125 -0.859375 1.5625 -1.765625q0.625 -0.90625 0.625 -1.9218745l0 -0.21875q0 -1.171875 -0.625 -1.8125q-0.609375 -0.65625 -1.828125 -0.65625q-1.1875 0 -1.84375 0.609375q-0.640625 0.609375 -0.953125 1.625l-1.390625 -0.53125q0.1875 -0.578125 0.5 -1.125q0.328125 -0.546875 0.828125 -0.96875q0.515625 -0.4375 1.234375 -0.70312524q0.71875 -0.265625 1.671875 -0.265625q0.96875 0 1.71875 0.28125q0.75 0.28125024 1.265625 0.79687524q0.515625 0.5 0.78125 1.1875q0.28125 0.6875 0.28125 1.5q0 0.7499995 -0.21875 1.4062495q-0.21875 0.65625 -0.609375 1.25q-0.375 0.59375 -0.90625 1.171875q-0.53125 0.5625 -1.1875 1.125l-3.625 3.171875l7.0625 0l0 1.359375z" fill-rule="nonzero"/><path fill="#000000" fill-opacity="0.0" d="m646.1706 189.7664l0 42.92914" fill-rule="evenodd"/><path stroke="#000000" stroke-width="1.0" stroke-linejoin="round" stroke-linecap="butt" d="m646.1706 189.7664l0 42.92914" fill-rule="evenodd"/><path fill="#000000" fill-opacity="0.0" d="m646.17194 105.73491l0 42.92914" fill-rule="evenodd"/><path stroke="#000000" stroke-width="1.0" stroke-linejoin="round" stroke-linecap="butt" d="m646.17194 105.73491l0 42.92914" fill-rule="evenodd"/><path fill="#000000" fill-opacity="0.0" d="m647.1693 21.703413l0 42.92913" fill-rule="evenodd"/><path stroke="#000000" stroke-width="1.0" stroke-linejoin="round" stroke-linecap="butt" d="m647.1693 21.703413l0 42.92913" fill-rule="evenodd"/><path fill="#000000" fill-opacity="0.0" d="m578.1391 211.23097l68.031494 0" fill-rule="evenodd"/><path stroke="#000000" stroke-width="1.0" stroke-linejoin="round" stroke-linecap="butt" d="m578.1391 211.23097l68.031494 0" fill-rule="evenodd"/><path fill="#000000" fill-opacity="0.0" d="m578.6129 178.95013l67.55908 0l0 42.015747l-67.55908 0z" fill-rule="evenodd"/><path fill="#ff0000" d="m610.9987 207.48589l0 -4.609375l-4.125 -8.40625l3.109375 0l1.390625 3.015625l1.0 2.5625l0.15625 0l1.0 -2.5625l1.375 -3.015625l3.015625 0l-4.125 8.40625l0 4.609375l-2.796875 0z" fill-rule="nonzero"/><path fill="#000000" fill-opacity="0.0" d="m578.14044 127.19948l68.031494 0" fill-rule="evenodd"/><path stroke="#000000" stroke-width="1.0" stroke-linejoin="round" stroke-linecap="butt" d="m578.14044 127.19948l68.031494 0" fill-rule="evenodd"/><path fill="#000000" fill-opacity="0.0" d="m578.61426 94.91863l67.55902 0l0 42.015755l-67.55902 0z" fill-rule="evenodd"/><path fill="#ff0000" d="m612.1875 123.673134q-1.640625 0 -2.859375 -0.53125q-1.203125 -0.546875 -1.953125 -1.484375l1.625 -1.78125q0.703125 0.78125 1.546875 1.15625q0.859375 0.375 1.734375 0.375q1.015625 0 1.53125 -0.453125q0.515625 -0.453125 0.515625 -1.28125q0 -0.703125 -0.40625 -1.046875q-0.390625 -0.359375 -1.34375 -0.5l-1.359375 -0.234375q-1.75 -0.296875 -2.546875 -1.296875q-0.78125 -1.0 -0.78125 -2.4375q0 -1.875 1.234375 -2.90625q1.234375 -1.046875 3.453125 -1.046875q1.515625 0 2.625 0.46875q1.125 0.46875 1.8125 1.265625l-1.578125 1.78125q-0.53125 -0.578125 -1.234375 -0.90625q-0.703125 -0.328125 -1.609375 -0.328125q-1.875 0 -1.875 1.546875q0 0.671875 0.40625 1.015625q0.421875 0.328125 1.375 0.5l1.375 0.234375q1.578125 0.28125 2.4375 1.203125q0.859375 0.90625 0.859375 2.453125q0 0.921875 -0.328125 1.703125q-0.3125 0.765625 -0.953125 1.34375q-0.625 0.5625 -1.546875 0.875q-0.921875 0.3125 -2.15625 0.3125z" fill-rule="nonzero"/><path fill="#000000" fill-opacity="0.0" d="m579.1378 43.16798l68.031494 0" fill-rule="evenodd"/><path stroke="#000000" stroke-width="1.0" stroke-linejoin="round" stroke-linecap="butt" d="m579.1378 43.16798l68.031494 0" fill-rule="evenodd"/><path fill="#000000" fill-opacity="0.0" d="m579.61163 10.887139l67.55902 0l0 42.015747l-67.55902 0z" fill-rule="evenodd"/><path fill="#ff0000" d="m614.79425 28.68851l0 10.734375l-2.796875 0l0 -10.734375l-3.75 0l0 -2.28125l10.296875 0l0 2.28125l-3.75 0z" fill-rule="nonzero"/><path fill="#000000" fill-opacity="0.0" d="m100.850395 255.04199l86.58268 0l0 58.173218l-86.58268 0z" fill-rule="evenodd"/><path fill="#000000" d="m130.7323 294.762l-1.890625 -6.375l-7.8437576 0l-1.875 6.375l-2.796875 0l6.859375 -22.34375l3.546875 0l6.8437576 22.34375l-2.84375 0zm-5.6562576 -19.484375l-0.296875 0l-3.140625 10.78125l6.5625076 0l-3.1250076 -10.78125zm12.340675 19.484375l0 -22.34375l14.078125 0l0 2.34375l-11.390625 0l0 7.515625l10.4375 0l0 2.34375l-10.4375 0l0 10.140625l-2.6875 0zm26.668793 0.390625q-4.109375 0 -6.109375 -2.96875q-2.0 -2.984375 -2.0 -8.59375q0 -5.59375 2.0 -8.5625q2.0 -2.984375 6.109375 -2.984375q1.5312347 0 2.6406097 0.421875q1.125 0.40625 1.921875 1.109375q0.8125 0.703125 1.34375 1.59375q0.546875 0.875 0.96875 1.765625l-2.3125 1.0625q-0.28125 -0.734375 -0.671875 -1.390625q-0.375 -0.65625 -0.90625 -1.15625q-0.53125 -0.5 -1.25 -0.78125q-0.71875 -0.296875 -1.7343597 -0.296875q-2.65625 0 -3.953125 2.015625q-1.296875 2.015625 -1.296875 5.390625l0 3.640625q0 3.359375 1.296875 5.375q1.296875 2.015625 3.953125 2.015625q1.0156097 0 1.7343597 -0.28125q0.71875 -0.296875 1.25 -0.78125q0.53125 -0.5 0.90625 -1.15625q0.390625 -0.65625 0.671875 -1.390625l2.3125 1.046875q-0.421875 0.9375 -0.96875 1.796875q-0.53125 0.859375 -1.34375 1.5625q-0.796875 0.703125 -1.921875 1.125q-1.109375 0.421875 -2.6406097 0.421875z" fill-rule="nonzero"/><path fill="#000000" fill-opacity="0.0" d="m528.37006 255.04199l86.5827 0l0 58.173218l-86.5827 0z" fill-rule="evenodd"/><path fill="#000000" d="m548.0801 275.9495l-0.234375 0l0 18.8125l-2.421875 0l0 -22.34375l3.8125 0l7.609375 18.828125l0.21875 0l0 -18.828125l2.4375 0l0 22.34375l-3.8125 0l-7.609375 -18.8125zm16.856323 18.8125l0 -22.34375l14.078125 0l0 2.34375l-11.390625 0l0 7.515625l10.4375 0l0 2.34375l-10.4375 0l0 10.140625l-2.6875 0zm26.668762 0.390625q-4.109375 0 -6.109375 -2.96875q-2.0 -2.984375 -2.0 -8.59375q0 -5.59375 2.0 -8.5625q2.0 -2.984375 6.109375 -2.984375q1.53125 0 2.640625 0.421875q1.125 0.40625 1.921875 1.109375q0.8125 0.703125 1.34375 1.59375q0.546875 0.875 0.96875 1.765625l-2.3125 1.0625q-0.28125 -0.734375 -0.671875 -1.390625q-0.375 -0.65625 -0.90625 -1.15625q-0.53125 -0.5 -1.25 -0.78125q-0.71875 -0.296875 -1.734375 -0.296875q-2.65625 0 -3.953125 2.015625q-1.296875 2.015625 -1.296875 5.390625l0 3.640625q0 3.359375 1.296875 5.375q1.296875 2.015625 3.953125 2.015625q1.015625 0 1.734375 -0.28125q0.71875 -0.296875 1.25 -0.78125q0.53125 -0.5 0.90625 -1.15625q0.390625 -0.65625 0.671875 -1.390625l2.3125 1.046875q-0.421875 0.9375 -0.96875 1.796875q-0.53125 0.859375 -1.34375 1.5625q-0.796875 0.703125 -1.921875 1.125q-1.109375 0.421875 -2.640625 0.421875z" fill-rule="nonzero"/></g></svg>