<svg version="1.1" viewBox="0.0 0.0 490 422" fill="none" stroke="none" stroke-linecap="square" stroke-miterlimit="10" xmlns:xlink="http://www.w3.org/1999/xlink" xmlns="http://www.w3.org/2000/svg"><clipPath id="p.0"><path d="m0 0l800.0 0l0 600.0l-800.0 0l0 -600.0z" clip-rule="nonzero"/></clipPath><g clip-path="url(#p.0)"><path fill="#000000" fill-opacity="0.0" d="m8.345144 369.1706l68.031494 0" fill-rule="evenodd"/><path stroke="#000000" stroke-width="1.0" stroke-linejoin="round" stroke-linecap="butt" d="m8.345144 369.1706l68.031494 0" fill-rule="evenodd"/><path fill="#000000" fill-opacity="0.0" d="m8.345144 336.90027l68.031494 0l0 42.015747l-68.031494 0z" fill-rule="evenodd"/><path fill="#ff0000" d="m44.43589 363.59225l-0.171875 0q-0.171875 0.40625 -0.421875 0.78125q-0.234375 0.375 -0.59375 0.671875q-0.34375 0.28125 -0.828125 0.4375q-0.46875 0.171875 -1.0625 0.171875q-0.953125 0 -1.6875 -0.4375q-0.734375 -0.453125 -1.25 -1.3125q-0.5 -0.859375 -0.75 -2.078125q-0.25 -1.234375 -0.25 -2.796875q0 -3.3125 1.203125 -5.078125q1.21875 -1.765625 3.75 -1.765625q1.015625 0 1.78125 0.28125q0.765625 0.265625 1.3125 0.765625q0.546875 0.484375 0.90625 1.1875q0.359375 0.6875 0.5625 1.515625l-2.609375 0.640625q-0.125 -0.40625 -0.265625 -0.78125q-0.140625 -0.390625 -0.359375 -0.6875q-0.21875 -0.3125 -0.5625 -0.484375q-0.328125 -0.171875 -0.8125 -0.171875q-1.0625 0 -1.5 0.875q-0.4375 0.875 -0.4375 2.453125l0 2.140625q0 1.578125 0.46875 2.53125q0.484375 0.953125 1.6875 0.953125q0.953125 0 1.421875 -0.5625q0.46875 -0.5625 0.46875 -1.4375l0 -0.953125l-2.21875 0l0 -1.96875l4.71875 0l0 6.953125l-2.5 0l0 -1.84375z" fill-rule="nonzero"/><path fill="#000000" fill-opacity="0.0" d="m8.345144 327.15485l68.031494 0" fill-rule="evenodd"/><path stroke="#000000" stroke-width="1.0" stroke-linejoin="round" stroke-linecap="butt" d="m8.345144 327.15485l68.031494 0" fill-rule="evenodd"/><path fill="#000000" fill-opacity="0.0" d="m8.345144 294.88452l68.031494 0l0 42.015747l-68.031494 0z" fill-rule="evenodd"/><path fill="#ff0000" d="m38.170265 323.42026l0 -2.078125l2.796875 0l0 -8.875l-2.796875 0l0 -2.0625l8.390625 0l0 2.0625l-2.796875 0l0 8.875l2.796875 0l0 2.078125l-8.390625 0z" fill-rule="nonzero"/><path fill="#000000" fill-opacity="0.0" d="m6.3530183 336.90027l31.968504 0l0 42.015747l-31.968504 0z" fill-rule="evenodd"/><path fill="#000000" d="m20.384268 356.32025q1.375 0 2.046875 -0.609375q0.6875 -0.609375 0.6875 -1.546875l0 -0.140625q0 -1.046875 -0.671875 -1.5625q-0.65625 -0.53125 -1.71875 -0.53125q-1.046875 0 -1.6875 0.46875q-0.640625 0.453125 -1.0625 1.203125l-1.171875 -0.90625q0.25 -0.390625 0.59375 -0.765625q0.359375 -0.390625 0.828125 -0.6875q0.484375 -0.296875 1.109375 -0.484375q0.625 -0.1875 1.421875 -0.1875q0.84375 0 1.5625 0.21875q0.734375 0.21875 1.265625 0.640625q0.546875 0.40625 0.859375 1.03125q0.3125 0.609375 0.3125 1.390625q0 0.640625 -0.203125 1.140625q-0.1875 0.5 -0.53125 0.875q-0.34375 0.375 -0.8125 0.640625q-0.46875 0.265625 -1.0 0.390625l0 0.078125q0.546875 0.109375 1.046875 0.359375q0.5 0.25 0.890625 0.65625q0.40625 0.40625 0.625 0.96875q0.234375 0.5625 0.234375 1.296875q0 0.84375 -0.328125 1.546875q-0.3125 0.6875 -0.90625 1.1875q-0.59375 0.5 -1.421875 0.78125q-0.828125 0.265625 -1.828125 0.265625q-0.859375 0 -1.53125 -0.1875q-0.65625 -0.1875 -1.171875 -0.5q-0.515625 -0.3125 -0.90625 -0.703125q-0.375 -0.390625 -0.671875 -0.828125l1.1875 -0.890625q0.25 0.390625 0.53125 0.71875q0.28125 0.3125 0.640625 0.546875q0.375 0.21875 0.828125 0.359375q0.46875 0.125 1.09375 0.125q1.375 0 2.109375 -0.625q0.734375 -0.640625 0.734375 -1.8125l0 -0.15625q0 -1.15625 -0.71875 -1.78125q-0.71875 -0.640625 -2.140625 -0.640625l-1.5625 0l0 -1.34375l1.4375 0z" fill-rule="nonzero"/><path fill="#000000" fill-opacity="0.0" d="m6.3530183 294.88452l31.968504 0l0 42.015747l-31.968504 0z" fill-rule="evenodd"/><path fill="#000000" d="m25.368643 321.8045l-8.6875 0l0 -1.609375l4.34375 -3.90625q0.953125 -0.859375 1.5625 -1.765625q0.625 -0.90625 0.625 -1.921875l0 -0.21875q0 -1.171875 -0.625 -1.8125q-0.609375 -0.65625 -1.828125 -0.65625q-1.1875 0 -1.84375 0.609375q-0.640625 0.609375 -0.953125 1.625l-1.390625 -0.53125q0.1875 -0.578125 0.5 -1.125q0.328125 -0.546875 0.828125 -0.96875q0.515625 -0.4375 1.234375 -0.703125q0.71875 -0.265625 1.671875 -0.265625q0.96875 0 1.71875 0.28125q0.75 0.28125 1.265625 0.796875q0.515625 0.5 0.78125 1.1875q0.28125 0.6875 0.28125 1.5q0 0.75 -0.21875 1.40625q-0.21875 0.65625 -0.609375 1.25q-0.375 0.59375 -0.90625 1.171875q-0.53125 0.5625 -1.1875 1.125l-3.625 3.171875l7.0625 0l0 1.359375z" fill-rule="nonzero"/><path fill="#000000" fill-opacity="0.0" d="m76.37795 327.3386l0 41.82675" fill-rule="evenodd"/><path stroke="#000000" stroke-width="1.0" stroke-linejoin="round" stroke-linecap="butt" d="m76.37795 327.3386l0 41.82675" fill-rule="evenodd"/><path fill="#000000" fill-opacity="0.0" d="m8.346457 285.1391l68.031494 0" fill-rule="evenodd"/><path stroke="#000000" stroke-width="1.0" stroke-linejoin="round" stroke-linecap="butt" d="m8.346457 285.1391l68.031494 0" fill-rule="evenodd"/><path fill="#000000" fill-opacity="0.0" d="m8.346457 252.86876l68.031494 0l0 42.015762l-68.031494 0z" fill-rule="evenodd"/><path fill="#ff0000" d="m44.812202 275.60764l0.140625 -3.640625l-0.171875 0l-2.421875 6.6875l-2.421875 -6.6875l-0.171875 0l0.15625 3.640625l0 5.796875l-2.421875 0l0 -13.015625l3.296875 0l1.609375 4.375l0.140625 0l1.609375 -4.375l3.078125 0l0 13.015625l-2.421875 0l0 -5.796875z" fill-rule="nonzero"/><path fill="#000000" fill-opacity="0.0" d="m8.346457 243.12335l68.031494 0" fill-rule="evenodd"/><path stroke="#000000" stroke-width="1.0" stroke-linejoin="round" stroke-linecap="butt" d="m8.346457 243.12335l68.031494 0" fill-rule="evenodd"/><path fill="#000000" fill-opacity="0.0" d="m8.346457 210.85301l68.031494 0l0 42.015747l-68.031494 0z" fill-rule="evenodd"/><path fill="#ff0000" d="m38.484077 239.38876l0 -13.015625l2.8125 0l0 10.71875l5.59375 0l0 2.296875l-8.40625 0z" fill-rule="nonzero"/><path fill="#000000" fill-opacity="0.0" d="m-5.1548557 252.86876l43.46457 0l0 42.015762l-43.46457 0z" fill-rule="evenodd"/><path fill="#000000" d="m5.5170193 279.78876l-1.015625 -13.015625l1.390625 0l0.546875 7.453125l0.28125 3.9375l0.140625 0l1.71875 -8.0l1.765625 0l1.703125 8.0l0.15625 0l0.28125 -3.9375l0.53125 -7.453125l1.375 0l-1.03125 13.015625l-2.265625 0l-1.578125 -7.78125l-0.15625 0l-1.578125 7.78125l-2.265625 0zm15.553131 0.21875q-2.390625 0 -3.5625 -1.734375q-1.15625 -1.734375 -1.15625 -5.0q0 -3.265625 1.15625 -5.0q1.171875 -1.734375 3.5625 -1.734375q0.890625 0 1.546875 0.25q0.65625 0.234375 1.109375 0.65625q0.46875 0.40625 0.78125 0.921875q0.328125 0.515625 0.5625 1.03125l-1.34375 0.609375q-0.15625 -0.421875 -0.390625 -0.796875q-0.21875 -0.390625 -0.53125 -0.671875q-0.296875 -0.296875 -0.71875 -0.46875q-0.421875 -0.171875 -1.015625 -0.171875q-1.546875 0 -2.3125 1.1875q-0.75 1.171875 -0.75 3.125l0 2.125q0 1.96875 0.75 3.140625q0.765625 1.171875 2.3125 1.171875q0.59375 0 1.015625 -0.15625q0.421875 -0.171875 0.71875 -0.453125q0.3125 -0.296875 0.53125 -0.671875q0.234375 -0.390625 0.390625 -0.828125l1.34375 0.625q-0.234375 0.53125 -0.5625 1.046875q-0.3125 0.5 -0.78125 0.90625q-0.453125 0.40625 -1.109375 0.65625q-0.65625 0.234375 -1.546875 0.234375z" fill-rule="nonzero"/><path fill="#000000" fill-opacity="0.0" d="m6.3543305 210.85301l31.968504 0l0 42.015747l-31.968504 0z" fill-rule="evenodd"/><path fill="#000000" d="m16.932455 237.77301l0 -1.359375l3.734375 0l0 -10.5l-0.125 0l-3.28125 3.046875l-0.921875 -0.984375l3.453125 -3.21875l2.453125 0l0 11.65625l3.421875 0l0 1.359375l-8.734375 0z" fill-rule="nonzero"/><path fill="#000000" fill-opacity="0.0" d="m76.379265 243.30708l0 41.826767" fill-rule="evenodd"/><path stroke="#000000" stroke-width="1.0" stroke-linejoin="round" stroke-linecap="butt" d="m76.379265 243.30708l0 41.826767" fill-rule="evenodd"/><path fill="#000000" fill-opacity="0.0" d="m76.37795 265.6483l68.0315 0" fill-rule="evenodd"/><path stroke="#000000" stroke-width="1.0" stroke-linejoin="round" stroke-linecap="butt" d="m76.37795 265.6483l68.0315 0" fill-rule="evenodd"/><path fill="#000000" fill-opacity="0.0" d="m76.37795 233.37796l68.0315 0l0 42.015747l-68.0315 0z" fill-rule="evenodd"/><path fill="#ff0000" d="m112.8437 256.11682l0.140625 -3.640625l-0.171875 0l-2.421875 6.6875l-2.421875 -6.6875l-0.171875 0l0.15625 3.640625l0 5.796875l-2.421875 0l0 -13.015625l3.296875 0l1.609375 4.375l0.140625 0l1.609375 -4.375l3.078125 0l0 13.015625l-2.421875 0l0 -5.796875z" fill-rule="nonzero"/><path fill="#000000" fill-opacity="0.0" d="m76.37664 349.67978l68.0315 0" fill-rule="evenodd"/><path stroke="#000000" stroke-width="1.0" stroke-linejoin="round" stroke-linecap="butt" d="m76.37664 349.67978l68.0315 0" fill-rule="evenodd"/><path fill="#000000" fill-opacity="0.0" d="m76.37664 317.40945l68.0315 0l0 42.015747l-68.0315 0z" fill-rule="evenodd"/><path fill="#ff0000" d="m106.20176 345.9452l0 -2.078125l2.796875 0l0 -8.875l-2.796875 0l0 -2.0625l8.390625 0l0 2.0625l-2.796875 0l0 8.875l2.796875 0l0 2.078125l-8.390625 0z" fill-rule="nonzero"/><path fill="#000000" fill-opacity="0.0" d="m144.40945 265.6483l0 84.59842" fill-rule="evenodd"/><path stroke="#000000" stroke-width="1.0" stroke-linejoin="round" stroke-linecap="butt" d="m144.40945 265.6483l0 84.59842" fill-rule="evenodd"/><path fill="#000000" fill-opacity="0.0" d="m8.087927 202.02362l68.031494 0" fill-rule="evenodd"/><path stroke="#000000" stroke-width="1.0" stroke-linejoin="round" stroke-linecap="butt" d="m8.087927 202.02362l68.031494 0" fill-rule="evenodd"/><path fill="#000000" fill-opacity="0.0" d="m8.354376 169.71916l68.031494 0l0 42.015747l-68.031494 0z" fill-rule="evenodd"/><path fill="#ff0000" d="m38.273247 198.25491l0 -13.015625l8.624996 0l0 2.28125l-5.828125 0l0 2.984375l5.21875 0l0 2.296875l-5.21875 0l0 5.453125l-2.7968712 0z" fill-rule="nonzero"/><path fill="#000000" fill-opacity="0.0" d="m8.345144 159.97375l68.031494 0" fill-rule="evenodd"/><path stroke="#000000" stroke-width="1.0" stroke-linejoin="round" stroke-linecap="butt" d="m8.345144 159.97375l68.031494 0" fill-rule="evenodd"/><path fill="#000000" fill-opacity="0.0" d="m8.345144 127.703415l68.031494 0l0 42.015747l-68.031494 0z" fill-rule="evenodd"/><path fill="#ff0000" d="m42.65464 156.45792q-2.609375 0 -3.875 -1.75q-1.25 -1.765625 -1.25 -4.984375q0 -3.203125 1.25 -4.96875q1.265625 -1.765625 3.875 -1.765625q1.015625 0 1.78125 0.28125q0.78125 0.265625 1.34375 0.75q0.5625 0.484375 0.921875 1.171875q0.359375 0.6875 0.5625 1.546875l-2.609375 0.640625q-0.109375 -0.46875 -0.265625 -0.859375q-0.140625 -0.390625 -0.375 -0.671875q-0.234375 -0.28125 -0.578125 -0.4375q-0.34375 -0.15625 -0.828125 -0.15625q-1.140625 0 -1.625 0.890625q-0.46875 0.875 -0.46875 2.4375l0 2.28125q0 1.5625 0.46875 2.453125q0.484375 0.890625 1.625 0.890625q0.96875 0 1.40625 -0.59375q0.4375 -0.609375 0.640625 -1.53125l2.609375 0.625q-0.203125 0.859375 -0.5625 1.5625q-0.359375 0.6875 -0.921875 1.1875q-0.5625 0.484375 -1.34375 0.75q-0.765625 0.25 -1.78125 0.25z" fill-rule="nonzero"/><path fill="#000000" fill-opacity="0.0" d="m6.354468 170.49606l29.984251 0l0 42.015747l-29.984251 0z" fill-rule="evenodd"/><path fill="#000000" d="m20.385717 189.91606q1.375 0 2.046875 -0.609375q0.6875 -0.609375 0.6875 -1.546875l0 -0.140625q0 -1.046875 -0.671875 -1.5625q-0.65625 -0.53125 -1.71875 -0.53125q-1.046875 0 -1.6875 0.46875q-0.640625 0.453125 -1.0625 1.203125l-1.171875 -0.90625q0.25 -0.390625 0.59375 -0.765625q0.359375 -0.390625 0.828125 -0.6875q0.484375 -0.296875 1.109375 -0.484375q0.625 -0.1875 1.421875 -0.1875q0.84375 0 1.5625 0.21875q0.734375 0.21875 1.265625 0.640625q0.546875 0.40625 0.859375 1.03125q0.3125 0.609375 0.3125 1.390625q0 0.640625 -0.203125 1.140625q-0.1875 0.5 -0.53125 0.875q-0.34375 0.375 -0.8125 0.640625q-0.46875 0.265625 -1.0 0.390625l0 0.078125q0.546875 0.109375 1.046875 0.359375q0.5 0.25 0.890625 0.65625q0.40625 0.40625 0.625 0.96875q0.234375 0.5625 0.234375 1.296875q0 0.84375 -0.328125 1.546875q-0.3125 0.6875 -0.90625 1.1875q-0.59375 0.5 -1.421875 0.78125q-0.828125 0.265625 -1.828125 0.265625q-0.859375 0 -1.53125 -0.1875q-0.65625 -0.1875 -1.171875 -0.5q-0.515625 -0.3125 -0.90625 -0.703125q-0.375 -0.390625 -0.671875 -0.828125l1.1875 -0.890625q0.25 0.390625 0.53125 0.71875q0.28125 0.3125 0.640625 0.546875q0.375 0.21875 0.828125 0.359375q0.46875 0.125 1.09375 0.125q1.375 0 2.109375 -0.625q0.734375 -0.640625 0.734375 -1.8125l0 -0.15625q0 -1.15625 -0.71875 -1.78125q-0.71875 -0.640625 -2.140625 -0.640625l-1.5625 0l0 -1.34375l1.4375 0z" fill-rule="nonzero"/><path fill="#000000" fill-opacity="0.0" d="m6.3530183 127.703415l31.968504 0l0 42.015747l-31.968504 0z" fill-rule="evenodd"/><path fill="#000000" d="m25.368643 154.62341l-8.6875 0l0 -1.609375l4.34375 -3.90625q0.953125 -0.859375 1.5625 -1.765625q0.625 -0.90625 0.625 -1.921875l0 -0.21875q0 -1.171875 -0.625 -1.8125q-0.609375 -0.65625 -1.828125 -0.65625q-1.1875 0 -1.84375 0.609375q-0.640625 0.609375 -0.953125 1.625l-1.390625 -0.53125q0.1875 -0.578125 0.5 -1.125q0.328125 -0.546875 0.828125 -0.96875q0.515625 -0.4375 1.234375 -0.703125q0.71875 -0.265625 1.671875 -0.265625q0.96875 0 1.71875 0.28125q0.75 0.28125 1.265625 0.796875q0.515625 0.5 0.78125 1.1875q0.28125 0.6875 0.28125 1.5q0 0.75 -0.21875 1.40625q-0.21875 0.65625 -0.609375 1.25q-0.375 0.59375 -0.90625 1.171875q-0.53125 0.5625 -1.1875 1.125l-3.625 3.171875l7.0625 0l0 1.359375z" fill-rule="nonzero"/><path fill="#000000" fill-opacity="0.0" d="m76.37795 160.15749l0 41.826767" fill-rule="evenodd"/><path stroke="#000000" stroke-width="1.0" stroke-linejoin="round" stroke-linecap="butt" d="m76.37795 160.15749l0 41.826767" fill-rule="evenodd"/><path fill="#000000" fill-opacity="0.0" d="m8.346457 117.95801l68.031494 0" fill-rule="evenodd"/><path stroke="#000000" stroke-width="1.0" stroke-linejoin="round" stroke-linecap="butt" d="m8.346457 117.95801l68.031494 0" fill-rule="evenodd"/><path fill="#000000" fill-opacity="0.0" d="m8.346457 85.68767l68.031494 0l0 42.015747l-68.031494 0z" fill-rule="evenodd"/><path fill="#ff0000" d="m43.999702 108.77029l-3.28125 0l0 5.453125l-2.8125 0l0 -13.015625l2.8125 0l0 5.265625l3.28125 0l0 -5.265625l2.828125 0l0 13.015625l-2.828125 0l0 -5.453125z" fill-rule="nonzero"/><path fill="#000000" fill-opacity="0.0" d="m8.346457 75.94226l68.031494 0" fill-rule="evenodd"/><path stroke="#000000" stroke-width="1.0" stroke-linejoin="round" stroke-linecap="butt" d="m8.346457 75.94226l68.031494 0" fill-rule="evenodd"/><path fill="#000000" fill-opacity="0.0" d="m8.346457 43.671917l68.031494 0l0 42.01575l-68.031494 0z" fill-rule="evenodd"/><path fill="#ff0000" d="m44.874702 72.207664l-0.8125 -3.140625l-3.5625 0l-0.8125 3.140625l-2.828125 0l3.53125 -13.015625l3.953125 0l3.515625 13.015625l-2.984375 0zm-2.515625 -10.3125l-0.140625 0l-1.28125 4.921875l2.6875 0l-1.265625 -4.921875z" fill-rule="nonzero"/><path fill="#000000" fill-opacity="0.0" d="m-5.1548557 85.68767l43.46457 0l0 42.015747l-43.46457 0z" fill-rule="evenodd"/><path fill="#000000" d="m5.5170193 112.607666l-1.015625 -13.015625l1.390625 0l0.546875 7.453125l0.28125 3.9375l0.140625 0l1.71875 -8.0l1.765625 0l1.703125 8.0l0.15625 0l0.28125 -3.9375l0.53125 -7.453125l1.375 0l-1.03125 13.015625l-2.265625 0l-1.578125 -7.78125l-0.15625 0l-1.578125 7.78125l-2.265625 0zm15.553131 0.21875q-2.390625 0 -3.5625 -1.734375q-1.15625 -1.734375 -1.15625 -5.0q0 -3.265625 1.15625 -5.0q1.171875 -1.734375 3.5625 -1.734375q0.890625 0 1.546875 0.25q0.65625 0.234375 1.109375 0.65625q0.46875 0.40625 0.78125 0.921875q0.328125 0.515625 0.5625 1.03125l-1.34375 0.609375q-0.15625 -0.421875 -0.390625 -0.796875q-0.21875 -0.390625 -0.53125 -0.671875q-0.296875 -0.296875 -0.71875 -0.46875q-0.421875 -0.171875 -1.015625 -0.171875q-1.546875 0 -2.3125 1.1875q-0.75 1.171875 -0.75 3.125l0 2.125q0 1.96875 0.75 3.140625q0.765625 1.171875 2.3125 1.171875q0.59375 0 1.015625 -0.15625q0.421875 -0.171875 0.71875 -0.453125q0.3125 -0.296875 0.53125 -0.671875q0.234375 -0.390625 0.390625 -0.828125l1.34375 0.625q-0.234375 0.53125 -0.5625 1.046875q-0.3125 0.5 -0.78125 0.90625q-0.453125 0.40625 -1.109375 0.65625q-0.65625 0.234375 -1.546875 0.234375z" fill-rule="nonzero"/><path fill="#000000" fill-opacity="0.0" d="m6.3543305 43.671917l31.968504 0l0 42.01575l-31.968504 0z" fill-rule="evenodd"/><path fill="#000000" d="m16.932455 70.59191l0 -1.359375l3.734375 0l0 -10.499996l-0.125 0l-3.28125 3.046875l-0.921875 -0.984375l3.453125 -3.21875l2.453125 0l0 11.656246l3.421875 0l0 1.359375l-8.734375 0z" fill-rule="nonzero"/><path fill="#000000" fill-opacity="0.0" d="m76.379265 76.125984l0 41.826775" fill-rule="evenodd"/><path stroke="#000000" stroke-width="1.0" stroke-linejoin="round" stroke-linecap="butt" d="m76.379265 76.125984l0 41.826775" fill-rule="evenodd"/><path fill="#000000" fill-opacity="0.0" d="m76.37795 98.46719l68.0315 0" fill-rule="evenodd"/><path stroke="#000000" stroke-width="1.0" stroke-linejoin="round" stroke-linecap="butt" d="m76.37795 98.46719l68.0315 0" fill-rule="evenodd"/><path fill="#000000" fill-opacity="0.0" d="m76.37795 66.19685l68.0315 0l0 42.015747l-68.0315 0z" fill-rule="evenodd"/><path fill="#ff0000" d="m112.0312 89.27947l-3.28125 0l0 5.453125l-2.8125 0l0 -13.015625l2.8125 0l0 5.265625l3.28125 0l0 -5.265625l2.828125 0l0 13.015625l-2.828125 0l0 -5.453125z" fill-rule="nonzero"/><path fill="#000000" fill-opacity="0.0" d="m76.37664 182.49869l68.0315 0" fill-rule="evenodd"/><path stroke="#000000" stroke-width="1.0" stroke-linejoin="round" stroke-linecap="butt" d="m76.37664 182.49869l68.0315 0" fill-rule="evenodd"/><path fill="#000000" fill-opacity="0.0" d="m76.37664 150.22835l68.0315 0l0 42.015747l-68.0315 0z" fill-rule="evenodd"/><path fill="#ff0000" d="m106.29551 178.7641l0 -13.015625l8.625 0l0 2.28125l-5.828125 0l0 2.984375l5.21875 0l0 2.296875l-5.21875 0l0 5.453125l-2.796875 0z" fill-rule="nonzero"/><path fill="#000000" fill-opacity="0.0" d="m144.40945 98.46719l0 84.59842" fill-rule="evenodd"/><path stroke="#000000" stroke-width="1.0" stroke-linejoin="round" stroke-linecap="butt" d="m144.40945 98.46719l0 84.59842" fill-rule="evenodd"/><path fill="#000000" fill-opacity="0.0" d="m144.40814 140.48294l68.031494 0" fill-rule="evenodd"/><path stroke="#000000" stroke-width="1.0" stroke-linejoin="round" stroke-linecap="butt" d="m144.40814 140.48294l68.031494 0" fill-rule="evenodd"/><path fill="#000000" fill-opacity="0.0" d="m144.40814 108.2126l68.031494 0l0 42.015747l-68.031494 0z" fill-rule="evenodd"/><path fill="#ff0000" d="m174.32701 136.74835l0 -13.015633l8.625 0l0 2.28125l-5.828125 0l0 2.9843826l5.21875 0l0 2.296875l-5.21875 0l0 5.453125l-2.796875 0z" fill-rule="nonzero"/><path fill="#000000" fill-opacity="0.0" d="m144.40814 307.66403l68.031494 0" fill-rule="evenodd"/><path stroke="#000000" stroke-width="1.0" stroke-linejoin="round" stroke-linecap="butt" d="m144.40814 307.66403l68.031494 0" fill-rule="evenodd"/><path fill="#000000" fill-opacity="0.0" d="m144.40814 275.3937l68.031494 0l0 42.015747l-68.031494 0z" fill-rule="evenodd"/><path fill="#ff0000" d="m174.23326 303.92944l0 -2.078125l2.796875 0l0 -8.875l-2.796875 0l0 -2.0625l8.390625 0l0 2.0625l-2.796875 0l0 8.875l2.796875 0l0 2.078125l-8.390625 0z" fill-rule="nonzero"/><path fill="#000000" fill-opacity="0.0" d="m212.44095 140.48294l0 167.18109" fill-rule="evenodd"/><path stroke="#000000" stroke-width="1.0" stroke-linejoin="round" stroke-linecap="butt" d="m212.44095 140.48294l0 167.18109" fill-rule="evenodd"/><path fill="#000000" fill-opacity="0.0" d="m212.43964 224.07349l68.031494 0" fill-rule="evenodd"/><path stroke="#000000" stroke-width="1.0" stroke-linejoin="round" stroke-linecap="butt" d="m212.43964 224.07349l68.031494 0" fill-rule="evenodd"/><path fill="#000000" fill-opacity="0.0" d="m212.43964 191.80315l68.031494 0l0 42.015747l-68.031494 0z" fill-rule="evenodd"/><path fill="#ff0000" d="m242.3585 220.3389l0 -13.015625l8.625 0l0 2.28125l-5.828125 0l0 2.984375l5.21875 0l0 2.296875l-5.21875 0l0 5.453125l-2.796875 0z" fill-rule="nonzero"/><path fill="#000000" fill-opacity="0.0" d="m280.47113 140.48294l68.031494 0" fill-rule="evenodd"/><path stroke="#000000" stroke-width="1.0" stroke-linejoin="round" stroke-linecap="butt" d="m280.47113 140.48294l68.031494 0" fill-rule="evenodd"/><path fill="#000000" fill-opacity="0.0" d="m280.47113 108.2126l68.031494 0l0 42.015747l-68.031494 0z" fill-rule="evenodd"/><path fill="#ff0000" d="m310.3119 136.74835l0 -13.015633l5.0312195 0q0.953125 0 1.703125 0.296875q0.75 0.28125 1.25 0.828125q0.515625 0.53125 0.78125 1.296875q0.265625 0.765625 0.265625 1.71875q0 0.9531326 -0.265625 1.7187576q-0.265625 0.75 -0.78125 1.296875q-0.5 0.546875 -1.25 0.84375q-0.75 0.28125 -1.703125 0.28125l-2.21875 0l0 4.734375l-2.8124695 0zm2.8124695 -7.0l1.515625 0q0.984375 0 1.359375 -0.375q0.390625 -0.375 0.390625 -1.21875l0 -0.5625076q0 -0.859375 -0.390625 -1.234375q-0.375 -0.375 -1.359375 -0.375l-1.515625 0l0 3.7656326z" fill-rule="nonzero"/><path fill="#000000" fill-opacity="0.0" d="m280.47113 307.66403l68.031494 0" fill-rule="evenodd"/><path stroke="#000000" stroke-width="1.0" stroke-linejoin="round" stroke-linecap="butt" d="m280.47113 307.66403l68.031494 0" fill-rule="evenodd"/><path fill="#000000" fill-opacity="0.0" d="m280.47113 275.3937l68.031494 0l0 42.015747l-68.031494 0z" fill-rule="evenodd"/><path fill="#ff0000" d="m314.2806 304.1482q-1.640625 0 -2.8593445 -0.53125q-1.203125 -0.546875 -1.953125 -1.484375l1.625 -1.78125q0.703125 0.78125 1.5468445 1.15625q0.859375 0.375 1.734375 0.375q1.015625 0 1.53125 -0.453125q0.515625 -0.453125 0.515625 -1.28125q0 -0.703125 -0.40625 -1.046875q-0.390625 -0.359375 -1.34375 -0.5l-1.359375 -0.234375q-1.7499695 -0.296875 -2.5468445 -1.296875q-0.78125 -1.0 -0.78125 -2.4375q0 -1.875 1.234375 -2.90625q1.234375 -1.046875 3.4530945 -1.046875q1.515625 0 2.625 0.46875q1.125 0.46875 1.8125 1.265625l-1.578125 1.78125q-0.53125 -0.578125 -1.234375 -0.90625q-0.703125 -0.328125 -1.609375 -0.328125q-1.875 0 -1.875 1.546875q0 0.671875 0.40625 1.015625q0.421875 0.328125 1.375 0.5l1.375 0.234375q1.578125 0.28125 2.4375 1.203125q0.859375 0.90625 0.859375 2.453125q0 0.921875 -0.328125 1.703125q-0.3125 0.765625 -0.953125 1.34375q-0.625 0.5625 -1.546875 0.875q-0.921875 0.3125 -2.15625 0.3125z" fill-rule="nonzero"/><path fill="#000000" fill-opacity="0.0" d="m280.47244 140.24934l0 167.1811" fill-rule="evenodd"/><path stroke="#000000" stroke-width="1.0" stroke-linejoin="round" stroke-linecap="butt" d="m280.47244 140.24934l0 167.1811" fill-rule="evenodd"/><path fill="#000000" fill-opacity="0.0" d="m182.45668 203.06561l29.984253 0l0 42.015747l-29.984253 0z" fill-rule="evenodd"/><path fill="#ff0000" d="m193.35193 231.60136l0 -13.015625l8.625 0l0 2.28125l-5.828125 0l0 2.984375l5.21875 0l0 2.296875l-5.21875 0l0 5.453125l-2.796875 0z" fill-rule="nonzero"/><path fill="#000000" fill-opacity="0.0" d="m280.47256 203.0643l26.834656 0l0 42.015747l-26.834656 0z" fill-rule="evenodd"/><path fill="#ff0000" d="m294.8632 231.8188q-1.640625 0 -2.859375 -0.53125q-1.203125 -0.546875 -1.953125 -1.484375l1.625 -1.78125q0.703125 0.78125 1.546875 1.15625q0.859375 0.375 1.734375 0.375q1.015625 0 1.53125 -0.453125q0.515625 -0.453125 0.515625 -1.28125q0 -0.703125 -0.40625 -1.046875q-0.390625 -0.359375 -1.34375 -0.5l-1.359375 -0.234375q-1.75 -0.296875 -2.546875 -1.296875q-0.78125 -1.0 -0.78125 -2.4375q0 -1.875 1.234375 -2.90625q1.234375 -1.046875 3.453125 -1.046875q1.515625 0 2.625 0.46875q1.125 0.46875 1.8125 1.265625l-1.578125 1.78125q-0.53125 -0.578125 -1.234375 -0.90625q-0.703125 -0.328125 -1.609375 -0.328125q-1.875 0 -1.875 1.546875q0 0.671875 0.40625 1.015625q0.421875 0.328125 1.375 0.5l1.375 0.234375q1.578125 0.28125 2.4375 1.203125q0.859375 0.90625 0.859375 2.453125q0 0.921875 -0.328125 1.703125q-0.3125 0.765625 -0.953125 1.34375q-0.625 0.5625 -1.546875 0.875q-0.921875 0.3125 -2.15625 0.3125z" fill-rule="nonzero"/><path fill="#000000" fill-opacity="0.0" d="m348.50394 265.13123l0 84.59842" fill-rule="evenodd"/><path stroke="#000000" stroke-width="1.0" stroke-linejoin="round" stroke-linecap="butt" d="m348.50394 265.13123l0 84.59842" fill-rule="evenodd"/><path fill="#000000" fill-opacity="0.0" d="m348.50394 97.950134l0 84.59842" fill-rule="evenodd"/><path stroke="#000000" stroke-width="1.0" stroke-linejoin="round" stroke-linecap="butt" d="m348.50394 97.950134l0 84.59842" fill-rule="evenodd"/><path fill="#000000" fill-opacity="0.0" d="m348.50394 265.6483l68.031494 0" fill-rule="evenodd"/><path stroke="#000000" stroke-width="1.0" stroke-linejoin="round" stroke-linecap="butt" d="m348.50394 265.6483l68.031494 0" fill-rule="evenodd"/><path fill="#000000" fill-opacity="0.0" d="m348.50394 233.37796l68.031494 0l0 42.015747l-68.031494 0z" fill-rule="evenodd"/><path fill="#ff0000" d="m382.31345 262.13245q-1.640625 0 -2.859375 -0.53125q-1.203125 -0.546875 -1.953125 -1.484375l1.625 -1.78125q0.703125 0.78125 1.546875 1.15625q0.859375 0.375 1.734375 0.375q1.015625 0 1.53125 -0.453125q0.515625 -0.453125 0.515625 -1.28125q0 -0.703125 -0.40625 -1.046875q-0.390625 -0.359375 -1.34375 -0.5l-1.359375 -0.234375q-1.75 -0.296875 -2.546875 -1.296875q-0.78125 -1.0 -0.78125 -2.4375q0 -1.875 1.234375 -2.90625q1.234375 -1.046875 3.453125 -1.046875q1.515625 0 2.625 0.46875q1.125 0.46875 1.8125 1.265625l-1.578125 1.78125q-0.53125 -0.578125 -1.234375 -0.90625q-0.703125 -0.328125 -1.609375 -0.328125q-1.875 0 -1.875 1.546875q0 0.671875 0.40625 1.015625q0.421875 0.328125 1.375 0.5l1.375 0.234375q1.578125 0.28125 2.4375 1.203125q0.859375 0.90625 0.859375 2.453125q0 0.921875 -0.328125 1.703125q-0.3125 0.765625 -0.953125 1.34375q-0.625 0.5625 -1.546875 0.875q-0.921875 0.3125 -2.15625 0.3125z" fill-rule="nonzero"/><path fill="#000000" fill-opacity="0.0" d="m348.50262 349.67978l68.031494 0" fill-rule="evenodd"/><path stroke="#000000" stroke-width="1.0" stroke-linejoin="round" stroke-linecap="butt" d="m348.50262 349.67978l68.031494 0" fill-rule="evenodd"/><path fill="#000000" fill-opacity="0.0" d="m348.50262 317.40945l68.031494 0l0 42.015747l-68.031494 0z" fill-rule="evenodd"/><path fill="#ff0000" d="m383.9215 335.21082l0 10.734375l-2.796875 0l0 -10.734375l-3.75 0l0 -2.28125l10.296875 0l0 2.28125l-3.75 0z" fill-rule="nonzero"/><path fill="#000000" fill-opacity="0.0" d="m348.50394 98.46719l68.031494 0" fill-rule="evenodd"/><path stroke="#000000" stroke-width="1.0" stroke-linejoin="round" stroke-linecap="butt" d="m348.50394 98.46719l68.031494 0" fill-rule="evenodd"/><path fill="#000000" fill-opacity="0.0" d="m348.50394 66.19685l68.031494 0l0 42.015747l-68.031494 0z" fill-rule="evenodd"/><path fill="#ff0000" d="m382.51657 94.95135q-2.609375 0 -3.859375 -1.765625q-1.234375 -1.78125 -1.234375 -4.96875q0 -3.1875 1.234375 -4.953125q1.25 -1.78125 3.859375 -1.78125q2.609375 0 3.84375 1.78125q1.25 1.765625 1.25 4.953125q0 3.1875 -1.25 4.96875q-1.234375 1.765625 -3.84375 1.765625zm0 -2.25q1.203125 0 1.65625 -0.890625q0.453125 -0.890625 0.453125 -2.46875l0 -2.265625q0 -1.5625 -0.453125 -2.4375q-0.453125 -0.890625 -1.65625 -0.890625q-1.1875 0 -1.65625 0.890625q-0.453125 0.875 -0.453125 2.4375l0 2.28125q0 1.5625 0.453125 2.453125q0.46875 0.890625 1.65625 0.890625z" fill-rule="nonzero"/><path fill="#000000" fill-opacity="0.0" d="m348.50262 182.49869l68.031494 0" fill-rule="evenodd"/><path stroke="#000000" stroke-width="1.0" stroke-linejoin="round" stroke-linecap="butt" d="m348.50262 182.49869l68.031494 0" fill-rule="evenodd"/><path fill="#000000" fill-opacity="0.0" d="m348.50262 150.22835l68.031494 0l0 42.015747l-68.031494 0z" fill-rule="evenodd"/><path fill="#ff0000" d="m378.34338 178.7641l0 -13.015625l5.03125 0q0.953125 0 1.703125 0.296875q0.75 0.28125 1.25 0.828125q0.515625 0.53125 0.78125 1.296875q0.265625 0.765625 0.265625 1.71875q0 0.953125 -0.265625 1.71875q-0.265625 0.75 -0.78125 1.296875q-0.5 0.546875 -1.25 0.84375q-0.75 0.28125 -1.703125 0.28125l-2.21875 0l0 4.734375l-2.8125 0zm2.8125 -7.0l1.515625 0q0.984375 0 1.359375 -0.375q0.390625 -0.375 0.390625 -1.21875l0 -0.5625q0 -0.859375 -0.390625 -1.234375q-0.375 -0.375 -1.359375 -0.375l-1.515625 0l0 3.765625z" fill-rule="nonzero"/><path fill="#000000" fill-opacity="0.0" d="m416.53543 328.5328l0 41.826782" fill-rule="evenodd"/><path stroke="#000000" stroke-width="1.0" stroke-linejoin="round" stroke-linecap="butt" d="m416.53543 328.5328l0 41.826782" fill-rule="evenodd"/><path fill="#000000" fill-opacity="0.0" d="m416.53674 244.50131l0 41.826782" fill-rule="evenodd"/><path stroke="#000000" stroke-width="1.0" stroke-linejoin="round" stroke-linecap="butt" d="m416.53674 244.50131l0 41.826782" fill-rule="evenodd"/><path fill="#000000" fill-opacity="0.0" d="m416.53543 161.3517l0 41.826782" fill-rule="evenodd"/><path stroke="#000000" stroke-width="1.0" stroke-linejoin="round" stroke-linecap="butt" d="m416.53543 161.3517l0 41.826782" fill-rule="evenodd"/><path fill="#000000" fill-opacity="0.0" d="m416.53674 77.32021l0 41.826767" fill-rule="evenodd"/><path stroke="#000000" stroke-width="1.0" stroke-linejoin="round" stroke-linecap="butt" d="m416.53674 77.32021l0 41.826767" fill-rule="evenodd"/><path fill="#000000" fill-opacity="0.0" d="m416.79135 370.68765l68.031494 0" fill-rule="evenodd"/><path stroke="#000000" stroke-width="1.0" stroke-linejoin="round" stroke-linecap="butt" d="m416.79135 370.68765l68.031494 0" fill-rule="evenodd"/><path fill="#000000" fill-opacity="0.0" d="m416.79135 338.41733l68.031494 0l0 42.015747l-68.031494 0z" fill-rule="evenodd"/><path fill="#ff0000" d="m452.2102 356.2187l0 10.734375l-2.796875 0l0 -10.734375l-3.75 0l0 -2.28125l10.296875 0l0 2.28125l-3.75 0z" fill-rule="nonzero"/><path fill="#000000" fill-opacity="0.0" d="m416.79135 328.6719l68.031494 0" fill-rule="evenodd"/><path stroke="#000000" stroke-width="1.0" stroke-linejoin="round" stroke-linecap="butt" d="m416.79135 328.6719l68.031494 0" fill-rule="evenodd"/><path fill="#000000" fill-opacity="0.0" d="m416.79135 296.40158l68.031494 0l0 42.015747l-68.031494 0z" fill-rule="evenodd"/><path fill="#ff0000" d="m449.41333 324.93732l0 -4.609375l-4.125 -8.40625l3.109375 0l1.390625 3.015625l1.0 2.5625l0.15625 0l1.0 -2.5625l1.375 -3.015625l3.015625 0l-4.125 8.40625l0 4.609375l-2.796875 0z" fill-rule="nonzero"/><path fill="#000000" fill-opacity="0.0" d="m416.79266 286.65616l68.031494 0" fill-rule="evenodd"/><path stroke="#000000" stroke-width="1.0" stroke-linejoin="round" stroke-linecap="butt" d="m416.79266 286.65616l68.031494 0" fill-rule="evenodd"/><path fill="#000000" fill-opacity="0.0" d="m416.79266 254.38583l68.031494 0l0 42.015747l-68.031494 0z" fill-rule="evenodd"/><path fill="#ff0000" d="m450.60214 283.14032q-1.640625 0 -2.859375 -0.53125q-1.203125 -0.546875 -1.953125 -1.484375l1.625 -1.78125q0.703125 0.78125 1.546875 1.15625q0.859375 0.375 1.734375 0.375q1.015625 0 1.53125 -0.453125q0.515625 -0.453125 0.515625 -1.28125q0 -0.703125 -0.40625 -1.046875q-0.390625 -0.359375 -1.34375 -0.5l-1.359375 -0.234375q-1.75 -0.296875 -2.546875 -1.296875q-0.78125 -1.0 -0.78125 -2.4375q0 -1.875 1.234375 -2.90625q1.234375 -1.046875 3.453125 -1.046875q1.515625 0 2.625 0.46875q1.125 0.46875 1.8125 1.265625l-1.578125 1.78125q-0.53125 -0.578125 -1.234375 -0.90625q-0.703125 -0.328125 -1.609375 -0.328125q-1.875 0 -1.875 1.546875q0 0.671875 0.40625 1.015625q0.421875 0.328125 1.375 0.5l1.375 0.234375q1.578125 0.28125 2.4375 1.203125q0.859375 0.90625 0.859375 2.453125q0 0.921875 -0.328125 1.703125q-0.3125 0.765625 -0.953125 1.34375q-0.625 0.5625 -1.546875 0.875q-0.921875 0.3125 -2.15625 0.3125z" fill-rule="nonzero"/><path fill="#000000" fill-opacity="0.0" d="m416.79266 244.64043l68.031494 0" fill-rule="evenodd"/><path stroke="#000000" stroke-width="1.0" stroke-linejoin="round" stroke-linecap="butt" d="m416.79266 244.64043l68.031494 0" fill-rule="evenodd"/><path fill="#000000" fill-opacity="0.0" d="m416.79266 212.37007l68.031494 0l0 42.015762l-68.031494 0z" fill-rule="evenodd"/><path fill="#ff0000" d="m449.03964 227.8902l0 8.234375q0 0.625 0.046875 1.140625q0.046875 0.5 0.21875 0.859375q0.171875 0.359375 0.53125 0.5625q0.359375 0.1875 0.96875 0.1875q0.625 0 0.96875 -0.1875q0.359375 -0.203125 0.53125 -0.5625q0.1875 -0.359375 0.234375 -0.859375q0.046875 -0.515625 0.046875 -1.140625l0 -8.234375l2.796875 0l0 7.859375q0 1.34375 -0.1875 2.359375q-0.171875 1.0 -0.671875 1.671875q-0.5 0.671875 -1.40625 1.015625q-0.890625 0.328125 -2.3125 0.328125q-1.421875 0 -2.3125 -0.328125q-0.890625 -0.34375 -1.40625 -1.015625q-0.5 -0.671875 -0.671875 -1.671875q-0.171875 -1.015625 -0.171875 -2.359375l0 -7.859375l2.796875 0z" fill-rule="nonzero"/><path fill="#000000" fill-opacity="0.0" d="m416.53412 203.54068l68.031494 0" fill-rule="evenodd"/><path stroke="#000000" stroke-width="1.0" stroke-linejoin="round" stroke-linecap="butt" d="m416.53412 203.54068l68.031494 0" fill-rule="evenodd"/><path fill="#000000" fill-opacity="0.0" d="m416.80057 171.23622l68.031494 0l0 42.015747l-68.031494 0z" fill-rule="evenodd"/><path fill="#ff0000" d="m448.95383 191.11572l-0.203125 0l0 8.65625l-2.390625 0l0 -13.015625l3.359375 0l2.96875 8.65625l0.203125 0l0 -8.65625l2.390625 0l0 13.015625l-3.359375 0l-2.96875 -8.65625z" fill-rule="nonzero"/><path fill="#000000" fill-opacity="0.0" d="m416.79135 161.49081l68.031494 0" fill-rule="evenodd"/><path stroke="#000000" stroke-width="1.0" stroke-linejoin="round" stroke-linecap="butt" d="m416.79135 161.49081l68.031494 0" fill-rule="evenodd"/><path fill="#000000" fill-opacity="0.0" d="m416.79135 129.22047l68.031494 0l0 42.015747l-68.031494 0z" fill-rule="evenodd"/><path fill="#ff0000" d="m446.63208 157.75623l0 -13.015625l5.03125 0q0.953125 0 1.703125 0.296875q0.75 0.28125 1.25 0.828125q0.515625 0.53125 0.78125 1.296875q0.265625 0.765625 0.265625 1.71875q0 0.953125 -0.265625 1.71875q-0.265625 0.75 -0.78125 1.296875q-0.5 0.546875 -1.25 0.84375q-0.75 0.28125 -1.703125 0.28125l-2.21875 0l0 4.734375l-2.8125 0zm2.8125 -7.0l1.515625 0q0.984375 0 1.359375 -0.375q0.390625 -0.375 0.390625 -1.21875l0 -0.5625q0 -0.859375 -0.390625 -1.234375q-0.375 -0.375 -1.359375 -0.375l-1.515625 0l0 3.765625z" fill-rule="nonzero"/><path fill="#000000" fill-opacity="0.0" d="m416.79266 119.47507l68.031494 0" fill-rule="evenodd"/><path stroke="#000000" stroke-width="1.0" stroke-linejoin="round" stroke-linecap="butt" d="m416.79266 119.47507l68.031494 0" fill-rule="evenodd"/><path fill="#000000" fill-opacity="0.0" d="m416.79266 87.20473l68.031494 0l0 42.015747l-68.031494 0z" fill-rule="evenodd"/><path fill="#ff0000" d="m455.02402 119.30297l-2.65625 0q-1.5 0 -2.140625 -0.734375q-0.625 -0.71875 -0.625 -1.953125l0 -0.765625q-2.0 -0.390625 -2.953125 -2.09375q-0.9375 -1.703125 -0.9375 -4.53125q0 -3.1875 1.234375 -4.953125q1.25 -1.78125 3.859375 -1.78125q2.609375 0 3.84375 1.78125q1.25 1.765625 1.25 4.953125q0 2.828125 -0.9375 4.53125q-0.9375 1.703125 -2.9375 2.09375l0 1.453125l3.0 0l0 2.0zm-4.21875 -5.59375q1.203125 0 1.65625 -0.890625q0.453125 -0.890625 0.453125 -2.46875l0 -2.265625q0 -1.5625 -0.453125 -2.4375q-0.453125 -0.890625 -1.65625 -0.890625q-1.1875 0 -1.65625 0.890625q-0.453125 0.875 -0.453125 2.4375l0 2.28125q0 1.5625 0.453125 2.453125q0.46875 0.890625 1.65625 0.890625z" fill-rule="nonzero"/><path fill="#000000" fill-opacity="0.0" d="m416.79266 77.45932l68.031494 0" fill-rule="evenodd"/><path stroke="#000000" stroke-width="1.0" stroke-linejoin="round" stroke-linecap="butt" d="m416.79266 77.45932l68.031494 0" fill-rule="evenodd"/><path fill="#000000" fill-opacity="0.0" d="m416.79266 45.188976l68.031494 0l0 42.01575l-68.031494 0z" fill-rule="evenodd"/><path fill="#ff0000" d="m450.80527 73.943474q-2.609375 0 -3.859375 -1.765625q-1.234375 -1.78125 -1.234375 -4.96875q0 -3.1875 1.234375 -4.953125q1.25 -1.78125 3.859375 -1.78125q2.609375 0 3.84375 1.78125q1.25 1.765625 1.25 4.953125q0 3.1875 -1.25 4.96875q-1.234375 1.765625 -3.84375 1.765625zm0 -2.25q1.203125 0 1.65625 -0.890625q0.453125 -0.890625 0.453125 -2.46875l0 -2.265625q0 -1.5625 -0.453125 -2.4375q-0.453125 -0.890625 -1.65625 -0.890625q-1.1875 0 -1.65625 0.890625q-0.453125 0.875 -0.453125 2.4375l0 2.28125q0 1.5625 0.453125 2.453125q0.46875 0.890625 1.65625 0.890625z" fill-rule="nonzero"/><path fill="#000000" fill-opacity="0.0" d="m457.40945 46.070866l31.968506 0l0 42.01575l-31.968506 0z" fill-rule="evenodd"/><path fill="#000000" d="m467.98758 72.99087l0 -1.359375l3.734375 0l0 -10.500004l-0.125 0l-3.28125 3.0468788l-0.921875 -0.9843788l3.453125 -3.21875l2.453125 0l0 11.656254l3.421875 0l0 1.359375l-8.734375 0z" fill-rule="nonzero"/><path fill="#000000" fill-opacity="0.0" d="m457.40945 129.22047l31.968506 0l0 42.015747l-31.968506 0z" fill-rule="evenodd"/><path fill="#000000" d="m476.42508 156.14047l-8.6875 0l0 -1.609375l4.34375 -3.90625q0.953125 -0.859375 1.5625 -1.765625q0.625 -0.90625 0.625 -1.921875l0 -0.21875q0 -1.171875 -0.625 -1.8125q-0.609375 -0.65625 -1.828125 -0.65625q-1.1875 0 -1.84375 0.609375q-0.640625 0.609375 -0.953125 1.625l-1.390625 -0.53125q0.1875 -0.578125 0.5 -1.125q0.328125 -0.546875 0.828125 -0.96875q0.515625 -0.4375 1.234375 -0.703125q0.71875 -0.265625 1.671875 -0.265625q0.96875 0 1.71875 0.28125q0.75 0.28125 1.265625 0.796875q0.515625 0.5 0.78125 1.1875q0.28125 0.6875 0.28125 1.5q0 0.75 -0.21875 1.40625q-0.21875 0.65625 -0.609375 1.25q-0.375 0.59375 -0.90625 1.171875q-0.53125 0.5625 -1.1875 1.125l-3.625 3.171875l7.0625 0l0 1.359375z" fill-rule="nonzero"/><path fill="#000000" fill-opacity="0.0" d="m457.40945 170.79396l31.968506 0l0 42.015747l-31.968506 0z" fill-rule="evenodd"/><path fill="#000000" d="m471.4407 190.21396q1.375 0 2.046875 -0.609375q0.6875 -0.609375 0.6875 -1.546875l0 -0.140625q0 -1.046875 -0.671875 -1.5625q-0.65625 -0.53125 -1.71875 -0.53125q-1.046875 0 -1.6875 0.46875q-0.640625 0.453125 -1.0625 1.203125l-1.171875 -0.90625q0.25 -0.390625 0.59375 -0.765625q0.359375 -0.390625 0.828125 -0.6875q0.484375 -0.296875 1.109375 -0.484375q0.625 -0.1875 1.421875 -0.1875q0.84375 0 1.5625 0.21875q0.734375 0.21875 1.265625 0.640625q0.546875 0.40625 0.859375 1.03125q0.3125 0.609375 0.3125 1.390625q0 0.640625 -0.203125 1.140625q-0.1875 0.5 -0.53125 0.875q-0.34375 0.375 -0.8125 0.640625q-0.46875 0.265625 -1.0 0.390625l0 0.078125q0.546875 0.109375 1.046875 0.359375q0.5 0.25 0.890625 0.65625q0.40625 0.40625 0.625 0.96875q0.234375 0.5625 0.234375 1.296875q0 0.84375 -0.328125 1.546875q-0.3125 0.6875 -0.90625 1.1875q-0.59375 0.5 -1.421875 0.78125q-0.828125 0.265625 -1.828125 0.265625q-0.859375 0 -1.53125 -0.1875q-0.65625 -0.1875 -1.171875 -0.5q-0.515625 -0.3125 -0.90625 -0.703125q-0.375 -0.390625 -0.671875 -0.828125l1.1875 -0.890625q0.25 0.390625 0.53125 0.71875q0.28125 0.3125 0.640625 0.546875q0.375 0.21875 0.828125 0.359375q0.46875 0.125 1.09375 0.125q1.375 0 2.109375 -0.625q0.734375 -0.640625 0.734375 -1.8125l0 -0.15625q0 -1.15625 -0.71875 -1.78125q-0.71875 -0.640625 -2.140625 -0.640625l-1.5625 0l0 -1.34375l1.4375 0z" fill-rule="nonzero"/><path fill="#000000" fill-opacity="0.0" d="m457.40945 87.20473l43.46457 0l0 42.015747l-43.46457 0z" fill-rule="evenodd"/><path fill="#000000" d="m468.08133 114.124725l-1.015625 -13.015625l1.390625 0l0.546875 7.453125l0.28125 3.9375l0.140625 0l1.71875 -8.0l1.765625 0l1.703125 8.0l0.15625 0l0.28125 -3.9375l0.53125 -7.453125l1.375 0l-1.03125 13.015625l-2.265625 0l-1.578125 -7.78125l-0.15625 0l-1.578125 7.78125l-2.265625 0zm15.553131 0.21875q-2.390625 0 -3.5625 -1.734375q-1.15625 -1.734375 -1.15625 -5.0q0 -3.265625 1.15625 -5.0q1.171875 -1.734375 3.5625 -1.734375q0.890625 0 1.546875 0.25q0.65625 0.234375 1.109375 0.65625q0.46875 0.40625 0.78125 0.921875q0.328125 0.515625 0.5625 1.03125l-1.34375 0.609375q-0.15625 -0.421875 -0.390625 -0.796875q-0.21875 -0.390625 -0.53125 -0.671875q-0.296875 -0.296875 -0.71875 -0.46875q-0.421875 -0.171875 -1.015625 -0.171875q-1.546875 0 -2.3125 1.1875q-0.75 1.171875 -0.75 3.125l0 2.125q0 1.96875 0.75 3.140625q0.765625 1.171875 2.3125 1.171875q0.59375 0 1.015625 -0.15625q0.421875 -0.171875 0.71875 -0.453125q0.3125 -0.296875 0.53125 -0.671875q0.234375 -0.390625 0.390625 -0.828125l1.34375 0.625q-0.234375 0.53125 -0.5625 1.046875q-0.3125 0.5 -0.78125 0.90625q-0.453125 0.40625 -1.109375 0.65625q-0.65625 0.234375 -1.546875 0.234375z" fill-rule="nonzero"/><path fill="#000000" fill-opacity="0.0" d="m457.40945 212.37007l31.968506 0l0 42.015762l-31.968506 0z" fill-rule="evenodd"/><path fill="#000000" d="m467.98758 239.29007l0 -1.359375l3.734375 0l0 -10.5l-0.125 0l-3.28125 3.046875l-0.921875 -0.984375l3.453125 -3.21875l2.453125 0l0 11.65625l3.421875 0l0 1.359375l-8.734375 0z" fill-rule="nonzero"/><path fill="#000000" fill-opacity="0.0" d="m457.40945 295.51968l31.968506 0l0 42.015747l-31.968506 0z" fill-rule="evenodd"/><path fill="#000000" d="m476.42508 322.4397l-8.6875 0l0 -1.609375l4.34375 -3.90625q0.953125 -0.859375 1.5625 -1.765625q0.625 -0.90625 0.625 -1.921875l0 -0.21875q0 -1.171875 -0.625 -1.8125q-0.609375 -0.65625 -1.828125 -0.65625q-1.1875 0 -1.84375 0.609375q-0.640625 0.609375 -0.953125 1.625l-1.390625 -0.53125q0.1875 -0.578125 0.5 -1.125q0.328125 -0.546875 0.828125 -0.96875q0.515625 -0.4375 1.234375 -0.703125q0.71875 -0.265625 1.671875 -0.265625q0.96875 0 1.71875 0.28125q0.75 0.28125 1.265625 0.796875q0.515625 0.5 0.78125 1.1875q0.28125 0.6875 0.28125 1.5q0 0.75 -0.21875 1.40625q-0.21875 0.65625 -0.609375 1.25q-0.375 0.59375 -0.90625 1.171875q-0.53125 0.5625 -1.1875 1.125l-3.625 3.171875l7.0625 0l0 1.359375z" fill-rule="nonzero"/><path fill="#000000" fill-opacity="0.0" d="m457.40945 337.09317l31.968506 0l0 42.015747l-31.968506 0z" fill-rule="evenodd"/><path fill="#000000" d="m471.4407 356.51318q1.375 0 2.046875 -0.609375q0.6875 -0.609375 0.6875 -1.546875l0 -0.140625q0 -1.046875 -0.671875 -1.5625q-0.65625 -0.53125 -1.71875 -0.53125q-1.046875 0 -1.6875 0.46875q-0.640625 0.453125 -1.0625 1.203125l-1.171875 -0.90625q0.25 -0.390625 0.59375 -0.765625q0.359375 -0.390625 0.828125 -0.6875q0.484375 -0.296875 1.109375 -0.484375q0.625 -0.1875 1.421875 -0.1875q0.84375 0 1.5625 0.21875q0.734375 0.21875 1.265625 0.640625q0.546875 0.40625 0.859375 1.03125q0.3125 0.609375 0.3125 1.390625q0 0.640625 -0.203125 1.140625q-0.1875 0.5 -0.53125 0.875q-0.34375 0.375 -0.8125 0.640625q-0.46875 0.265625 -1.0 0.390625l0 0.078125q0.546875 0.109375 1.046875 0.359375q0.5 0.25 0.890625 0.65625q0.40625 0.40625 0.625 0.96875q0.234375 0.5625 0.234375 1.296875q0 0.84375 -0.328125 1.546875q-0.3125 0.6875 -0.90625 1.1875q-0.59375 0.5 -1.421875 0.78125q-0.828125 0.265625 -1.828125 0.265625q-0.859375 0 -1.53125 -0.1875q-0.65625 -0.1875 -1.171875 -0.5q-0.515625 -0.3125 -0.90625 -0.703125q-0.375 -0.390625 -0.671875 -0.828125l1.1875 -0.890625q0.25 0.390625 0.53125 0.71875q0.28125 0.3125 0.640625 0.546875q0.375 0.21875 0.828125 0.359375q0.46875 0.125 1.09375 0.125q1.375 0 2.109375 -0.625q0.734375 -0.640625 0.734375 -1.8125l0 -0.15625q0 -1.15625 -0.71875 -1.78125q-0.71875 -0.640625 -2.140625 -0.640625l-1.5625 0l0 -1.34375l1.4375 0z" fill-rule="nonzero"/><path fill="#000000" fill-opacity="0.0" d="m457.40945 253.50394l43.46457 0l0 42.015747l-43.46457 0z" fill-rule="evenodd"/><path fill="#000000" d="m468.08133 280.42395l-1.015625 -13.015625l1.390625 0l0.546875 7.453125l0.28125 3.9375l0.140625 0l1.71875 -8.0l1.765625 0l1.703125 8.0l0.15625 0l0.28125 -3.9375l0.53125 -7.453125l1.375 0l-1.03125 13.015625l-2.265625 0l-1.578125 -7.78125l-0.15625 0l-1.578125 7.78125l-2.265625 0zm15.553131 0.21875q-2.390625 0 -3.5625 -1.734375q-1.15625 -1.734375 -1.15625 -5.0q0 -3.265625 1.15625 -5.0q1.171875 -1.734375 3.5625 -1.734375q0.890625 0 1.546875 0.25q0.65625 0.234375 1.109375 0.65625q0.46875 0.40625 0.78125 0.921875q0.328125 0.515625 0.5625 1.03125l-1.34375 0.609375q-0.15625 -0.421875 -0.390625 -0.796875q-0.21875 -0.390625 -0.53125 -0.671875q-0.296875 -0.296875 -0.71875 -0.46875q-0.421875 -0.171875 -1.015625 -0.171875q-1.546875 0 -2.3125 1.1875q-0.75 1.171875 -0.75 3.125l0 2.125q0 1.96875 0.75 3.140625q0.765625 1.171875 2.3125 1.171875q0.59375 0 1.015625 -0.15625q0.421875 -0.171875 0.71875 -0.453125q0.3125 -0.296875 0.53125 -0.671875q0.234375 -0.390625 0.390625 -0.828125l1.34375 0.625q-0.234375 0.53125 -0.5625 1.046875q-0.3125 0.5 -0.78125 0.90625q-0.453125 0.40625 -1.109375 0.65625q-0.65625 0.234375 -1.546875 0.234375z" fill-rule="nonzero"/><path fill="#000000" fill-opacity="0.0" d="m38.64585 379.82153l96.125984 0l0 58.173218l-96.125984 0z" fill-rule="evenodd"/><path fill="#000000" d="m72.471275 408.3384l0 -7.0625l-0.265625 0l-4.703125 11.484375l-4.703121 -11.484375l-0.25 0l0 7.0625l0 11.203125l-2.46875 0l0 -22.34375l3.453125 0l3.9374962 9.859375l0.203125 0l3.9375 -9.859375l3.328125 0l0 22.34375l-2.46875 0l0 -11.203125zm7.5125427 11.203125l0 -22.34375l13.765625 0l0 2.34375l-11.078125 0l0 7.515625l10.6875 0l0 2.34375l-10.6875 0l0 7.796875l11.078125 0l0 2.34375l-13.765625 0zm27.262543 -20.0l0 20.0l-2.6875 0l0 -20.0l-7.453125 0l0 -2.34375l17.609375 0l0 2.34375l-7.46875 0z" fill-rule="nonzero"/><path fill="#000000" fill-opacity="0.0" d="m358.14154 378.91602l96.12601 0l0 58.173218l-96.12601 0z" fill-rule="evenodd"/><path fill="#000000" d="m380.27948 418.63602l0 -22.34375l8.140625 0q3.09375 0 4.71875 1.703125q1.640625 1.703125 1.640625 4.734375q0 3.046875 -1.640625 4.75q-1.625 1.6875 -4.71875 1.6875l-5.453125 0l0 9.46875l-2.6875 0zm2.6875 -11.8125l5.375 0q1.703125 0 2.640625 -0.84375q0.953125 -0.84375 0.953125 -2.421875l0 -1.65625q0 -1.5625 -0.953125 -2.40625q-0.9375 -0.859375 -2.640625 -0.859375l-5.375 0l0 8.1875zm29.028168 11.8125l-1.890625 -6.375l-7.84375 0l-1.875 6.375l-2.796875 0l6.859375 -22.34375l3.546875 0l6.84375 22.34375l-2.84375 0zm-5.65625 -19.484375l-0.296875 0l-3.140625 10.78125l6.5625 0l-3.125 -10.78125zm19.809418 19.875q-4.109375 0 -6.109375 -2.96875q-2.0 -2.984375 -2.0 -8.59375q0 -5.59375 2.0 -8.5625q2.0 -2.984375 6.109375 -2.984375q1.53125 0 2.640625 0.421875q1.125 0.40625 1.921875 1.109375q0.8125 0.703125 1.34375 1.59375q0.546875 0.875 0.96875 1.765625l-2.3125 1.0625q-0.28125 -0.734375 -0.671875 -1.390625q-0.375 -0.65625 -0.90625 -1.15625q-0.53125 -0.5 -1.25 -0.78125q-0.71875 -0.296875 -1.734375 -0.296875q-2.65625 0 -3.953125 2.015625q-1.296875 2.015625 -1.296875 5.390625l0 3.640625q0 3.359375 1.296875 5.375q1.296875 2.015625 3.953125 2.015625q1.015625 0 1.734375 -0.28125q0.71875 -0.296875 1.25 -0.78125q0.53125 -0.5 0.90625 -1.15625q0.390625 -0.65625 0.671875 -1.390625l2.3125 1.046875q-0.421875 0.9375 -0.96875 1.796875q-0.53125 0.859375 -1.34375 1.5625q-0.796875 0.703125 -1.921875 1.125q-1.109375 0.421875 -2.640625 0.421875z" fill-rule="nonzero"/><path fill="#000000" fill-opacity="0.0" d="m38.64585 -11.467192l96.125984 0l0 58.173225l-96.125984 0z" fill-rule="evenodd"/><path fill="#000000" d="m73.2994 28.25281l-1.890625 -6.375l-7.843746 0l-1.875 6.375l-2.796875 0l6.859371 -22.34375l3.546875 0l6.84375 22.34375l-2.84375 0zm-5.65625 -19.484375l-0.296875 0l-3.140625 10.78125l6.5625 0l-3.125 -10.78125zm20.403168 -0.515625l0 20.0l-2.6875 0l0 -20.0l-7.453125 0l0 -2.34375l17.609375 0l0 2.34375l-7.46875 0zm12.106293 20.0l0 -22.34375l2.6875 0l0 20.0l10.59375 0l0 2.34375l-13.28125 0z" fill-rule="nonzero"/><path fill="#000000" fill-opacity="0.0" d="m358.14154 -12.372704l96.12601 0l0 58.17323l-96.12601 0z" fill-rule="evenodd"/><path fill="#000000" d="m387.74823 27.737923q-4.109375 0 -6.109375 -2.96875q-2.0 -2.984375 -2.0 -8.59375q0 -5.59375 2.0 -8.5625q2.0 -2.984375 6.109375 -2.984375q1.53125 0 2.640625 0.421875q1.125 0.40625 1.921875 1.109375q0.8125 0.703125 1.34375 1.59375q0.546875 0.875 0.96875 1.765625l-2.3125 1.0625q-0.28125 -0.734375 -0.671875 -1.390625q-0.375 -0.65625 -0.90625 -1.15625q-0.53125 -0.5 -1.25 -0.78125q-0.71875 -0.296875 -1.734375 -0.296875q-2.65625 0 -3.953125 2.015625q-1.296875 2.015625 -1.296875 5.390625l0 3.640625q0 3.359375 1.296875 5.375q1.296875 2.015625 3.953125 2.015625q1.015625 0 1.734375 -0.28125q0.71875 -0.296875 1.25 -0.78125q0.53125 -0.5 0.90625 -1.15625q0.390625 -0.65625 0.671875 -1.390625l2.3125 1.046875q-0.421875 0.9375 -0.96875 1.796875q-0.53125 0.859375 -1.34375 1.5625q-0.796875 0.703125 -1.921875 1.125q-1.109375 0.421875 -2.640625 0.421875zm11.731293 -0.390625l0 -22.34375l13.765625 0l0 2.34375l-11.078125 0l0 7.515625l10.6875 0l0 2.34375l-10.6875 0l0 7.796875l11.078125 0l0 2.34375l-13.765625 0zm21.543793 -18.8125l-0.234375 0l0 18.8125l-2.421875 0l0 -22.34375l3.8125 0l7.609375 18.828125l0.21875 0l0 -18.828125l2.4375 0l0 22.34375l-3.8125 0l-7.609375 -18.8125z" fill-rule="nonzero"/></g></svg>