<?xml version="1.0" encoding="UTF-8" standalone="no"?>
<!DOCTYPE svg PUBLIC "-//W3C//DTD SVG 1.1//EN" "http://www.w3.org/Graphics/SVG/1.1/DTD/svg11.dtd">
<svg xmlns="http://www.w3.org/2000/svg" version="1.1" viewBox="0.00 0.00 400.00 400.00">
<path d="
  M 342.69 173.94
  C 349.77 167.28 347.88 155.23 340.20 150.06
  C 334.02 145.91 328.64 147.35 321.71 150.50
  C 301.72 159.60 281.43 167.51 260.33 173.68
  Q 243.59 178.58 227.06 184.11
  C 220.28 186.37 215.18 185.14 210.11 191.26
  C 205.97 196.25 205.17 204.19 209.03 209.46
  C 211.20 212.41 213.14 213.77 213.10 217.54
  C 212.94 231.81 196.18 236.06 184.78 235.17
  C 171.30 234.12 165.68 222.11 173.88 211.19
  C 178.65 204.85 180.51 198.41 175.84 191.44
  C 172.52 186.47 164.43 182.99 158.94 180.79
  C 130.30 169.29 101.56 158.03 74.22 143.74
  C 64.30 138.55 54.21 135.62 43.36 132.39
  A 1.32 1.31 -75.2 0 1 42.46 130.83
  Q 43.61 125.99 44.74 121.00
  C 46.99 111.12 53.47 103.73 61.04 97.38
  C 65.73 93.45 72.44 90.08 78.18 86.69
  C 86.48 81.79 96.44 77.50 103.96 74.75
  Q 140.33 61.48 177.50 50.64
  C 192.29 46.33 208.29 41.55 223.61 46.00
  C 232.76 48.66 241.60 50.86 250.07 55.43
  C 261.21 61.46 268.44 66.19 275.36 69.22
  C 284.20 73.09 292.77 78.11 300.83 83.42
  Q 314.70 92.55 328.71 101.47
  Q 332.31 103.77 336.16 107.28
  C 343.08 113.59 350.36 118.80 355.38 127.31
  C 359.54 134.37 362.61 138.98 364.06 145.44
  Q 366.80 157.69 367.63 170.81
  C 368.24 180.53 366.91 190.55 365.76 200.47
  Q 365.60 201.86 365.61 203.25
  Q 365.68 222.78 362.84 242.06
  C 361.86 248.74 361.05 259.98 358.67 268.81
  Q 358.36 269.95 357.02 276.46
  C 354.78 287.26 346.09 298.47 337.23 304.77
  C 327.86 311.43 318.25 317.90 307.22 321.46
  Q 301.91 323.18 298.64 324.77
  C 280.97 333.42 262.30 340.41 244.08 347.84
  C 233.54 352.13 218.17 360.03 205.09 362.59
  Q 177.78 367.93 153.20 357.11
  C 129.71 346.76 105.45 332.61 83.79 317.25
  C 80.33 314.80 74.91 312.59 72.06 309.93
  C 65.47 303.78 60.18 299.11 56.83 291.43
  C 53.03 282.70 52.43 271.25 50.67 261.54
  C 49.22 253.62 48.62 245.62 47.70 238.20
  Q 46.84 231.22 46.55 226.39
  Q 44.74 196.61 43.13 165.91
  A 1.10 1.10 0.0 0 1 44.66 164.84
  Q 58.37 170.78 72.03 177.34
  C 94.48 188.11 117.35 197.73 140.67 206.63
  A 0.94 0.93 -72.1 0 1 141.24 207.75
  C 132.53 239.57 153.96 265.61 186.00 266.31
  C 217.48 266.99 247.04 246.93 243.93 212.12
  Q 243.84 211.11 244.82 210.80
  C 265.91 204.24 288.28 198.39 306.98 190.47
  Q 320.07 184.92 333.24 179.56
  Q 339.35 177.07 342.69 173.94
  Z"
/>
</svg>
