<?xml version="1.0" encoding="UTF-8" standalone="no"?>
<!DOCTYPE svg PUBLIC "-//W3C//DTD SVG 1.1//EN" "http://www.w3.org/Graphics/SVG/1.1/DTD/svg11.dtd">
<svg xmlns="http://www.w3.org/2000/svg" version="1.1" viewBox="0.00 0.00 400.00 400.00">
<defs>
  <!-- hardcoded fill gradient -->
  <linearGradient id="fill" x1="0" y1="0" x2="1.1" y2="0.1" >
    <stop offset="0%" stop-color="#291e25" />
    <stop offset="35%" stop-color="#43323e" />
    <stop offset="60%" stop-color="#bba5b6" />
    <stop offset="100%" stop-color="#f0e1ec" />
  </linearGradient>
</defs>

<g fill="url(#fill)">
<path d="
  M 234.59 43.20
  C 234.31 64.97 245.48 78.42 265.05 85.87
  C 286.25 93.94 306.32 101.12 325.12 112.23
  Q 325.77 112.61 325.02 112.64
  C 301.36 113.75 280.67 124.46 265.83 142.32
  C 245.17 167.19 249.51 204.07 246.23 232.75
  C 244.67 246.44 241.81 260.59 228.43 266.90
  Q 221.43 270.21 207.42 274.06
  Q 199.92 276.13 197.06 278.19
  C 190.12 283.21 188.33 291.60 190.60 299.79
  C 194.27 313.01 204.01 318.82 215.46 325.92
  C 230.59 335.31 245.66 341.05 263.73 344.16
  A 0.15 0.15 0.0 0 1 263.80 344.42
  C 249.22 356.50 228.17 372.01 208.00 368.50
  C 202.53 367.55 196.01 365.06 190.54 363.74
  C 157.94 355.87 129.12 347.07 99.88 334.44
  Q 85.11 328.06 71.41 319.60
  C 59.72 312.37 52.32 305.08 52.50 290.27
  C 52.76 269.44 54.07 248.56 54.06 227.75
  C 54.04 209.04 52.48 192.37 50.45 175.02
  A 0.40 0.40 0.0 0 1 51.01 174.61
  Q 65.59 181.28 79.79 188.55
  C 81.91 189.64 84.98 190.44 87.43 191.63
  Q 87.95 191.88 87.74 192.41
  Q 79.66 212.86 92.60 229.90
  C 99.82 239.41 110.02 244.46 122.13 244.34
  C 139.22 244.16 150.72 234.93 159.91 220.87
  A 0.78 0.77 -67.1 0 1 160.70 220.54
  C 179.08 224.12 196.93 224.43 215.04 217.53
  C 220.61 215.41 226.00 212.93 228.85 207.60
  C 236.16 193.91 221.70 179.69 207.95 186.71
  C 197.20 192.19 186.48 193.06 174.39 191.31
  C 165.80 190.06 158.73 183.60 150.29 183.17
  C 139.61 182.63 131.99 190.61 133.27 201.73
  C 134.20 209.89 118.83 219.37 116.05 208.86
  C 114.98 204.83 117.70 199.54 121.01 197.07
  C 132.02 188.85 128.71 173.54 116.27 168.98
  C 107.36 165.71 97.81 162.98 89.37 158.78
  C 77.94 153.08 67.12 147.14 55.29 142.34
  A 0.94 0.94 0.0 0 1 54.86 140.95
  C 57.70 136.56 61.12 133.88 66.14 131.34
  Q 96.39 116.03 128.22 104.26
  Q 130.27 103.50 132.10 101.74
  A 0.91 0.89 -30.9 0 0 132.33 100.85
  C 128.20 87.15 125.03 73.31 134.50 61.38
  C 139.70 54.82 154.40 55.33 161.63 55.98
  Q 171.59 56.86 173.82 56.84
  Q 190.50 56.67 206.39 51.63
  C 217.11 48.23 223.83 46.37 231.05 40.03
  A 1.20 1.18 -62.5 0 1 231.98 39.73
  C 233.84 39.94 234.61 41.32 234.59 43.20
  Z
  M 355.80 247.43
  C 356.36 268.34 347.56 288.18 329.50 299.96
  C 317.43 307.84 300.63 315.34 285.99 314.58
  C 267.64 313.62 250.27 310.49 234.52 299.52
  A 0.68 0.68 0.0 0 1 234.68 298.32
  C 272.50 285.08 276.50 241.89 277.17 207.85
  C 277.47 192.71 278.79 172.14 289.08 159.93
  C 302.10 144.50 317.17 141.39 336.68 143.75
  A 0.35 0.34 -60.8 0 1 336.85 144.36
  Q 334.91 145.92 332.85 147.63
  C 320.56 157.83 318.07 174.55 328.65 186.88
  Q 332.29 191.13 333.27 192.60
  C 345.32 210.64 355.23 226.62 355.80 247.43
  Z"
/>
</g>
</svg>
