<?xml version="1.0" encoding="UTF-8" standalone="no"?>
<!DOCTYPE svg PUBLIC "-//W3C//DTD SVG 1.1//EN" "http://www.w3.org/Graphics/SVG/1.1/DTD/svg11.dtd">
<svg xmlns="http://www.w3.org/2000/svg" version="1.1" viewBox="-10.00 0.00 420.00 420.00">
<path d="
  M 307.33 338.70
  C 292.97 353.09 278.06 364.22 258.63 370.92
  C 252.25 373.11 248.62 374.31 242.74 374.99
  C 240.79 375.21 238.06 376.18 235.71 376.44
  Q 223.53 377.77 211.30 378.51
  C 169.86 380.99 127.39 368.58 98.21 339.10
  Q 95.91 336.78 92.70 332.57
  C 90.40 329.56 87.63 326.61 85.76 323.54
  Q 71.55 300.33 67.47 273.25
  C 63.23 245.12 62.35 214.05 69.41 186.29
  Q 76.98 156.52 87.04 131.55
  C 97.69 105.13 118.14 84.49 139.31 66.06
  C 141.67 64.00 144.21 62.33 146.36 60.43
  C 152.45 55.03 159.48 51.81 166.78 48.42
  C 175.73 44.26 185.71 41.52 195.30 39.31
  C 204.59 37.16 211.14 37.53 220.50 38.56
  C 228.95 39.49 233.91 40.83 241.93 44.89
  C 250.93 49.46 258.51 53.18 266.28 60.42
  C 275.72 69.24 285.04 77.40 292.11 88.04
  Q 303.71 105.49 313.92 123.77
  C 321.51 137.37 327.04 151.85 332.28 166.45
  Q 334.61 172.97 336.02 179.77
  Q 336.12 180.25 335.70 180.51
  Q 316.02 192.76 295.28 203.10
  Q 294.84 203.32 294.50 202.98
  Q 283.00 191.73 271.96 183.56
  C 256.58 172.18 243.55 177.19 232.85 191.08
  C 225.75 200.29 218.62 209.15 211.13 218.02
  Q 210.78 218.43 210.33 218.14
  Q 206.02 215.26 203.50 213.01
  Q 190.86 201.76 178.20 190.54
  C 162.88 176.97 142.36 199.97 157.50 213.49
  Q 178.02 231.80 183.58 236.67
  C 200.36 251.34 217.55 257.81 234.71 238.20
  Q 246.14 225.14 256.20 211.21
  A 0.55 0.55 0.0 0 1 256.99 211.11
  Q 267.89 220.04 277.97 230.01
  C 285.67 237.63 295.33 238.17 304.66 233.37
  Q 323.18 223.84 341.17 213.43
  Q 341.74 213.09 341.88 213.75
  C 342.18 215.16 341.96 216.73 342.26 218.08
  C 344.28 227.06 343.67 235.20 343.78 243.98
  C 343.85 250.27 344.30 256.58 343.45 262.63
  C 339.26 292.61 328.84 317.15 307.33 338.70
  Z
  M 102.13 312.87
  C 112.34 326.62 125.29 336.11 140.71 342.91
  Q 145.85 345.18 148.92 345.35
  C 162.78 346.11 169.95 329.41 160.87 319.38
  Q 159.05 317.37 154.34 315.18
  C 146.99 311.77 139.88 308.08 134.18 302.34
  Q 122.25 290.33 115.73 274.58
  Q 115.28 273.50 113.91 268.23
  C 111.38 258.54 101.41 254.01 92.46 258.00
  C 71.33 267.43 94.15 302.13 102.13 312.87
  Z"
/>
</svg>
