<?xml version="1.0" encoding="UTF-8" standalone="no"?>
<!DOCTYPE svg PUBLIC "-//W3C//DTD SVG 1.1//EN" "http://www.w3.org/Graphics/SVG/1.1/DTD/svg11.dtd">
<svg xmlns="http://www.w3.org/2000/svg" version="1.1" viewBox="-20.00 -20.00 440.00 440.00">
<path d="
  M 370.50 206.67
  C 364.36 230.04 343.30 252.21 322.02 262.97
  Q 321.52 263.23 321.78 263.73
  C 328.64 276.99 330.63 288.58 327.57 303.31
  Q 323.21 324.24 307.00 339.24
  C 272.26 371.40 213.55 358.96 184.81 326.22
  Q 184.45 325.80 183.95 326.04
  C 166.88 334.21 152.07 337.19 133.99 339.99
  C 123.10 341.68 113.10 340.88 102.79 336.54
  C 81.51 327.59 65.75 308.91 60.53 286.42
  C 56.90 270.75 59.71 253.63 66.13 239.00
  C 70.28 229.55 77.52 219.91 84.15 211.23
  A 0.55 0.55 0.0 0 0 83.91 210.38
  C 71.03 205.46 60.03 195.81 51.29 185.21
  C 28.88 158.05 32.55 122.90 59.02 100.01
  C 79.23 82.53 113.08 77.63 138.30 82.26
  A 0.92 0.92 0.0 0 0 139.29 81.79
  C 148.05 65.57 160.36 50.24 176.93 41.95
  C 196.84 31.99 220.53 29.69 240.23 41.12
  C 262.18 53.85 276.33 80.26 281.11 104.95
  A 0.63 0.63 0.0 0 0 281.75 105.46
  Q 299.50 104.78 315.80 111.98
  C 333.37 119.72 349.90 128.25 361.57 143.94
  C 374.55 161.36 375.85 186.35 370.50 206.67
  Z
  M 229.06 172.09
  C 236.24 161.08 242.24 147.15 243.91 134.41
  Q 245.20 124.60 244.13 113.32
  C 242.22 93.04 228.33 68.54 203.57 79.54
  C 168.69 95.04 166.25 135.10 184.72 164.16
  A 0.45 0.45 0.0 0 1 184.07 164.76
  C 177.02 159.28 169.88 152.29 163.42 147.69
  C 150.76 138.68 137.94 132.11 122.00 133.68
  C 107.59 135.10 93.28 141.27 92.05 157.48
  C 91.30 167.30 96.21 174.75 103.42 181.07
  C 122.26 197.56 150.33 205.18 175.48 205.10
  A 0.99 0.99 0.0 0 1 175.81 207.03
  Q 155.04 214.25 135.44 223.99
  C 118.78 232.27 103.39 245.36 100.66 264.73
  C 98.50 280.04 104.40 292.22 119.72 296.56
  C 142.25 302.94 167.25 287.36 181.05 270.31
  C 186.39 263.72 193.01 255.15 196.87 246.84
  Q 200.15 239.80 202.70 232.44
  Q 202.82 232.08 203.04 232.39
  Q 203.60 233.18 203.50 233.77
  C 199.60 257.12 202.97 279.54 219.13 297.15
  C 228.07 306.89 236.64 312.58 250.36 311.60
  C 259.25 310.96 267.19 308.48 272.63 301.15
  Q 281.70 288.93 280.65 273.54
  C 278.67 244.51 255.58 226.81 235.95 208.76
  A 0.50 0.50 0.0 0 1 236.43 207.92
  Q 252.18 212.76 268.73 213.85
  Q 297.64 215.76 320.44 198.41
  Q 328.92 191.97 330.41 181.92
  C 331.79 172.66 326.61 166.68 320.43 160.84
  C 309.54 150.57 286.90 149.79 273.18 152.05
  C 255.14 155.03 243.75 161.71 229.87 172.83
  Q 227.16 175.00 229.06 172.09
  Z"
/>
</svg>
