<?xml version="1.0" encoding="UTF-8" standalone="no"?>
<!DOCTYPE svg PUBLIC "-//W3C//DTD SVG 1.1//EN" "http://www.w3.org/Graphics/SVG/1.1/DTD/svg11.dtd">
<svg xmlns="http://www.w3.org/2000/svg" version="1.1" viewBox="-25.00 -20.00 440.00 440.00">
<path d="
  M 105.77 85.34
  C 103.10 102.87 116.34 119.59 131.86 125.91
  Q 132.32 126.10 132.80 125.95
  C 148.20 121.12 168.29 121.25 182.75 122.05
  Q 184.84 122.17 185.33 121.01
  Q 190.36 109.01 188.11 97.99
  C 185.86 87.01 193.78 77.45 205.30 76.93
  C 220.23 76.27 235.37 77.92 235.09 96.34
  Q 235.04 99.16 233.25 104.52
  Q 228.84 117.64 225.00 131.66
  A 2.03 2.03 0.0 0 0 226.14 134.06
  C 233.07 137.12 239.22 140.63 245.89 145.27
  Q 259.79 154.93 273.52 164.85
  Q 273.91 165.13 274.39 165.08
  Q 289.38 163.45 297.99 160.70
  C 313.49 155.74 323.69 142.99 325.66 127.11
  C 327.85 109.44 316.95 87.57 305.69 74.55
  Q 304.96 73.70 306.04 73.98
  C 322.78 78.20 335.09 87.49 346.53 99.89
  C 360.03 114.52 360.69 127.84 360.62 146.75
  C 360.50 179.26 326.24 199.53 298.63 205.69
  A 1.12 1.11 -13.4 0 0 297.79 207.05
  C 309.65 255.11 280.01 299.92 242.19 326.39
  Q 213.24 346.65 180.53 360.00
  C 167.49 365.32 154.24 369.17 139.75 368.52
  C 119.39 367.59 103.17 352.32 92.82 336.23
  C 87.16 327.43 84.28 320.16 80.63 311.68
  C 77.96 305.48 76.55 299.02 74.70 292.52
  C 68.39 270.35 68.28 245.17 69.36 222.32
  Q 69.60 217.17 72.60 198.03
  Q 76.25 174.74 89.79 155.59
  Q 90.09 155.16 89.70 154.81
  Q 72.55 139.35 67.81 116.67
  Q 66.86 112.11 65.94 99.75
  C 65.06 88.01 66.89 75.62 73.70 65.76
  C 87.92 45.20 117.72 35.71 141.73 37.15
  Q 158.86 38.19 175.68 42.24
  A 0.60 0.59 51.1 0 1 175.56 43.41
  C 164.11 43.59 155.29 44.56 142.78 48.59
  C 126.67 53.78 108.50 67.47 105.77 85.34
  Z
  M 144.18 174.61
  C 155.60 166.33 151.21 148.30 137.26 146.72
  C 121.68 144.96 106.91 160.81 108.94 176.20
  C 110.56 188.46 121.17 198.76 131.83 203.96
  C 150.47 213.03 173.58 214.07 192.66 205.74
  Q 193.13 205.54 193.48 205.90
  C 207.95 220.74 236.41 235.16 256.29 222.27
  Q 265.88 216.06 268.65 213.10
  Q 281.74 199.10 271.61 182.35
  C 266.68 174.19 256.26 163.77 245.81 167.85
  C 234.29 172.34 231.88 186.16 241.04 194.39
  A 0.56 0.55 39.4 0 1 241.12 195.13
  Q 239.99 196.64 238.01 196.28
  Q 223.52 193.62 214.20 182.33
  C 208.17 175.01 202.27 169.58 192.09 171.38
  C 187.22 172.25 182.68 176.78 178.76 178.04
  Q 160.94 183.78 144.28 175.74
  A 0.66 0.66 0.0 0 1 144.18 174.61
  Z
  M 126.22 237.96
  C 125.08 219.73 97.98 219.10 95.60 236.51
  C 94.00 248.18 100.09 265.43 115.18 262.92
  C 124.68 261.34 130.55 251.14 127.04 241.90
  Q 126.35 240.06 126.22 237.96
  Z
  M 223.95 286.60
  C 231.83 297.02 242.19 293.79 250.80 286.55
  C 264.79 274.79 251.23 252.93 234.36 260.69
  C 224.05 265.44 216.01 276.11 223.95 286.60
  Z
  M 177.59 300.52
  A 15.46 15.46 0.0 0 0 162.13 285.06
  A 15.46 15.46 0.0 0 0 146.67 300.52
  A 15.46 15.46 0.0 0 0 162.13 315.98
  A 15.46 15.46 0.0 0 0 177.59 300.52
  Z"
/>
</svg>
