<?xml version="1.0" encoding="UTF-8" standalone="no"?>
<!DOCTYPE svg PUBLIC "-//W3C//DTD SVG 1.1//EN" "http://www.w3.org/Graphics/SVG/1.1/DTD/svg11.dtd">
<svg xmlns="http://www.w3.org/2000/svg" version="1.1" viewBox="-50.00 -50.00 500.00 500.00">
<path d="
  M 230.20 96.89
  C 256.19 105.48 277.75 120.67 292.10 144.19
  C 303.91 163.54 308.66 182.36 309.39 205.12
  Q 309.54 209.72 308.86 215.32
  C 308.31 219.83 307.96 224.53 307.01 228.82
  C 303.35 245.33 297.47 258.72 287.79 272.53
  C 283.96 277.99 279.08 283.22 274.33 288.43
  C 270.13 293.05 265.09 296.14 260.05 299.67
  C 249.53 307.03 236.49 311.84 223.79 314.13
  Q 206.33 317.28 193.00 317.45
  Q 185.08 317.55 169.71 315.53
  Q 156.76 313.82 144.66 308.86
  C 136.79 305.64 130.60 300.56 123.63 295.35
  C 116.45 289.99 112.22 283.62 106.88 275.77
  Q 103.70 271.09 101.43 266.22
  C 96.77 256.20 91.90 246.06 89.73 235.42
  C 87.38 223.96 86.01 212.11 87.04 200.40
  C 88.04 189.19 89.59 178.31 93.85 167.85
  C 107.99 133.16 133.74 108.35 169.41 97.21
  Q 173.00 96.09 177.75 95.31
  C 189.56 93.37 202.51 91.24 215.08 93.69
  C 220.17 94.68 225.37 95.30 230.20 96.89
  Z"
/>
</svg>
