<?xml version="1.0" encoding="UTF-8" standalone="no"?>
<!DOCTYPE svg PUBLIC "-//W3C//DTD SVG 1.1//EN" "http://www.w3.org/Graphics/SVG/1.1/DTD/svg11.dtd">
<svg xmlns="http://www.w3.org/2000/svg" version="1.1" viewBox="-25.00 -10.00 450.00 450.00">
<path d="
  M 293.56 61.94
  C 308.66 77.18 315.90 97.32 322.49 117.26
  C 324.07 122.04 325.00 126.28 325.36 131.58
  C 326.57 149.25 328.23 165.55 320.07 182.07
  C 313.42 195.53 304.89 213.15 291.94 223.43
  Q 269.06 241.60 246.44 250.95
  Q 240.93 253.22 233.06 254.30
  C 214.68 256.81 195.05 257.58 176.76 253.97
  C 169.95 252.62 165.83 251.75 161.27 248.01
  C 156.16 243.83 152.61 241.55 155.02 234.47
  Q 157.42 227.42 162.89 222.38
  C 183.08 203.76 209.81 194.85 233.51 181.82
  C 256.33 169.26 275.32 151.62 281.37 125.42
  C 287.20 100.18 276.35 77.70 260.26 59.08
  C 248.63 45.61 235.43 37.90 218.52 32.47
  A 0.39 0.38 -42.8 0 1 218.55 31.73
  C 225.91 30.00 234.04 30.37 241.50 30.82
  C 246.03 31.09 248.76 32.46 253.74 34.75
  Q 277.33 45.55 293.56 61.94
  Z"
/>
<path d="
  M 209.06 114.19
  Q 234.12 112.10 242.64 88.43
  Q 242.79 88.01 243.19 88.20
  Q 244.04 88.62 244.67 89.61
  C 251.80 100.75 254.52 112.12 248.92 124.68
  C 246.48 130.17 244.47 134.28 240.31 138.64
  C 228.64 150.85 212.81 158.16 198.15 165.03
  C 181.54 172.80 164.21 181.15 149.97 192.84
  C 134.42 205.60 124.09 218.08 123.23 239.08
  Q 123.20 239.79 122.54 239.52
  Q 107.91 233.52 98.24 221.04
  C 89.88 210.23 84.84 203.43 83.60 192.08
  C 82.21 179.24 84.47 164.26 90.28 153.08
  C 100.42 133.58 122.17 120.13 142.99 115.02
  C 160.72 110.67 174.62 111.13 194.95 112.49
  C 199.18 112.77 205.08 114.52 209.06 114.19
  Z"
/>
<path d="
  M 63.97 225.27
  C 73.90 242.85 88.45 257.68 107.09 265.78
  C 147.89 283.51 193.66 291.38 237.69 284.37
  Q 255.02 281.61 272.02 272.49
  C 301.50 256.67 325.70 239.90 340.32 209.18
  Q 341.07 207.60 342.02 209.08
  Q 350.49 222.40 355.30 237.90
  C 362.71 261.74 359.82 290.46 345.95 311.59
  C 329.64 336.43 304.15 355.65 276.00 364.75
  Q 239.85 376.43 201.80 377.62
  C 161.64 378.87 124.26 376.81 89.46 362.50
  C 83.66 360.11 78.42 357.30 73.34 353.40
  C 50.64 335.96 37.68 313.91 38.83 284.54
  Q 40.14 250.95 62.41 225.11
  A 0.96 0.96 0.0 0 1 63.97 225.27
  Z"
/>
</svg>
