<?xml version="1.0" encoding="UTF-8" standalone="no"?>
<!DOCTYPE svg PUBLIC "-//W3C//DTD SVG 1.1//EN" "http://www.w3.org/Graphics/SVG/1.1/DTD/svg11.dtd">
<svg xmlns="http://www.w3.org/2000/svg" version="1.1" viewBox="0.00 0.00 400.00 400.00">
<path d="
  M 255.31 53.32
  Q 264.09 53.66 271.56 57.96
  A 0.47 0.47 0.0 0 1 271.68 58.66
  L 257.27 75.58
  Q 256.93 75.99 256.40 76.09
  Q 250.74 77.12 245.00 77.17
  Q 215.43 77.41 206.31 77.07
  C 192.40 76.56 178.58 76.12 164.67 76.69
  Q 158.39 76.95 152.17 75.67
  Q 151.67 75.57 151.38 75.14
  L 137.91 55.04
  A 0.54 0.53 -22.6 0 1 138.25 54.22
  Q 146.02 52.67 153.94 52.47
  C 174.53 51.97 195.00 52.97 215.56 52.75
  Q 235.44 52.54 255.31 53.32
  Z"
/>
<path d="
  M 64.49 192.37
  C 57.93 192.71 49.87 192.92 43.49 191.88
  Q 42.97 191.79 43.10 191.28
  Q 45.70 180.46 50.53 172.30
  C 57.43 160.65 64.38 146.18 68.98 137.70
  C 81.45 114.69 93.25 88.12 109.35 69.11
  A 0.44 0.44 0.0 0 1 110.05 69.15
  Q 116.51 78.64 122.96 88.30
  Q 124.28 90.28 125.60 93.37
  A 1.01 1.01 0.0 0 1 125.54 94.28
  C 124.08 96.79 121.65 98.66 120.20 100.58
  C 110.64 113.20 100.00 125.93 91.84 138.94
  C 81.55 155.38 71.23 173.39 65.15 191.87
  Q 64.99 192.35 64.49 192.37
  Z"
/>
<path d="
  M 296.97 76.58
  Q 297.03 76.42 297.09 76.23
  A 0.36 0.36 0.0 0 1 297.73 76.14
  C 302.95 83.60 308.16 90.77 312.19 98.98
  Q 318.66 112.13 324.75 125.47
  C 331.96 141.25 338.14 152.58 344.54 165.01
  C 348.04 171.81 350.71 179.96 353.76 187.56
  A 0.57 0.57 0.0 0 1 353.23 188.34
  C 343.75 188.27 334.32 189.82 324.81 189.48
  A 1.04 1.04 0.0 0 1 323.87 188.82
  Q 308.93 152.04 289.88 117.34
  C 286.55 111.26 284.19 103.91 280.02 97.52
  A 0.78 0.77 48.9 0 1 280.08 96.59
  L 296.83 76.83
  Q 296.93 76.72 296.97 76.58
  Z"
/>
<path d="
  M 250.08 109.59
  C 254.14 112.66 255.10 118.82 257.59 123.16
  Q 280.24 162.66 296.93 204.95
  A 1.63 1.62 49.1 0 1 296.83 206.36
  C 289.74 218.68 282.72 230.80 276.00 243.71
  Q 263.41 267.90 254.31 284.31
  Q 250.71 290.80 244.91 296.50
  C 241.86 299.51 235.98 300.44 232.19 300.45
  C 204.81 300.57 176.58 301.99 149.64 296.18
  Q 149.15 296.08 148.89 295.65
  C 134.49 271.67 118.01 248.82 102.90 225.25
  C 99.36 219.72 95.42 214.02 94.00 208.25
  C 92.87 203.60 96.97 194.08 99.11 189.77
  C 106.09 175.66 114.25 160.32 123.57 147.24
  C 124.49 145.95 126.14 145.04 126.93 143.93
  C 131.66 137.26 150.50 108.51 157.84 108.14
  C 180.08 107.00 202.19 107.96 224.43 108.25
  C 226.26 108.27 228.00 108.67 229.62 108.70
  Q 239.60 108.91 249.38 109.34
  Q 249.77 109.36 250.08 109.59
  Z
  M 206.84 142.15
  C 193.39 132.23 177.38 146.49 183.43 161.42
  C 187.02 170.28 182.72 184.41 178.23 192.29
  C 175.68 196.75 172.86 202.28 170.73 205.22
  C 163.82 214.77 155.95 225.39 154.34 236.22
  C 150.91 259.32 167.48 279.43 191.51 275.67
  C 212.89 272.33 229.76 256.87 234.89 235.69
  C 241.32 209.12 228.35 177.70 215.93 154.40
  C 214.02 150.81 210.13 144.59 206.84 142.15
  Z"
/>
<path d="
  M 324.28 220.83
  A 0.96 0.95 15.2 0 1 325.13 220.35
  L 353.89 220.94
  Q 354.54 220.96 354.34 221.58
  Q 349.98 235.13 342.03 246.79
  Q 324.00 273.25 306.81 300.25
  Q 301.14 309.15 295.53 316.76
  C 287.61 327.49 282.20 336.57 274.25 341.86
  Q 273.78 342.17 273.56 341.65
  L 264.85 320.90
  A 0.65 0.64 -32.8 0 1 265.01 320.17
  C 274.63 311.33 280.77 301.08 287.27 288.38
  Q 304.76 254.28 324.28 220.83
  Z"
/>
<path d="
  M 66.21 223.57
  Q 66.59 223.57 66.73 223.92
  Q 69.44 230.55 73.46 236.80
  Q 92.67 266.68 112.63 296.07
  C 115.57 300.41 118.51 305.60 121.61 310.22
  A 1.14 1.14 0.0 0 1 121.54 311.57
  L 108.39 327.82
  A 0.71 0.71 0.0 0 1 107.23 327.74
  Q 91.40 301.82 76.15 275.50
  C 68.24 261.83 60.94 247.53 53.54 233.45
  Q 51.10 228.80 49.45 223.82
  Q 49.31 223.41 49.74 223.42
  L 66.21 223.57
  Z"
/>
<path d="
  M 134.19 346.31
  A 0.55 0.54 27.2 0 1 133.91 345.44
  L 148.13 328.11
  Q 148.45 327.72 148.94 327.78
  C 154.58 328.44 160.46 329.68 165.77 330.08
  C 185.51 331.54 204.56 331.85 235.08 331.24
  Q 235.63 331.23 235.85 331.75
  L 243.42 350.05
  Q 243.64 350.58 243.07 350.59
  Q 227.25 350.89 211.50 351.43
  C 196.84 351.93 182.58 351.44 168.09 351.16
  C 155.51 350.92 145.51 349.42 134.19 346.31
  Z"
/>
</svg>
